<svg xmlns="http://www.w3.org/2000/svg" version="1.2" width="2000" height="1200" viewBox="0 0 2000 1200" stroke-linecap="round" stroke-linejoin="round"><defs><style>#jcc-threat-map1{fill:#eaeaea;stroke:none}#jcc-threat-map2{fill:none;stroke:#fff;stroke-width:2}#jcc-threat-map3{fill:#faaaaa;stroke:#fff}</style></defs><g id="jcc-threat-map1"><path d="M565 895l-8-2-24-3-22-3-15-3-9-1-31-18-43-25-58-35 1-4 1-1 2-2 1-2-69-8-22-3v-4l1-1v-1l-1-1v3l-1-2-2-2 1.333-.667L267 776h-1v-2h2v-1h-1l-1-2 1-2 1-3v-4l-1-1v-4l-1-2-2-5-2-4-1-2-1-1-1-2-2-2h-1v-1l-2-4h-1l-1-3h-1l-1-1-2-2-4-6-2-1-1 1v-2h-1l-2 1v2l-2-2h-1l-1-1-1-2 2-1v-6l-1-2-1-2-1-1-8-2h-1l-1 1-1-2-4-1-4-3v-1l-2-1-2-2-1-4v-2l-1-1-2-2h-1l-2-3-2-2-1-1-2-1h-4l-2-1-3-1-2-1-1-1-2-1-3-1-2-1-3-1h-4l-4-1v-1l-1-3-2-2h-2v-3l3-3v-1l-1-2 2-3v-2l-1-2 2-5 1-2v-4l-1-1-1-1-1 1-3-4-1-2v-1l1-1h2l-1-5v-2h-2v-1h-2l-2-5v-2l-1-2-2-1-2-2-1-2 1-2v-1l-2-3-1-2-1-2v-5l-2-2v-2l-1-1v-1l-2-4-2-2-2-2v-1l-1-2 1-2v-7l1-1v-2l-1-1 1-1 1-1 2 2 1-1 1-1 1-2 1-2 1-2v-3l-1-4-1-2h-6l-1-1-3-4-1-2-1-3h-1l-1-3-1-2 1-2v-1l2-4-1-4v-3l-1-1 1-3 1-2v-2l1-4 2-1h2l1 1-1 2 1 1-2 1v5l1 1 1 1h1l3 5h1v2l2 1v-3h-1v-1l-1-3 1-4-1-2-1-1-1-1h2v-1h-1l-3-2h1l1-1v-4l-1-1-2-1 3-2 2-1 2-1 3 1 1 1h5l7 4 2 1 2-2 1-1 1 1 1-1h-3v1l-2 1-2-1v-1l-1-1h-3v-1h-2l-1-2h1v-1l-2-1-1 1-3 3v-1l-1-1h-1l-1-1h-1v-1l-3-3h-4v2l-1 2 1 1-2 1-1 4h-1l1 1v2h-1l-1-1-1-1-1-2-1-1h-2l-1-2-1-2-1-2-1-2-2-1-2 1h-1l2-3 3-5v3h1l-1-3-1-2 1-1-1-2-1-2-1-6-2-2-1-1-3-4v-2l-1-1v-2l-1-3-2-2v-2l-3-4v-1l-2-3 1-1v-1l2-2 1-5-1-3v-9l1-3 1-1 2-2 1-2v-12l-1-2v-2l-1-1v-2l-1-3-2-1 1-2-1-2-2-2v-1l-2-3-2-3 1-2 1-4-1-3 2-2 3-5h1l2-2 1 1 1-2 1-1 1-2h4v-1l-2-2 2-3 2-3-1-3 1-3 3-3 2-6 2-2v-2l1-3-1-2 1-1-1-4 1-2v-1l-2-1-1-2 2-2 1-2 1-4v-1l-1-3-2-3 1-4v-1l-1-2 1-2v-2l1-2v-2l1-1v-2l2-3 1-4-1-1v-3h-1v-5l3-3 1-2 3-4v-2l2-3 2-3v-2l1-1h2l3-3 1 1v2h1l-1-3h-2l4-6 5-10 3-6 1-3 1-3 1-2 1-1 1-5 3-6 1-3 3-7-1-1 2-2v-2l3-5 1-2 1-3 1-3h1l1-4 1-2 1-2v-3l1-1 2-1v-1l-1-2v-1l2-1 1 2v-3l-1-2 2-3 1-2v-2l-1-2h1l1-5v-2l3-2v-3l1-4-1-2 1-1 2 2v1l4-1 1 2 3 1h1l1-1 2-1h1l1 3v1l1 2 3 1h2l1-1h-3l-1-1-2-3v-1l-1-2-4-1-2-1v-1l-1-1-1 1h-2l-3 1-1-1v-1l-1-2-1-1-2 1 1-2 1-2 1-5 2-6v3l-1 3-1 6h2v-1l.8-.4-.8-1.6 1-2v3.5l1-.5v-3h1l1-2-1-3 1-1 1-2h3l-1-1-3-1-1 1-1-1-2-2 1-3v-4h1v2h1l1-1 3-1h4l-2-2h-2l-1-1v-2l-1-1h-3v1l-1 1 1-5 1-4v-5l-1-1v-5l1-3v-5l1-8-1-1v-2l-1-1-1-2-1-2v-4l1-5-1-4h2v-2l1-1v-1l1-1 1-1-1-1-1-2h2l1 2h2l3 5 2 1 2 2h1l4 3-1 1 2 1 2 2 3 1 2 1h3l1 1 2 1h1l1 1 3 2 4 1 3-1 2 1 1 1v4h1v-2l3 1 3-1h1l1 1-2 1 1 3h1l-1 2 1 1v3l1 1-1 1h-1v1l-2 1-2 2v1l-1 2-2-1 1-1 2-4h-2v2l-2 1v2l-3 2h-1l-3 3-1 1-2 2-1 2-2 2h1l3 1-2-2 2-2 2-2v-1l3-2 2-1v-1h5l1-2 3-3 4-2v-2h2v5l-1 1 1 1-1 1-1-1-2 2h-1l-1 2 1 1-1 1-1 1v-1l-1-2h-1v1l1 1 1 2 2-1v3l1 1-1 1-1 2-1 1v1l-1 2v2l-2 1-1-1-1-1v-1l1-1-2-1-1 2v3l-2 2-1-1v-2l2-2v-3l-1-1-1 2-3 1v1l-2 4-1-1 1 2-1 1 1 3 1-3v-1h4v2l1 2h1l4-3 1-1 2-2 1-2 2 3 1-1v-1h1l2-1 1-2-1-3 1-1-1-1v-3l1-1 1 2 1-2-1-2h-1v-1l1-1v-1l1-1v-2l1-1 2-2 2-4h3v-3l-1-1-1-2v-4h1l-1-3h-2v1l-1 1v2h-2v-3l1-3 2 1v-1l2 1 1-2v-1l-2-2-1-1v-3h-4l1-2v-2h2l1 2 2 1h1v-3l2-1 1-1-2-2 1-3-1-1 2-1-1-2h-2l-3 2v-1l1-1v-2h-1v-2l-1-2 1-1v-2h-2l1-1 2 1V8l19 5 10 3 13 4 19 5 19 5 18 4 21 6 16 3 33 8 16 4 13 3 24 4 6 2 21 4 8 2 11 2 28 5 36 6 21 3 16 3 19 3 26 3 25 4 18 2 27 3 9 1 19 2 13 1 14 2 20 1 18 2 16 1 14 1 14 1 23 1 26 2h18l14 1h14l20 1h42l14 1h21l15-1v-17l1 1 2 1 3-1 3 2h1v1l1 4 1 4v1l3 10v1l-1 1v2l4 3 1 1h3l1-1h3l2 1v2h12l1 1 1 2-1 2 1 1 4-1h4l2-1v-2l2-1h1v-1l3-1h2l1 1h7v1l7 3 2-1v2l-1 1-1 1 2 1 4-1 2 3v2l2 2 1 4 3-2-1-2v-2l1-1 2 1 1-1h3l1 1 1 1v2l2 2 2-1 1 2h4l1 3h-1l3 1h2v2l2-1h2v1l2-1h3l1-1 2-2 1-1 2-1 1-1 2-1 3-2 1 1v2h1l1 2 1 2 3-1 2-1 1 2 4-1h4l5-1 3 1 1 2 1 1 2 1h1l2-1 3-1 1 1h2l-2 3-3 2-4 2v1l-6 2-1 1h-1l-2 1-2 1-3 1-3 1-2 1-4 3-4 3-5 5-4 5-1 1-1 1-4 5-1 1-2 3-3 2-1 1-1 1-2 2-3 4h-1l-5 4-3 2v1l-3 3v2l1-2 1-1 2-1 2 2v1h2l2-1h3l4-2 3-1h1l4-2h1l1-1 2-1 1-2 1 1 3-1 2-1v-1h1l1-2 2 1 1-2 1 1 2 1 1 2-1 2-3 4 1 2-1 2-1 2v1l1 1 1-1 3-2 1-1h1l4 2 2 1 3 1 3-3 1 1 4-3 4-1 3-3 3-3 1-1 4-1h2l3-1h3l2-1 3-2 2-2v-1l2-2 2 1v-1h2l1-1 2-4 1-1 1-1 1-1 1-1 2-2h1l2-1 2-2 2-4 4-3h2v-1l6-2h7l3 1v1h-1l-2 2-2-1-2 1v2l-2 2h-1l-1 2-2 2-2 1v2l-2 1v2l-1 1-1 3-1 1-2-2v-1l1-2-2 1v-2h-2l1 1v3l3 2v3l-1 2v2l1 2h1l1-2 2-3 2-2 3-2v1l-2 3 4-2 3 1 3-1 2 1h1l2 1 1 2h3l1 2 1 2 2 1 1 2h1v1l1 1 1 1 1 1v2h2l1 1 3-1h3l1-1 2-1h1l1 3 1-1 2 2 1-1v-1l2-1 2 2h1l1 1 2-4h1l2-3 2-1 6-4 1-1h1l5-1 2-1h10l2-1 4-2 2-1 2-1 2-1h3l3-1h1l-2 3v4l1 4h-1v2l1 1h3l2-1 1 1h1l4-2h1l2 2v1h1l2-2h1v-1l1-1 2-1 2 1 1 2 1 2 1 1v3l1 1v1l-1 1v2l1 1 2-1 2 1h2l-1 2 2 2 4 2v2h-11l-1 1-2-1-1 2h-1l1-2h-5l-1-1-1 1-2-2-1 2v1l-1 3h1l-1 2 2 2-2 1-3-2v-1l-1-1h-2v-1l-3-2-3-1-1-1-2 1-2-1-2-1-2 1-2-1v1h-3l-2 3-1 3h-5l-1 1h-2v1l-1 1-2-1h-6l-1 1h-2l-1 1-1 6-2 1v1h-1l-2 1v1l-1 1v2h-2l1 2h-1l-1-1-1-1 1-2v-1l1-1v-1h1l1-3 1-1-1-1-1-1-2 3h-2l-1-1-1 1v2l-1 1-1 3v1h-4v-4l-1-1 1-3v-1l-2 2-1 3v4l-1 2-2 1-2 5-1 2-1 3v1l-2 3v1l-3 6-2 2-1 3 1 2-1 1v3h-2l-3 2-1 1v2l-1 2-1 1-1 3-1 2-1 6v1l1 1h2l1-2 1-2 3-1 2-3-1-1 4-6 3-1 2-1 2 1-1-2 1-4 1-3 2-2v-4h2l1-1h1v-3h1v-2h3v3l-2 1v7l-2-1v3l-1 1v3l-1 1v2l-1 1-1 1-1 2v3l-2 4-1 1-1 3v4l-1 4v4l1 3v2l-1 2-3 2v2l-1 2v4l-1 2 1 4 1 2v3l-2 6v4l-2 4v4l-1 2 1 3v3l1 3-1 1v1l2 3 1 2v1l1 2 2 2-1 1v11l1 2v5l-1 1v3l1 1 1 3 3 4 1 2 1 2 2 6 1 2 2 3 1 1v2l2 1 2-1v1l-1 1 5 1h3l3-2 3-1 4-2 2-3 5-4 2-3 1-3v-2l2-5 3-5 1-2 1-5 1-2v-2l1-7-1-2 1-3-1-7-1-6-1-4-3-4-1-2h2v-1h-2l-2-3-1-2-3-7-2-3-1-2 1-2 2-4v-3l-1-3v-2l-2-4v-2l2-3 2-4 2-7v-6l1-3-1-2-1-3v-2l3-1 2-1v-8h1l1 1 1-1 1-3h1l1 1h2l1-2v-1l1-2 1-2 1-3 1-2h1l1-1 1 1-1 2h-1l-1 1 2 3-1 2 1 3-1 3v2l1 3h1l2 1 1-1v-3l2-5 1-3-1-2 1-1-1-2v-2l-1-4 1-2 1-1 2-1 1-2 2-1h5l2-2v-1h-4l-2-2-1-4 1-3 2-1v-1l2-2v-1l-2-1h6l1-2h1v1l5 2 3 2h2l1-1h2l4 1 3 3 1 2 2 1 1-1h4l2 2 3 1h2l2 2h2l1-1 3 1 1 2h2l-1 2 3 4 1 2 1 2-1 1-2-2-1 1-1 1v2l1 2 2 2 2 1v1l1 2 1 4h1l-1 3v2l1 3v10h-1l-1 2-1 1h-2l-1 3v5l-1 1 1 2h-2l-1 1-1 2h-4l-2 4v7l-1 1 1 2 1 1 3 1 1 1h3l1 1 1-1 4-5h1v-1l1-2 1-2v-2l2-2-1-1 2-1 1-2 3-1 1-1 2-1 1-1 1-1 1-1h1l2 1h2l2 2 5 6 1 3 1 8 1 2 3 5v4l1 5 1 2 1 4 3 3v2l-1 3v5l1 2-1 5v2h-2l-1-1-1-1h-3l-1 1-1 1v1l1 1v1l-1 1-2 2v2l1 1v3l-2 2h-1l-3 2-1 2-1 5-1 5 1 2-1 1-1 1v2h-1l-1 1v2l-2 1v2l-1 1v2l-1 2 1-1-1 2h5v-1l4 3h3l2 1 2 2 2 1h3l1-1 1-3 1 2h3v1l-2 1h-1l-3 1h-2l-1 2 1 1h2l2-1 1-2 2 1 2-1 2 1 1 1 4 1h1l3-3 4-1 2-2 6-2h4l3-1h2l3-3 3-3 1-1 2-3 2-2 2-2 2-1 3-3 4-2 3-1 4-3 5-2 3-2 6-4 3-2 5-4 2-2 4-3 1-1 2-2 3-2 4-3 3-4v-1l3-3h1l1-1 3-2 1-3 1-2v-2l2-1 2-2 2-2-1-2v-1l-1-1-1-4-2-1v2l-2-1v-4h3l-1-1-4 1-1-2 1-1-1-5v-1l2-1 5-3 3-1 2-1 3-1 6-2h4l4-1 6-1h6l2 1 2 1 3 1h2l2-2 3-1h3l3-2h3l1 1 1-1 2 1v-1l1-2 3-1 2-1 1-1 2-4 2-2 2-1v-1l2-2h4l2-1v-5l1-2h-2l-2-6-3-2 1-1 1 1 1-1 2-2-1-2-2-1 1-1 1-1h-1v-2h-2l-1 1-1 2v-2h-2v-1h-2l1-2 1-3 2-1 1-1 1-1v-2l2-1 1-2 1-1h1l2-1 2-4v-1l1-3 4-5 3-5 2-3v-1l1-1 2-2 2-3 2-1v-1l2-1 2-2 1-1 2-1 2-2 3 1 2-1 7-1 4-1 5-1 9-3 7-2 10-2 8-3h3l4-1 7-2h2l4-1 4-1 12-3 5-2 8-2v-3l1-2v-6l1-2 2-1 2 1h3v-3h1l1-1 1-1 1-1 2 1v1l2 2h1l-1-1 1-3-1-1 1-1-1-2v-1h1l2 1 1-1 1 1 1-1-2-2h-1l-1-2h-1l1-3 1-2 1-2 1-2h1l1-2h1l1-2-2-2 2-4h1l1-2v-2l-1-1h-1l-1-1v-3h-1l1-2 1-1v-1l-2-2v-5h1l-1-2 1-1 1-1 1-2 1-1-2-12 5-15 9-25 1-1 3 1 1-1 1 1v2l1 2 1 3 5 2 1-1 1-1 4-3h1l1-1v-2h1l1-1h4v-3l1-1h6l1 1 4 2h1l1 1 2 1 1 1 1 1 3 1 6 20 5 15 4 14h1l-1 3 2 2-1 1 1 2 1 3h2l1-1 2 2h5l2-1 1 1v3l-1 2 1 2 2 1 1 3-1 3 1 1 4 3 2 1v-3h5l2 1 1 2-1 1 2 1 1 1 1 3h-2l1 2-2 1h1l1-1h1l2-1 1 2 1 1-1 3h-1v1l-2 6h-4l-1-2-1 1-1 1 2 2-2 2h-2l-1-1-1 1v3l1 1-3 1v-2l-2 3-2-1h-3l1 1v6h-1v-2l-3 1 2 2-1 1-1 3h-1l-1-2h-1v-2l-1-1-1-1-1 1-1-1-1 2-1 1-2 1-1 3h-1l-1-4-1 1 1 1-1 1-1 2h-1l1 2v2l2 1v1l1 1h-2l-2-1h-2l-2-1-2 1-1 1v-2l1-1v-2h1v-2l-1 1-1 2h-1v-2l1-1-1-2-1-2v2l-1 2-2 2-1 1v2l2 1v1l-1 3-1 3 1 2-1 1 1 1-1 1 2 1v1l-1 2-1 1-1 1v3l-1 1-2-2h-3l-1-1-1 2 1 3-1 4-1-2-2 1-2 2v-1l-1-3h-2l-1 3h1l2 2v2l-1 1h-1v-3l-2-2-1-2-1-2h-2v1l1 1 1-1 1 1 1 3 1 1v1l1 3-1 2-1-1-1-2v-2h-1l-2 2-1 2 1-4h-3v2h-1l-2 3-1 1v1l-1 3 1 1 1 1 1 2v1l-1 1-1-1-1 2-1 1-1 2 2 1-1 2-1 1v2l-2 1-1 2v3l1 1-1 2v3l-1 3-1-1-1 1-3-2 2 2 1 1h1v1l-1 2v4l-1 1 1 1 2 5v1l1 1 2 1-1 1h2l1-1 1-2 2 2-2 2v1l-4 2-2 2 2 1-2 3h-1l-1 3 1 1-1 1v1l-1 1 1 1 1 1h3l2-1h2l3 1 1 2 1 1 2 2v5l2 1h3l2 3v2l2 1 2 1h3l1 1 2-1 1-2 2-1h1l3-2v-2l-1-2 1-1-2-2h-2v-2l-1-1-3-1-1 1v1l-2-2 2-1h4l2 2 2 2 3 5 2 4-2-1v2l1 1 1 1-2 1-6 2-1 2-2-1-1 1-2 1-1 1v1l-1 2-5 2v1h-1v-5l-1-2v-2l-1-1v2l-2-1v1l-1 2 1 1-2 1v1h-1l-3 2 1 3-1 1v1l-2 1-2-1v1l-2 3-1-2-1-2v-2l-1-2v-4l-1 1v1l-1 1h-1l-1-2h-1l-2-1v1l1 2-2 1v1h1l1 3-1 1 2 1v-1l1-1 1 4h-2v1l-1 2 1 1-1 3-1-1-3 2-3 2h-2l-2 2v-1h-1l-2 1h-1l-1 1h-3l-1 2-2-1-2 2-2 1h-2l-1 1h-2l-2 3-2-1h-1l-3 2h-4l-1 1h-1l-1-1v1l-1 1-1 2h-2l-1 1-1 3-1-1-2 2-1 1-3 1-1 2-1 1-1 2-1-1-1 1-1 2-1-1-2 2 1 1-2 2-2 3v2l1 1-3 1h-1l-1 4 1-3 1 1 2-2h2v-4h2l1-2 2-1h1l1 1 2-1-1-1v-1h2v1h2v-1l2-1h3l2-1v-2l1-1 2 1v-1l9-2 2-1 2-1 2-1 2-2 1-1 1-2 1-1 1-2h1l1-2h2l-1 1-1 1v-1l-1 2-2 2v1l-1 3-2 1-1 3h1l2 1 1-2v-1h2v-3l2-1h1l2-2 1 1v-2l3 2 1-1 2-1 1-3 2-1 1 2-3 2-4 3-7 6-2 2-1-1h-1l-1 2-2 1v1l-2 1-2 1-3 2-2 2v-1h-1l-1 1-3 1v1l-2 1h-1v1h-3l-2 2h-1v1l-2 1-3 1-2 1-2 1-1 2h-3l-2 1 1-2h-4v3l-1 1-2 1-1-1-1-1v-4l1-1-2 1-1 1v2h-2l1-1h-1v1l-2 1v1l1-1h1l2-1 1 1v1l-1 3-4 3v-2l1-1v-2h-1v2h-1l1 2-1 1 1 1 2 1 2-1 3 1h3l1 4v9l1 7v2l-1-2v-2h-1l-1 1 1 1v2h1l-1 2 1 1-1 4v2l1 1-1 2v2l-3 3-1 2-2 1 2 4h-1l-1 1-1 2h2l1 1-2 2-1-2-1 2 1 1-2 1h-1v2h1l-2 6v2l-2 4v1l-2 3h-1v1h-3l1-4v-7h-5v-1l-3 1-1 2-1-1v-2l-2-1h-1l-1-1-1 1-1-1-1-1h-1l-2-1-1-1-1-1-2-1h-1l-1-1v-3l1-1-2-1-1-1 2-2v-2l1-3 2-3 2-2h1l2-1 1-1h1v-1l-2 1-1 1-3 1-3 3-1 1-1 2v2l-1 2-1 1v3l2 1v4l2 2 1 2 4 2v1l1 1 1 3v1l1 2 1 3 2 1 1 2 1 2 5 5h4l1 4-2 1 1 1 1 1-2 1 3 1 1-1 2 7h-2v2l-1 2 2 1v1l-1 2v2l-1 1-1-1-1 2v3l-1 2-2 2 1 1-1 1 1 1-2 1 1 2-1 2h-1v2h1v-1h1l-1 3-2 5-1 5-1-1-1 2 2 2h-1v2l-2-1-1 2h2l1 1v1h-1v-1h-2l-1 2v1l1 1-1 1h-1l-.667 3.333L1789 577l1 1-1 2-.833-.833-.167.833v5l1 3h-1l-1-1-2-2-1-2v-4l1-3-1-2 1-1-1-4 1-4 1-3 2-2v-2l-1-1 3-1v-1l1-3-1-1-2 1 1-2 1-1h1v-2l-1 1h-2l-1 1h-1l-1 2-2 1v-1l-1-2v-1l2-2 1-1v-1l-3 1v-2l1-1h-3l-2 1v-3l2-1h1l1-1-2-1h-1l-1-2 1-3-1 1-1 2 1 1-1 2-1-1-1-2 1-1-1-2-1 1v1l-1 2 1 1v2h-1v-1l-1-1-3-1-1-2h-1l-1 1-1-1v-1l-3-3 1-1h1l1-2h1l-1-2-2 2v-4l2 1 2-1 2 1v-1l2 1v-2l-3-1-1 1-1-2h-2l-1-1 1-2-2-1-1 2-2-1 1-3 1-1 1 1 2 1v-4h1l1-1h-2l-1 1-1-3v-1l1-2-1-1 1-3-2 1-1 1-1-3h-1l1-6v-3l2-3h2v-2l2-2v-1h-1v-4l-1 1h-2l-1 1v2l1 1v2l-2 1-1 2-1 1-1-1 1-2-1-1-1 3 1 2v1l-1-2-2-1v4l-1 2v3l-2 1v-2h-4l2 2 1 1h1l2 2v1l-1 1 1 1h2l1 2-2 1-2-1-2-2-1 1 2 1 2 1 2 2-1 2v1l-2 1 2 1v2l-2 2 1 1h1v2l2 3v4l2 2 3 3 1 2-1 2h-2l-1-2-1-2h-2l-1-1h-2l-1-2v1l1 2 3 2h2l1 1v1h1l1 1h1l1-1 1 1v1l1 2 2 3 1 4h-1l-2-2-2-2-1 1h-2l-1-1-2-1h-2l-1-1-1-1-1 3-2-1-2-4v-1l-1-1v2l1 3h-3v-1l-2-1-1-2-2-3v1l-2 2h-1l-2 3-2-1-1-1v-1l-1-2 1-4h2l-1-2 1-1h1l1-1-1-2v-1l2-1h1l-1-3v-4l-2-2 1 2 1 4v2l-2 2-1 1 1 2h-1l-1 1-1-2-1 1v4l-1 3v4l2 2v1h2l2-1 1-1h2l1-2 1 1v3l2 1 1 1v2h2l2 1h1l2-1 2 1 1 1v-2l2 1 1-1 2 2 2 1 1 2h2l2 2h2l4 1 1 1v3h-2v1l1 2-1 1 1 2v3l-1 1h-2l-2-1-1-1v2l-1-1-1-2-1-1-1-1-3-1-1-1h-1l-2-2-1-1-2-1-2-2h-2v1l2 1 1 1 2 1 1 1 3 3h1l1 1h2l1 1 1 2v1l2 1h4v1h5l-2 2 1 2 1-1 1 2h1l1 3v2h-1l-3-1-2-1v1h-1v1h1l1 1v1l2 1-1 1-3 2-1-1-2-1-2-2-1-1-4-3-1-1-2-1v1h1l1 2 2 1 2 1v1l3 3h1l2 1 2 1 2-1 1 1v2l1-1 3 2-2 1 1 1 2-1v3l-1 1-2 1-1 2-2-3-2-1-1-1-1 1-3-2 1-2-2-2h-2l-1 1-1 1-2-2h-1l-1 1-1-1-1 1h-2l3 2 1-1h2l1 1 2 1h1l1-3 1 1-1 1 1 2v2l1 1h3l1 1 2 1 1 1v1l1 2 1-1h2v-2h1v2h1l1-1-1-1-1-2 7 1h2l2-2 2 1 3 6 2 4-2-2v5l1 3h2l1 2-3 1-1-3-1 1v2l2 3 2 2 2-1v1l1 3 2 1v2l1 1 1 2 1 1 1 2-2-1-1-1v-1l-1-1-1-1-1-1-1-1h-1l1 1v1l1 2h-3l-2-2h-1l-2-2h-1v1l1 1 1 1 2 1v1l1 1-2 1v-1l-2 2-3-1 2 2h-2l-3-1-1 1-2-2-1 1 2 1h1l2 2h-2l-1 1-1 2-2 2h-3l-1-2-1 1h-1l-1-1v-2h-1l-1-1v-3l1-3h-1l-1 2-1 1 1 3 1 2 1 2h1v2l1 1-1 1 2 1 5-2 4-2 1 1h3l1-2 3-1 4-1h2v3l-1 3 1 1v1l1 3v3l1 1 1-1v-5l-1-2 1-1-1-2 1-2 3-2 1-1 2 1 2 4 1 2v1l1 4-2-1v1l2 3-2 3-1-1h-1l-1-1v2l-2 4v2l-1 1-1 1-1 2v1l-1 1-1 1h-3l-1 1-1-1-3-2v2l-1-2-1-1-1 2-3 1v-2h-1l-1-2 1-1h1l1-2-3 1h-2l-1 2 2 1-1 1 2 3h-2l-1-1h-2l-2 1-2-1h-3l-3-1-3-1 1 1 2 1 1 2 1-1h3l2 1 3 1 3 1 4-1 1 2v-2l2 3-1 2v2l-2-1-2 2h4l-1 3-1 1-1 1-2 3-2 1-1 2-4-3-1 1-1-1-2-1-2-2v1l1 1 2 1v2l4 2h5l1-1 2-2 1-1h2l1-1h2v-4l2 1v5l1-1 1-1h3l-2-2h2l1 3v1l-1-1v3h-3v2l-1 2-2 1v2l1 1-2 1-2-3-1 1 1 3h-2v-2l-1-1-1 1 1 2h-5l-2 1-2 1-3 2h-1l-1 1v-2l-2 2-2 3-2 3-1 1-2-1-1-1 2-2-2-1-1-2h-2l1 1 2 1v2l-1 1h-1v1h2l1 1 1 1-4 4-3 3-4 5-2 4-1 3h-1v3l-1 3h-1v-2l-2-3v1l1 2v2l1 2-1 4-2 2-1 1h-7l-5 2-5 2h-1v1l-5 4-3 2-1 2-3 5-2 4v1l-2 2-1 4-1 2v5h-1v-2l-2 1-1-1 1-2h-1v4l3 1h1v3l-1 2v-2h-2l2 3h-1l-4 4-1-1v3h-2l-2-1-2 2-1 3h-1l-1 2v1l-1 1h-1v1l-1 2v1l-2 2-2-1v-2h-1v4h2v2l-1-1h-1v4h-1l-1 2h-1l-3 1-2 2-3-2 1-3h-2l-1 4h3l1 1-2 3-2 2-1-1-2 2v-3h1l-2-1 1 2-2 1-2-1-3 1h-3l-4-1v1h3v1l1 4v2l2 1v2h-1l-4-3-1-3-1-1 1-1-2 1 1 3 1 1v2l2 2-1 2 1 3-2 2h-2l-1 2h1v-1h2l-1 2h-1l-3 1-1-1-1 1 1 1v-1l2 1v-1l2 2h3l-1 1h1v1l-2 1h-1v-1l-1 2-2-1v-1l-1-1 1 3 2 1h1l-2 3-2-1h-1v1l-2.25.75.25.25 4 1-1 3-2 2-2-2 1-1-1-1v4h-2l2 1-1 1h-2v2l2 1h1v2l-2 1h-1l-1 1 1 1 1 1-2 1h1l1-1 1-1v-1h3l-2 4-1 3-2-2v3h2v1h-2l-4 1h2v1h-2l2 1-1 2-1 3 2 2-1 1h-1l-1-1-1 1h2l1 1h1l1-1v3h-2v1l1 1-3 2h2l1 1-1 2 3-3v6l-1 2h-1v-3l-1 2 1 2v2l-2 1h5v6l1 1h-2l-1-1-1 3h2l1-1 2 1v2h-1l-.5-.5.5 2.5h-3l-1 1h-3l1 2-1 2h-1l-1 2 1 1 1 1-2 4-1 2 3-1v4l1 1 3 2v2l1 3 2 3v3h-2l-1 2h1v2l2 1v-2h-1l-1-2h2l1-2v-1l1-1-2-1v-3l-2-1v-4l-4-2v-2l1-1-2-2 1-1 1-2-2-3v-2h1v-3l3 1 1-2h1l2 1 1-2v2l1 3 2 5 3 6v2l1 3v3l1-2 1 1 1 3h-1l2 4 1 1v2l2 3 2 2 1 3h1l7 11 3 4h-1l-1-2-3-5-1.5-1.5 1.5 2.5 1 1 2 4 1 1 1 1h1v2l2 3 3 5 3 3 1 1-4-2h-1l2 6 1 1 1 3 2 4 1 3 3 5 2 3 3 5 3 4 5 7 3 4-1-2-1-1v-1l2 3 2 4 1 2-1-1-1-2v2l3 6 2 3 2 3 3 5 1 2 2 1 3 4 2 4 2 6 1 9h1v6l1 10-1 3 1 4v9l-1 2v5l-2 1-1 4-1 2 1 2-1 2v2l1 2v1l1 1-1 3h-1l-1 2-2 2-2 2-1-1h-2l-1 2-1 1-1 1h-1l-1 1h-7l-1 1v1l-3 1h-3l-2 1v-1l-2-2-2-1v-2l1-3 1-1 1 2 2 2 1.5.5-.5-.5 1-1 1 1-.75.75.75.25h3v-2l-1-1-2-3-3 2-1-2-1 1-3-2v-1l-2-2-1-2 1-2h1v-1h1l1 1 1 1 1-2h-3v-1h-1l-1 2h-1l-1 1-2-4-1-2 2-2 1 2 1-1-2-2h-2l1 1-1 1-1-1v2l-2-1-1-2-1-1 1-1v-1l-3-1h-2l-1-1h-2l-2 1-1-2h-3l-1-1-2-1v-1l-2-1-2-2-1-5-2-6-1-4h-3l-2-1-1-1 2-2 1-2 1-3 3-3-2 1-2 2-1 1v3l-1 1-1 1h-2l-1-1v-2l-2-3v-2l1-4-1-3-1-1-1-1h1l2-3-3 1h-1l-1 2h-2l2 3 1 3h-4l-3-1-2-2v-2l-5-5-1-3-1-1-1-1-1-2-1-2-1-3-2-3h-1l-2-1v-3h3l-1-1v-3l1-2 1-3 2-1-1-1 2-1v-1l1-2v-1l-1-3h-2l-1 2 1 2h-3v-5l-1-1h-2l-3-2-1 2v1l-1 1 1 1 3 1 2 1v1l-1 2v4h-2l-2-1-1-2-3-1-1-1-1-3h1l1-4v-5l-1-3 1-3 1-5v-2l1-2v-7l-1-4 1-2-2-1h1l-2-3-2-2 1-1h2v-1l-2-2-2-1-1-1 1-1-1-2-2-2-1-2h-7l-2 1-1-1v-1l-1-3h-4l-1-4-2-2h-2l-1-1-3-2h-1v-1l-1-2v-3l-1-1h-2l-1-1-3-1-2-4-1-1-1-1-2-2h-2l-2-2h-1l-4-1-5-3-4 1-2 1-1-1h-3v2l-1-1-2 1-1 3h1v1h-3v1h4v2h-4l-2 1h-1l-3 2-1 1-2 1-3 3-4 3h-1l1-3h-2l-1 2h-1v2h-4l-4.667 2H1503l-1 2h-2l-2.87-1.913-2.13.913-2-1v-5l-1-1v-1l-2-2-2-2h-3v-1l-2-2h-2l-2-2-3-1 1-1 2 1 1 1 1-1 1 1 1 1 1 1v-3h-1l-1-1-2 1-1-1h-1l-1-1h-1l-2-1 1-1 2-3h-1l-1 2-1-2-1-1h-1l-3 1v1l1 1 2-1 1 2 1 1 1 1-1 1-7-4-6-2-4-1-4-1h-10l1-2 1 1h5l1-1 2 1v-2l4 2h1v-2l-1-1-1-1-1 1-1-1-1-1-2 1h-1l-3 2h-1l-1-2-2 1-2 1v1h-1l-1 2h-4l-9 1-6 2v-1l3-1 1-1 2-2h-1l-2-1v-3l-1 1-1 4h-2l1-2-2-1v-1l-1-1-1 2 1 1v4l-3 1-1 1 1 2h-3l-2 1-1 1h-1l1-2-1-1v-1h1l2-2v-1h-2l-2-1 2 2v1l-2 1v2l-3 2h-2v1l1 1-3 1-7 2h-1l3-2 1-1-3-2-1-1-3-2-1-3 1-3-1-2v-3l-1-1v-3h-1l-1 1-1-1v4l-2 1 1 1-1 2v2l-1 1v8l-3 1v-2l-4-1h-2l-2 1v1h-2v1l-2 1-1-1h-1l-1-3h-2l1 2-1 1h-1l-2 1-2-1-2-1-1-1-1 1h-6l-3 2-4 1-4 2v-1l1-1-2-1h-1l1 3-2 2-2 1v1l-1 1-2 1h-2l-1 2h-1l-1 1-1 1v1l-2 1v2l-1-1h-3l-1 2 1 3h3l1 1 1 2h4l1-1v-2l1-3 2-3v-1l2 1-1 4 2 1-1 1 2 2v-1l1-1 1 2-2 3h2l1 1h-5l1 2h-1l2 2h-1l-2-1-2-2-1 1h-3v2l2 1h-3l1 1 1 1-1 1h-1l-2 1 2 2v1l1 1h1l1 1 2 1 1 2-1 1h2l2-1 1 1h3l-1 1 1 1 3-1 1 1 2 1v-1l2 1h1l1 3v1l2 1-1 2 3 1-1 1-1-1-1 2h-1v2l-2 1-1-2-1-1-2 2-2 4-2 1 1-2v-1l1-2h1l1-3 1-1v-1l-2-3-2 2-1-2-1 2h-1l-2-2v-3l-1-1-1-1-3 1v-3h-5l-2 1v-1h-3v-3l-1 1-1-1-1 1h-2l-2-2-1 1-3-3-1 1-1-1 1-1 1-1v-2l-2-2-1 2 1 3-2 1v3h1l1 1 3 1h2v2l1 2-1 1-1 2-1 1 1 1v1l1 2-2 2-2 2-2 1-1-3-2-1 1-1-1-3-2-1v-1l-2 1 1 1h-1l-1-1v-1l-2-1v1l-1 1-3-1h-1l-1 2 1 1-1 1v1l-1-1v2l-2 3-1-1-2 2-3-1v1h-1l-3-2 2-2h1l2-2-2-1h-3v-2l-1-1-2 1v1h2l1 2-1 1-1-2-2 2-2 2-1-1-1-2 1-1 1-1h1v-3l-1 1 1 1-2 1-1-1-1-2h-2v-3l-2-1-1-2-2 1-1-1-2-1v-1l-2 1-4 1 1-1-1-4-1-1-2 1v-5h-6l-3 2v-1l-1-1v-2l2 1v-3l-2 1-1-1-1 1h-2l-1 1-1 1-3 2-1-1h-2l-1 2 1 1h3l-1 1 1 3 1-1 1 2h-4l-4 2-2 1-3-1-7-1h-4l-3-2-8-3-3-1-5-2h-14l-8 2h-2l-3 1-1 1-1 1h-6l-2 1-3 1-6 3-8 3v-2h-1l-1-1-7 2-1-1 2-3v-6h-1l-1-1-2 1v-2l-1 1v1l-1 2-1 2-1 1-2-2h-1l-2-2-1-2v-1l-1-1-1 3h1l1 1v1l2 1 1 1-1 1 1 2-1 2 1 2 3 1-1 1h-1l2 2h1v2l-1 1 1 2-1 1-1-1-1 1-1 2-2 2-2 1-4-1v1h1v3l-1 1v1l-1 1v1l-4 5-3 3-3 1-8 4-3 1-2-1-6 2-1 3h1l6-3-1 2-3 1-4 2v-2l-2-1-4 2-2-1-1 1-1-1 2-2-1-1h-2l-2 1v2h-2v-1h-2v3l-2-2-1 1-1-1h-2l-1-4-2 1h-1l2 3v1l1 1 2 2 1 2h2l2 2 1 1h-2l-2 2-3 1-3 2h-2l-1-1v-3h-2l-1 1-2-2-1 1 1 1 2 1v3l-1 1 1 1-1 2-1 1-3 2-1 1-1-2 1-1-1-2-1 1 1 1-1 1v2l-2-1v-2l-4 2-1-1h-1v2l-2 2 3 1v1l2-1h1l1-1h1v2l-4 4-1 2-2 3v1l-3-3-2 1-1-1-6 1v1h4v2l1 2 2 1 3 2-2 3v1l-1 1-1 4-1 2v1l-2 4-3 1 1-5-2 2-2 2h-2l-2-1v-1l-2-2 1 3 2 5h3l4-1h1v3l-1 1v3h-1v5h-2l-1 1v6l1 1 2 3v2l1 3 1 3v4l-1 1 1 1-1 1h3v3h2l-1 2v2l1 1 1 2v4l1 1h3v1l-1 1-1 1 2 1h1l1-1v3h-3l-2 1-4 1v3h-3l-1-2h-2l-2-2-1-2-1 1-1-2-1-2-3 1-3-1v-1h-7v-1l-2 1h-1l-3-1-1 1-2-1v1l-1-1h-1l-4-3v-1h-2l-2-2v-1h-3l-2-1-1-1-3 1-1-1-3-2v-1h-1l-1-2h-6v-1l-1-1-2 1v-1h-2l-2-1 1-2-1-3h-2v-4l-1-2v-3l-1-1v-2l-1-2-1-1-2-1v-1l-1-1-1-2-1-2h-1l-1-2 1-2v-2l1-1-1-2v-2l-1-1h-1v-1l-2-1 2-1 1-3-1-1 1-2-1-1h-1v-5l-2-1-1-1-1 1h-1v-1l-2-1-2-3h-2v-2h-1l-1-1v-1l-1-1v-3l-2-2v-2h-2v-1l-1-2-1-2-1-2-3-1-2-1-1-3h-1l-1-2v-1l-1-2-1-2v-2l-1-2 1-1h-2l-1-2 1-2-2-1v-1l-2-1v-4l-1-2v-2h-2l-1-3-1-2v-2l-1-3v-3l-2-1-2-2v-1l-1-2-3-2v-1l-2-2-3-1-1-2-1-3h-1l-2-1-1-1-2-1-1-1 1-1-1-3-1 1v1l-1-1v-2h-1l-1-2-1-1v-3l-2 1-1-2-1 2h-2l1-2h-2v1h-5l-3-1h-1l-2-1h-4l-1-1-3 1h-2l-2-1-1-2h-3l-1-2-2 1-2 4h-2l-2-1-3 2v-1l-1 1h-4l-1 2v1l-1 1-1 2-1 1v1l-2 1v2l-1 2v2l-1 2h-1l-1 3v1l1 1-1 1-3 1-3 3-2 1-1 1v2l-1 2h-2l-5-2-1-1h-1l-3-1-1-1-1-1-1-3-1-1-2 1-1-1h-1l-2-1h-1l-2-4-6-2h-2l-2-1-3-3-2-1v-2l-1-1-1-2-3-2h-1l-2-1v-1l-4-3-2-3v-1l-1-4-1-2-2-4v-10l1-2-1-2-1-2h-1v-1l-1-2v-1l-2-2v-5l-1-3-1-2h-2v-3l-1-1-3-2-2-2h-1l-2-2h-1l-5-3v-1l-2-2-3-3-1-1v-3l-1-1-2-1v-1l-2-1-1-1h-1l-1-2-2-4-3-2v-2l-2-2h-3l-1-1-1-1-3-3-1-2-1-2-1-2-1-4-1-2-2-1h-1l-2-1v-1l-1.118-.118L646 884l-11-1-18-2-17-2-2 20-19-2-3-1-11-1zm735-700l1 2v-1l-1-1zm643.667 3.667L1944 198l-1-1h-1l1.667 1.667zM1642 859l-1-2-2 1-1 1 1 1 1-1 .5.5-.5-1.5h1l1 1zm19 113v1h.667l-.667-1zm-24-3v4h1l-1-4zm2 5l-1 1 1 2v1l1 1 2 4h1l2-1v-1l-1-1 1-2-4-3h-2v-1zm4-124l-2-1 1 1h1zm107-261v-1l-1-1-2 2v-1l-3 1-2-1-2 1v-2l-1-1 1 3 1 1 1-1 1 1 3-1 1 1h1l1-2 1 1zm39-134l2-1v-1l-2 2zm30-48l1-3v-9l-1-3-1-2-2-2h-1l1 3 2 1v4l1 3v8zM242 76h2l3-1-5 1zm-71 423h-2v1l1 1 1-2zm900 555l-4 2-5 3-3 2v-1l6-4 2-1 2-1h2zm59-42l-6 3-2 1-1 2h-2l3-3 1-1h2l1-1v-1l2-1 2 1zm259-46h-3l2-1 1 1zm223 99l-1 1-1-1h2zm68-66l2 2h2l1 1 2 2 2 3 1 3-1 1-1 1v-6l-1-1-1 3-1 3v3l-1 2-1-2v-3l-1-2v-4l-3-1-1-3h1l1-2zm-43-33v1h-1l1-1zm157-358l1 2 2 3 1 3 3 7 2 4-1-1-1-1-1-3-1-1v-2l-2-1v-3l-1-2-1-1-1-2v-2zm9 19l4 5 2 3 5 7h-1l-1-2-2-2h-1l-1-4h-2l-1-3-2-4zm22-178l1 6h-1v-6zm99-212l1 2-1-1v-1zm-517 58v-2l1-3v-5l1 1v5l-1 2-1 2zM267 48l2 3h-1l-1-3zm1399 1143h1l1-1h1l-1 1-3 1 1-1zm6-3v1l-1 1-2 1v-2h2l1-1zm3-.333V1186l-1-1 1-1 2 2v1l-2 .667zm2-4.667l2 2h-2v-2zm20-4l-3 2-1-1 2-1h2zm-15 3l2 1-1 1-1-2zm42-36l-1 3-1 3v-3l1-1 1-2zm-2 6l-1 3-1-1 1-1 1-1zm-61-21l1 1v1l-1-2zm1-2l1 1-1 1-2-1-1-1h3zm-25-21h3l2 1 1-1 1 1-2 1h-2l-3-2zm2-7h2v2l-1-1-1-1zm0 0l1 2 2 2v2h-1l-3-6-1-1-1-2h1l2 1v2zm65-54l2 3 1 2h-1l-1-3-1-2zm-16-35v2l-1-2h1zm0 2v3l2 5 1 4 1 2-1-1-2-4-1-3v-1l-1-2v-2l1-1zm6.571 17.714L1698 1036l-1-1-1-1-1-1-.429-1.286zM1673 988l1 2h-1v-2zm0 0l-2-1 1-1 1 2zm-656 154l2 6-3-2 1-1-1-2-1-2 1-1 1 2zm0 0l-1-3-1-1-1-4v-4l2 8 1 4zm-3-21v-5l1-1v2l-1 4zm1-6l-1-1 1-5 1-1v-2l2-4 1-1 1-3h2l-3 5-2 5-2 6v1zm7-17v-3l1-2 2-1-2 3-1 3zm14-20l-3 4-3 3-2 2 1-2 1-1 1-2v-1h1l2-2v-1h2zm0 0l-1-2h2l1-1v-2l1-1h3l2-2 2-2 2-1 1-1h3l1-3 2 1-1 1-2 2-4 2-4 3-8 6zm83-57l1-1h1l-2 2-10 7 3-3 1-2 3-2 3-1zm0 0h-1l-1-1h2v1zm517-134l3-1 1 1h1v4h-1l-2 3-1 1h-1v-2l-1-1v-2h1l1-2-1-1zm5.667-15H1641l-2-2h2l1-1 1-1 1 3-1 3-1-1-.333-1zM1273 1020l-1 2h-1l1-2h1zm-3 0l1 1v2l-2-1 1-2zm-5 1h-3l-3-1-3-3h1l2-1v-2h1l1 2 1 1 1-1v3l2 2zm56-11v1l2-1 1 1-2 2-1 1-4-1 2-2 2-1zm-88-7h1l3 2h1l3 2-2 1-1 2h-2l-2-1-6-2 1-2 1-1h2l1-1zm105-25h-1l-2-1v-1h2v1l1 1zm315-134v-2l2-2 2 1v1l-1 3-1 1-2 1-1-1 1-1v-1zm10-9l1 1-4 3 1-3 2-1zm1-3h1v2h-2l1-2zm-4-2v-2l2 1v1h1l1 2h-1l-3 3v3l-1 1h-1l-1-4h-1v-4h-1v-2h1l1-1 1 1h1l1 1zm30-25v1l-1 1v-1l1-1zm0 0h-1l1-1v1zm0-1l3-1v1l-2 1-1-1zM219 750l1 1 1 2 1 3 3 5-2 1-2-3v-1l-1-2v-2l-1-1v-3zm-32-20l3 2v1l-1 1-3-1v-2l1-1zm37 0l2 1 1 2h1l4 2-1 1 2 3v1l-1 1-2-2-3-1v-4l-2-2-1-2zm-47-38v2l1 1h1v2h-3l-3 1-2-2-1-3 3-1h4zm-11-4l.8 1.6-1.8-.6-1-1h2zm17 4h1l2 2h2l1 1 1 1 2 1 1-1h2l1 1-1 1h-4l-3 1-2-1-2-1-1-1v-2l-1-2h1zm1761-342l2 3v1l-1 1-3 1h-2l-2-1 1-1 4-1 1-1v-2zm-21 1l2-1v2l3 1 1-1v2l-4 1-4 2h-1l-1 2-2-2 2-1 1-4 1-1 2-2v2zm-145 199l1 1h-1v-1zm0 0l-1-1h-1l1-1 2 1-1 1zm-4-10l2 1-1 2h-2v-2l1-1zm-15-33h1v2l-2 2v2l-1 1v-9l2 2zm-14 240l1 3h-2l1-3zm2-6l-1 3-1-3h2zm49-47l-1.5 2.5.5-1.5 1-1zm-2.4 4l-.6 1v-1h.6zm9.4-14v-3l2 1-1 1-1 1zm16-34l2 3v4l-1-3-1-4zm2 8l1 4v5l-1-2v-7zm1 9v2l-1 1h-1l-2 1 1-2 2-1 1-1zm-13-28l1 1 2 1v1l1 2h-2v-2h-1l-2-2 1-1zm-7 0v1l-1 1-1-1 1-1h1zm18-167v-2l1-1v2l-1 1zm23-62l-2.857 1.714L1841 410h2zm0 0l2-1v1h-2zm-3.333 2l-1.667 1 1-1h.667zM1870 381l1 1h1l1 2h-4l1-3zm12-12l-3 3v-1l3-2zm-171-88l2-1h1l-1 3-2-2zm183 88l1 2 1 1-2 1h-1l1-4zm6-21l1 2 1 3v2h-2v2h-2l1-2v-2l1-5zm-111 232h1v4l-1-3v-1zm6-9l-1 2v-1l1-1zm1-6l-1 5-1-1 1-2 1-2zm6-20v3h-2l2-3zm-453-264v2l-1-1v-1h1zm12-10l2-1 1 1-1 1v2l-2-1-1-1 1-1zm-122-58l2 1-3 1-1 2h-1l-1 1-1-1 2-1v-1l2-1 1-1zm-3-4l1 1-2 1v-1l1-1zm6 1l-4 1 1-1 3-2v2zm-13-2v1h-1l1-1zm17-5v3l-2 1v-3l2-1zm255 200l1 1v3h-1v-4zm15-21l1-1h2l-2 2-1-1zm-126-97v1h-2v-1l1-1 1 1zm3-2l-1 1-2-2v-3h2l1 1v3zm3-15l-1-2h1v2zm3-17l1 1v1l-1-1v-1zm5-1l1 1v3l1 1v2l-2 2-2-1v-5l1-2 1-1zm30-6h2l2 1h3l-1 2h-3l-2-2-1-1zm31-9h-1l-1-1-2 1h-3l-2-1-1-1 1-1 1 1 1-2h3v-2l-2-1 3-1 2 1 1 1v2l3 1-2 3h-1zm-22-13v-3h1l-1-1-1-2-2-2-1-1 2-3h3v3h-1v2l1 1 2 3h-1v2l1 1-1 2-1-1-1-1zm-78-4l1 1-1 2h1v1h-1l-2-2v-2h2zm-69-66l4-1v1l-1 2v1l-3 2-2 2h-3l-5 4h1l2 1-7 3h-1l-1-2v-2l1-1 3-2 6-4 3-1v-1l3-2zm-601 955l4 1 1 2 3 1v1l3 1 1-1 4 2 5 2 2 1 3 2 3 2 1 1 2 2-1 1 1 4 3-1 1 2v2l2 1v1l1 1 4 2v2l-3 3-1 1-2 2-4 1-2 2-3 1h-4l-2 2-3 2-1 1-2 1-2 2v2l-2 2v1l-2 2-3-1-1-1-2-1-2-1h-1l-2-2v-8l1-3-1-3-1-2-1-1-1-4-1-3-2-1h1l-1-1-1-3 4-4h1l1-3 2-2h1v-3l-2-2-1-2v-4l1-2h1zm-30-13l1 1v2h-2l-2 1-2-1 1-1h1l2-2h1zm-17-14l3 1h1l3 2 1 2-1 2-3 1-3 1-1-3v-2l-2-1-1-2h1l2-1zm15-4h1l3 1v1l1 2 2 1 2-1 3-1h3l1 1 2 2h2v2h3l1 1 1 1v2l-1 2-1 1h-1l-2 1h-3l-1 1-3 1-3 1-2-1-1-2v-3l-1-3-1-1-1 1-3-1h-1l-3-3v-3l1-2 1-1h1zm-25-8h1l1 1h2l5 1 2-2 1 2h8l1 1-1 1-3 2-2 1-5-1-3-1h-2l-2 1h-4l-2-1 1-2 1-1 1-2zm-30-20h1l1 1v2l4 5-1 1 1 2h1v1l3 1 1 1v1l2 2-2 2v-1h-2l-1 1-3-2-2-1-2 1v-2l1-1h-3v1h1v2l-5 1v-1l-1-3-2-1v-2l-2-1v-2l-2-2h7l1-3 1-1 2-1 1-1zm-83-12h1l-1 3v1l-1 1-2 1-2 3h-1l-1-1v-1l1-2 2-2 2-1 1-1 1-1zm27-9h2l1 1 1 2v2l-2 3v3l-1 1-3 3-2-1h-2l-3-1h-1l-1-2-3-1-2-2 1-2 1-1 1-2 2-1 4-2h2l1-1 1 1h3zm1370-794v3h-1v-2l1-1zm31-16h1l1 2-2 1v-3zm-5 3l-1 1-1-1-2-1v-1l1-1 2 2 2-1-1 2zm-2-6v3h-3l2-3h1zm12-2l1-2 1 2-1 1-1-1zm-8-3h1l1 3v1l-1 1-2-1v-2l1-2zm5-4h-2v-2h1l1 2zm-13 1v3l-1-2 1-1zm17-8h1l1 1h2l1 2v2l-1 1-2 1-1 1h2l-1 2-3-2-1-1v-3l1-2h-1l2-2zM248 88l-1 2-1-2 2-1v1zm0-3h1l1 2h-1l-1-1v-1zm2-1l2 2h-1l-1-2zm-6-2v3l-2 1v-3l1-2 1 1zm15-2l-2 1-1 2-1-1 1-2 1-3 1-1h1v4zm0-14l1 1-1 1 1 1-1 3-1-2h-1v-2l2-2zm-1-16l1-3 1 1-1 2v1l-1-1zm8-15v3l2 1-1 2h-1l-2-1h-1v1l1 2v3l-1 4v2h1l1-2 1-1v3l2 1v4l-2 1-1-1v-2l-1-1h-1v-1l-1-2v-2l1-1v-2l-2-2-2-3 1-1 3-3 1-2h2zm-8-9h2v1l-1 1 1 2 1 1-2 1v-1l-2-1v-1l1-3zm5 0v1l-1 1v-2h1zm5 3h-2l1-2 1 2zm-10-5l1 1-1 1-1-2h1zm8 2v1l-1 1-1-2h2zm-13-5h1v1l2 3 1 1-2 1v2h-1l-2-3-1-1v-2l2-2zm7-1v1l1 3-1 1-2-1v-2l-1-1 3-1zm0 0v-1h1l2 1 2 3h-2l-1 1v-1l-1-1v-2h-1zm8 1l1 2-1 1-1-2 1-1zm-7-16v2l-2-1V5h2zM87 1153h2l-1 1h-1v-1zm-13-7l1 1v2h-1l-2-2 2-1zm6 6h-1l-1-1 4-1-2 2zm7 1l-1 1h-3l1-2 1-2h2l-1 2 1 1zm-31-16l1 1-1 1h-1l-1-1v-1h2zm35 13l1 1-1 1h-1v-1l1-1zm22 8l1 1h-2l-2-1-1-1 4 1zm10 0l1 1h-3l1-1h1zm-14-6l1 2-2 2h-6l-2-1 1-1 1 1h2l2-1 1-2h2zm-97-44l-2 1v-1h2zm128 50v1l-2 1v-1l2-1zm8 0v2l-2-2h2zM8 1098l2 1 1 2-2 1-1-1-2-1 1-1-2-1 2-1 1 1zm148 61.8v-.8l1-1v-1l3-1 1 1v-3l2-1h2l1 1v2l-3 1h-1l-2 2h-2l-2 .8zm24-5.8h2v1h-1l-1-1zm0 0v2h-2l-2 1h-2l-5 1h-3l1-2 2 1 3-1 1-2 1-1 2 1-2-2 1-2h3v3l4-2-1 2-1 1zm5-5l2 2h-3l-1-1 1-1h1zm3 0l1 1-1 1-1-2h1zm30-4v2h-1v-1l1-1zm260 13l1 1-1 1-2-1 2-1zm-272-17l2 1v3l1 2h1v1l-2-1-1 1h-1l-2-1h-2l-2 1-1 1h-3l-1-1-1-2 1-1h2l2-2 1-1 2 1 3-2h1zm16 2l2 2h-1l-1-2zm243 14l1 2-2-2h1zm-1 4l2 1v1l-1 1-1-3zm0 0l-2-1-1-2v-4h2l-1-1v-2h-2l-1-1 1-1 1-1-1-2v-3h-1v1l1 1h-2l-2 2-1-1 2-2 1-1-1-1-1-1 1-1h3l1 3 1 2 1-1 2 2 2 2v1h1l1 3 1 2 1 1h1l-1 2 1 2v1l1 1-1 2h-1l-2-1v-2l-1 1-1-1v-2l-2-2-2 1v-1h-1l2 5zm12-7l1 1v3h-1v-2l-1-1 1-1zm-237-9v2l-2 1h-1v-1h1l2-2zm222 11h-2l1-1 1 1zm-229-14h1v3l-1 1-1-1h-1l1-2 1-1zm241 10l1 2v2h-1l-1-3 1-1zm-16 0l1 1-1 1-1-1 1-1zm1-4v2l-1-1 1-1zm15 4l1-2-1-1v-3l1-1 3-1 1 2 2 2-1 4v2l-1 1-1-1-1-1-1 1-2-2zm-8-13h1l1 2 1 1h1v3h-1l-2-2-2-1v-1h1v-2zm0 0l-1 1-1 1-2-1 1-2h2l1 1zm4 0l1 1v-1h-1l-3-3 1-2h-1l-1-1-2-1-1-1v-2h-2l-1-1-1 1-2-1v-3l-1-3-1-1v-1l-2-3-1-2-1-2h-1l-1-1-1-1h-2l-1-2-3-5-1-3v-2l-2-2v2l1 4 1 2 1 3 1 4v2l-1-1-2-2h-1l-2 1v-3l-2-4-1 1-4-2-2-1v1l4 2 2 2 2 4h-2l-3 1h-2v-1h-2l-4-3-3-3v-1l-2-2-3-2-2-1-4-2v-1h-2l-1-2 2-2-1-1v-2l1-2h-1v1l-1 1-1 1-4 2h-4l-4-2 1-1-1-1h-4l-5-2h-2l-2 1h-3l-3 1-2-3h-3l-1-2h-1v-4l-1 1-1 1-2 1-2-1-2-1 2-1-2-2-2 1v-2l-2 1-1-1 1-1-1-1h-1l1-4-2 2-2-1-2 2v-2l-1 1v1l-1 1-3-2v-2l-2 4h-2l1 1 1-1 3 5-1 1-2 2 1 1-1 2-1-1-1 2-1 1h-2l-2-1-2 1-3 1-1 1v2h-2l-1 2-1-1-2 1-1 1-1 1h-1l-1 2-2-1-2 1-2-1-1-1 1-2 4-1 1-1 3-3h-1l-3 2h-1l-2-3 2-3 2-3 1-2 1-3-1-1v-2h3l3-2 2-2 1 2h4l2 1v-1l-2-1-1-1-1-1 1-1 1-2 3-1v-1h-2l-2 1-1 2h-3l-1-1-3 2-1 1-2 1h-1l-3 2 1 2h-1l-2 1v1l-2 1v1l-1 2-1 1h-2l1 2-1 3h-2l-1 3h-4v1h-2l1 1-4 2-1 4h4l1 2 1 1v3l-3 1h-2v2h-1v2h-1v2h-2v1h-1l-1 1h-3l-1 2h-2v2h-1l-1-2-2 2v2h-2l-1-1v1l-2 1-1 1v2l-1 2-3 1h-1l-3 2-1-1-1 1-1 1 1 1h-2v-1l-3 1 2 1-1 1-2-1v1l-1-1-2 2 2 1-1 1v1l-2 2-1-2-1 2h-5l-1 1-2 2v-2l-1-1-1 1-1-1-1 1v1l-3 1-1 1h-2l-1-1-1 1-2 1-2-1v-1l1-1v-2h-1l-1 1-1 2-2 3-1-1v2h-4v-3l-1-1-1 1 1 1-1 1-1 2h-1l-1-2-1-2h3l1-1 2-1v-1l4-3 4-2h3l3 1 2 3v-2l2 1v1h2v-1l-2-2 3-4 2-2h2l1-1 4-1 1-1 3-1 1 1h1v-3l1-1 3-3 2-1 1-1 2-1 1 2v-6l2-4h1l-1-2 1-3 4-3 1-2h-2l-3 1-4 1-2-1v-1l-1-1v-1l1-3-2 2-1 2v-1h-1v1l1 3v1l-1 1-2-1-2-5-1-3-3 2v-2h-2v-3l-4 2h-1l-1 1h-2l-1 2h-2l-2-1v-1l2-1h-1l1-3 2-1-1-1h-2v-2l1-2 2-1-1-3v-2l-1-2v-4l-1-3h1v-1l-2 1v4l-1 1-5 1h-4l-3-2v-1l1-1-2-2-1-3 .8-2.4-1.8 2.4-1-2-1-1-2-2 3-2 1-1 1-1h2v1h1l1 1v2h1l1-1h2l-1 2 1 1 2-1 1-1-1-1v-2l-1-1-1 1-1-2-1 1v1h-3l-1-2h-1l-1-1-1 1-1-2 1-1-1-2v2l-2-1v-2l1-1-2-1v-1l1-1v-1h-2v-2h3l-1-1-1-2 4 1-1-3 2-2 5-4 3-1v-3l2 2h1l-1-1-2-1 1-2 1-1h2l1 2v-1l-1-1-1-1v-1l2-1h2l2 1 1 2 1 2h2l3-2 4-3 1-1 1 2h6l3-4v-7l-1-3-2-1 2-1 1 1 3-2v-3l-1-1v-1h-1l-2 2-2-1-1 1h-2l-1 1-2 1-1 2-2 1 1-3-2-3-1 1 1 2-1 1v-1l-2-2-4-1h-4l-2 1-2-2-5-3-1-1v-2l1-1v-1l-1-1-1-2 4-2 1.333.667L228 986l-1-1-4-2-4-1-2-4v-1l1-1h2v-1l2-1 1 1 3-1 1-2h3l1 1 2 1 1-1-1-1v-1l1-1 2-1h2l1 1 2-2h2l4 1v1l-1 2v2l-1 1 1 2h1l3 1h2v1l2 1 2-1 2 2 3-4 3 2v-1l-1-1-2-2 1-1h2l1 2 1 1h3l1-2-1-1-2-1-1-1h-2l-1 2-1-1-2-3 1-3 1-1h1l-2-2h-2v1l-3-1v-1h-3l-3-2v-5l-1-4-2-2-1-2-2-4-4-3v-2l-2-2 3-4 1-3v-2l3 2h2l6 1 3-1 3-2 3-3 2-4v-2l1-1 2-1 2-2v-1l2-1 1 1 2-2 2 1 2-1 4-2 1-2 2 1-1 2h1v-2l-1-1 3-3 1 1 2 1 1-1 2 1 3-1 3-1 2-2 3-3 1-1 1 1 2 1 1 1 2 1v1l-2 2h-1l-1 2h1l2 1 1-2v-1h2l2-1 1 1-1 4h2l1 1 1-2h5l1 1h2l2 1-2 2v2l1 1h2l1 1-1 1h2l1 1h2l1-1h1l1 2 2-1 2-1 4 1 2 1h1l1 2 2-1 1 2 1 1h2l2 1h4l2 1 1-1 2 2 1 1 4 1v-1l8-1h1l1 1 3 2 1 1 1 1h1l2 1 1 2 1-1h1l2 150 4 1v-1l4 2 2-3h5l-1 4 1 1 3 2v2l9 7 1 5 1-1 4-3h2v-5h1l1-2 2-1 3-2 2 1 2 2v2l1 2 2 1v1h2l1 2v1l1 1 3 2 2 2 2 2v1l2 3 1 2 2 2 3 5 2 2 1 2-1 2 3 1v2l2 1v1l1 2h3l3 2h3l1 2h1l1 1 1 1 2-1 1 2v1l-1 2v3l2 4-1 2v2l-1 2-1 2h-4l-2-5 2-2-1-2v-4l-3-4h-2l-2 2-1 2v2l-1 1v1l-2-1v-3l1-1 1-2-1-1v-1l-2-1-1-1v-2l2 1zm-248-79h-1l-.75 1h.75l1-1zm10-33l.833 1.667.167-.667-1-1zm.75 2H231l-.857-.429L231 1032l.75-3zm2.25-4l-1 1h1v-1zm-6-37v1l1 1 3-1-3-1h-1zm61 146l-1 1-1-1 1-1 1 1zm-125-28l2 1-1 1-1-2zm298 27l3 3-1 1h-2v-4zm-6 4h-2v7l-1 1h-1l-1-4 1-1h1l-3-4-1-3 2-1 1 1 2 1 1 1v-1l-1-1v-1l-2-2 1-1 3 1h4l1 1v2l1 2-1 2-2 1-3 1v-2zm-159-11l3 1h-3v2l-1-1v-1l1-1zm-133-30l-2 1v-1h2zm274 31l1 2 1 2h-1l-1 1v-5zm0 0l1-1 1-2h1l2 1 2 1v2l3 7v7l-1 1-3-6v-1l-2-2-1-2h1l-1-2v-2h-1l-2-1zm-140-13l2 1h2v1h2l1 1-2 2 2 1h1l-1 2v1l-1-1h-3l2 2-1 1h-2l-2 1-1-1-2 2h-1v1l-1 1-2 2h-2l2-2-2-1-1 1-2-2 1-2-1-2-1-1 2-2 2-2h3v2h1v-5h2l3 2 1-1-1-2zm133 2l1 1v1l1-1-1-1 1-1 1-1h1l1-1 3 1-1 2-1 1 1 1 1-2 1-1 3 1 1 2h-1l1 2 1 3v2l-2-1-5-3v1l1 1v2l-1 1h-1l-1-2-1-1-1-1-1-1-1-1v-1h-1v-3zm14-4l1-1 2 1v1h-2l-1-1zm0 0v2h5l-1 1 .857 1.143-.857.857 2 3 1 2 1 1-1 3h-1v2l-2 2-1 1-1-1v-2l1-1-1-3-1-3v-2l-1-4-2-3 1-1 1 1zm5 4.333l2 2.667-2-1v-1.667zM304 1107l2 2 1-1v2l2 1-1 2-1-1-5 1v1l-3-2v-1l2-2 1 1h1l-1-1 2-2zm0 0v-2l3 1-1 1h-2zm-62-15l-2 4-1-1v-2l3-1zm107-9h1l-2 3-1 1v1l-1 1v1l-4 1 1-1 1-2 2-2 3-3zm-142-24v1l2 1 1 1v3h-1v3l-4-1-1 2-1-2-1-1-3-2v-1l-2-1v-2l1-1 3 1v1l1-2 2 1 1-1h2zm146 22l2 1h1l-1 1h-2l-1-1 1-1zm-10 3l1-3 1 1-1 2v1l-1-1zm-184-43v2l2 2h-1l-2-3 1-1zm183 32l1 2h-1v-2zm-96-56l-1 2-1-1 1-1h1zm-62-19v3h2l2 1 4-1 1 1 1 2-1 2 3 1 1 2h1v1h2l2 1-1 1-1 1-3-1-2 1-1 1h-1l1-1-1-2-1-1-1-2-1-2-2-1v-1h-3l-2 1-2-1v-2l1-2 2-2zm87-85l1-2 1 1-1 1h-1zm-10 62h-3l1-2-1-2 1 1 2 3zm-3-4v-1l-2-1v-3h2v1l1 2-1 2zm-47 170l-1 2v-2h1zm-1 2l2 1-2 2-1-1 1-2z" id="0"/></g><g id="jcc-threat-map2" fill="none" stroke="#000"><path d="M1301 708l-1 2 3 1v2h-3l-1 1 2 2-2 1-1 1-1 2h-3l-2 1 1 2 1 1 1 1 1-1v1l-2 1-1 2v1h1l1 2h-1l-1-1-2-1-1 1v2l1 1v2l-2 1v-3h-1l-1 2-2 1v1l1 1 1-2 2 1-1 2v2h-2l1 2h1l2 2-2 1 2 2-1 1h-2l-1 1-1 4-3-1-1 3" id="0"/><path d="M1281 756h1l2 1v2l-1 1-1 1v1h-2l-2 1-1-2h-1l-1 1 1 2v1l1 2v1h-2l-1-1 1-1-1-1-1 1 1 1-1 2h3l1 2-2 2-2-1 1-2h-1l-1 1v2l2 4-1 1v5l-3 1v3h-1l1-2h-3l-1 1 1 2-1 1-2 1v2h-2l-1-1-1 1 1 1 1 1h3v1l-1 1h-1l-2-1-1 1v1l1 1h1l1 1-1 2-3 1 1 1-2 1v-1h-2l-1 1 3 2-2 2v2l1 1 2 1v1h-6v2l2 1h2l1 2h-4l-1-2-2 1v1l2 1 1 1v1l-3 2v1l2 2-2 3h1l1-1v-2l2 1v2l-3 1 1 1h1l2-1v-2h1v1l-2 3v3l1 3 1-2h1v1l-1 1v4l-2 1-2-1v2l2 1 1 1v1l-2 1" id="1"/><path d="M1254 848l-34 2h-25l-10 1h-19l-21 1" id="2"/><path d="M1145 852l-1-25-1-1-3 1v-1h-4v1l-5 1-1-2-2-1 1-1h-1" id="3"/><path d="M1128 824v-86l-3-16-3-19-1-11" id="4"/><path d="M1121 692h27l27-1h11l13-1h3l26-1h9l20-1 26-2v1l1 3 2 1 1 1-1 2 1 1-1 2h-1v2l-2 1-2 1v2l-1 1h-1l-1 2v1l-2 3 17-1 8-1" id="5"/><path d="M601 638l-6 40-5 34-4 31-6 43-2 16-4 27-8 56-1 10" id="6"/><path d="M360 796l2-1 2 1h4v-2l1-1 2-1 1-3-1-1 1-2h-1v-3h-4l-2-1v-2l-1-1 2-3 1-2-1-1 1-2-2-1 2-3-1-2h3l3-3 2-1 1-1v-2l1-1v-3h1v-2l1-2-1-2v-1l2-1-1-1v-2l1-1h1l2-2 1-3 1-1 4-1 1-1h1l4-3h2v-2l-1-2-2-1-1-2-2-3-2-1 1-3-1-2-1-1 1-4-1-2-1-1-1-2-1-3-1-2 1-6" id="7"/><path d="M384 694v-1l2-2-2-1 1-1h2l1-2v-11l-1-2v-3l1-1v-2l1-2-1-2v-7l1-1v-1h2l-2-4v-3l1-1-1-3h3l2-1h5v1h3l2 1 1 3v1l1 1 1 1h3l5-6 1-1 1-8 3-15 2-13" id="8"/><path d="M422 608l14 3 24 4 9 2 26 4 22 4 4 1 28 4h1l26 4 25 4" id="9"/><path d="M796 474l16 2 15 1 16 1 21 1-1 12-2 34" id="10"/><path d="M861 525l-4 60-2 34-1 14-2 30" id="11"/><path d="M852 663l-17-1-17-1" id="12"/><path d="M818 661l-30-3-18-1-24-2-4-1-39-4-14-1-10-1-1-1-17-2-32-4-15-2-13-1" id="13"/><path d="M601 638l2-18 1-7 3-17v-3l1-8v-6l3-20 1-7 2-11 5-34 3-26 1-8 3-18" id="14"/><path d="M626 455l13 2 22 3 13 2 20 2 19 2 10 2 24 2 18 2 17 1 14 1" id="15"/><path d="M1228 367v2l1 2v3h1l2 2 2 2v1l-2 2-1 2-1 1 1 5 1 3v3l2 1v2l1 3v1l3 1v1l3 1 4 1h2l1 2 2 2v2" id="16"/><path d="M1250 412l-1 1 2 1 1 1 1 1 3 1 2 3-1 2 2 2 6 3 1 1 1 1v3l1 2-1 2 1 1-1 6-3 2-1 1v2l-1 1v4l-2 2-2 2h-4v1l-2 2h-3l-4 1-2 1h-4l-1 3v3l-1 3 3 3h1l2 3v8l-1 1-3 4v2l-1 2v3l-2 2h-4l-2 1-1 2v1l1 2v5l-2 1" id="17"/><path d="M1228 511h-2l-1-1v-3h-2l-2-2v-1l-2-1v-1l-2-1-12 1h-14l-6 1h-7l-13 1h-10l-18 1h-58" id="18"/><path d="M1079 505v-1l-1-2-2-1v-1l-2-2 1-1 1-1v-4l1-1-1-1v-3l-1-1v-7l1-1-1-1-2 1v-1l1-4h1l-1-2h-1l-1-1 1-1v-4l-3-1 1-2v-1h-1l-1 2-1-1v-2l-1-2v-2l-1-1 2-2h-1l1-3-1-2-2-3 1-1v-3h-2v-1h-1v-2h-2v-1l1-2h-1l-1-1-1-1v-3h1l-1-2-1-1v-1l-1-2v-3l1-1-1-2h-1" id="19"/><path d="M1056 418h-1l-1-4v-3l-3-3h-1v-4l1-2 1-1 1-3 1-2-1-1 1-1-1-2 2-1v-1l1-1-1-2v-3h-3l-1-3h2v-5l-2-2v-3h5" id="20"/><path d="M1056 371h81l16-1h24l30-1 21-2" id="21"/><path d="M1357 441l2 18 2 22 1 15 1 16 1 13 2 24-1 1-1 1v2l1 1v2l-2 1v3h1l2 2v3l2 1 1 1v1l-1 2v1l1 1v1l1 1v4l-1 1-2 1-1 2v2l-1 2 1 1-1 1-1 1h-1l-1 1 1 1v1l-1 2-1 1-1 2v1l-1 1h-1l-2-1v2l-1 1v1l3 2-1 2-3 1 1 1 1-1v2l-2 2 1 2-1 1 1 3h-3l2 2 1 1v1" id="22"/><path d="M1355 621l-1 3-2 2-1 2v1l1 3 3 2v2h-2l-6 2-1 1-1 1-2-1-2 1v1l-1 3v3l2 3 1 2-1 4h-3l-3-2-2-1h-1l-3-2-5-1h-2l-1 1-2 2-1 2-2 3-1 1 1 2 1 1" id="23"/><path d="M1318 662h-2v-2l-2-2h-2v1l2 1-1 2-1-1-3-1v-3l-1-1-2-3v-2l-1-1-1-1 1-3 2-1v-2l-1-1-1-2-2-3v-2l1-1-1-1v-3h-1l-2-1-2-1-1-1v-1l-2-2h-1l-2-1v-1l-2-1-1 1-1 1-2-1-1-2h1v-1h-2l-1-2-3-1v-1l-2-1-3-1-1-2-2-1-1-2-1-3v-2l1-3 2-2v-4l1-2 2-2v-3l-1-2v-1l1-2 2-1v-3l-5-3h-2l-4-1h-2l-3 4-1 1-1-1-2-2v-3l-1-2v-4l-1-1v-3l-1-2h-1v-2l-2-1-2-1-1-1-3-2-2-1-1-1v-1l-2-2-1-1-2-2-1-1-2-2-3-3v-2l-1-1-2-2v-5l-2-3v-1l-1-3v-6l1-4 1-2" id="24"/><path d="M1250 412l7-1h16l9-1 15-1h15l5-1 14-1 14-1" id="25"/><path d="M1449 432l1 15 5 35 1 15 2 12 1 9 1 12 1 13 1 7" id="26"/><path d="M1462 550l-2 3 2 3v1l-1 2 1 1h2l1 1-2 1 1 3h-3l-2 1h-1l-4 2-1 2-1 1-2-1-1-1h-6l-1 2v1l1 1v2l1 2v2l-2 1v2l-3 1-1 1-1 5-1 1-2 2-2-1-1 1v2l-1 1-1 2v6l-1 2h-2l-1 2-2-2h-5l-1-1-1-2v-2l-1-1-2-1-1 1h2v2h-2l-1 1-1-1-1 1 1 1v2h-2v4l1 1-1 1h-2v2l-2 2v-3h-1l-2 1-1-1-2-3-1-1-1 1-2 2-2 1-1 1-1 1v1l-1 3-1 1h-1l-1-3h-2l-2-1-3-1-1-1h-3l-2 2-2-1-1-2-1 2 1 2v2l-2 1-1-1 1-2-1-1-3 1-1 1h-1l-2-2h-1l-1 2 1 2v1l-1 2-2-1h-1" id="27"/><path d="M1380 436l11-1 29-3 20-2 8-1 1 3" id="28"/><path d="M1095 532l2 2 1 1v1h2v1l2 1h2l1-1 2-1 1 1-1 2 3 1-1 1h-1v2l2-1v2h-4v2l-1 1-2 2v2h-1v2l2 2v2h2l2 3h2l-1 1v3l3 2v2h1l1 2h1l2-1 1 2 1-1 1 1-1 1 1 14v84" id="29"/><path d="M1120 670h-87l-20-1h-26l-29-1-16-1h-20l-22-1-16-1-15-1-17-1" id="30"/><path d="M861 525l15 1 24 1 15 1 24 1 15 1 22 1h31l27 1h61" id="31"/><path d="M1318 662l2 1-1 3v2l-2 1 1 1 1 1 1 1h-2l-1 1v1l1 1v2l-1 1v2l-1 1h-1l-1-1-1-2-2 1-1 6m-3 0l1-2-1-2h-2l-1 1v1l1 2" id="32"/><path d="M1310 685l-2 2-1-1v-1m-2 0l1 2-1 1 2 2v2h-3l-1 2 3 1v1l-2 1-1-1-3 1 4 3v2l-2 2-1 3v1" id="33"/><path d="M1121 692l-1-22" id="34"/><path d="M1095 532l-2-2h-2v-4h-1v-2h-1v-2l-1-1-2-1v-1l-3-2 1-1-2-3v-2l-1-1v-1l1-1 1-1-1-1h-1v2h-2v-3" id="35"/><path d="M796 474l1-18 6-73" id="36"/><path d="M803 383l18 2 24 1 33 3 19 1 25 1 16 1h15l22 1h13l1 3 3 2 1 1h2l2 1 3 2 3 2h2l2-1 1-3h2l1 1h1l1-1 1 2 3-2 1 1 3-1 1 1 1-1 2 1 2-1 1 1h1l1 2h1l2 2h5l1 2 1-1 2 1 2 1v1l2 1h1v2l1 2 1 1 1 2h1l1-1 1 1v1h3" id="37"/><path d="M818 661l-2 22" id="38"/><path d="M816 683h-1l-2 21-3 39-1 21-2 26-1 7-2 29-2 19-3 44-26-2-12-1-16-2-21-1-11-2-20-2-31-3v4h-1v2l2 3 .882.882.118.118h1" id="39"/><path d="M466 383l-1 5-3 18-6 29-4 19-10 52-7 37-2 8-3 20-3 10-3 17-1 5-1 5" id="40"/><path d="M384 694l-5-7-12-19-25-37-7-11-16-24-7-10-10-14-8-13-13-19-11-16-28-43-6-9 3-14 2-6 7-29 6-20 7-28 9-36" id="41"/><path d="M270 339l22 5 21 6 6 1 26 6 23 5" id="42"/><path d="M368 362l10 2 17 4 19 4 19 4 9 2 16 3 8 2" id="43"/><path d="M1128 824l-2 1-1-2-3-1-1-1h-3v-1l-2-1h-3l-3-3-1-2h-3l-3-3-1-1-2-1-1 1v2h-1v1h-11v-2l-1-1-2 2h-1l-1 1-2-1-1 2h-1l-1 1-4-2v1l-3 1h-5l-1 2v1l-2 1-1-1h-2l-1 3-1 1v-1l-2-3h-3l-1-2h-2l-2-1 1-3h-1l-1-1-2 3-3 1-1-2-2 1-1-1v-3l-2-1-1 1v2l-3 4h-1l-1 1 1 1-1 2h-2l-1-1-1-3 1-1 1-1-1-2-1-1-1 1-1 1h-3l-1 2h-2l-2-1 1-1v-2h-2l-2 1-2-1 1-2-2-1h-2l-2 2h-1l-1 1v2l-3 1-2-2h-2l1-1v-4l-1-1-2 1h-2v-2l-1-2 1-2v-1h-1l-2 1h-1l-1-1h-4l-1-1-1 1-1 2-3 1-3-4h-3l-1 1h-3l-3-2-3-1-1-1h-9l-1-5v-1l-1-2-1-2h-2l-2-2v4h-2l-1-1-1-1h-3l-1 2-2-1h-2v-1l-2-1-2-2v-1l-1-1-1-1-2-2h-1l-2 1v-3l4-86-20-1-19-1-20-1-23-2-27-2" id="44"/><path d="M1517 659h6l8-2 1 1 13-2 10-2 12-1 13-2v-1l10-2-1 2" id="45"/><path d="M1589 650l-1 2 1 3-1 1v3l1 2h-3l-1 1-3 2-3 8-1 1-1 1h-1l-1-2-1 1-2-1-1 2-1-1-2 2-2 1-2 4-1 2-2 1h-2v-3l-1-2-5 5-1 3-1-1h-2l-1 1 1 2v1l-1 1-1 3-1 1-1-1h-2l-1 1-1 1-1 1-2 1v1l-2 2h-1l-1 2-2 1h-1l-2 3h-2l-1-1-2 1h-2l-2 1-2 2h-2l-1 2-2 1-1 2-1 1 1 2-1 1v2h1l-1 2-2 1h-3l-1-1-3 3 1 11" id="46"/><path d="M1503 736l-25 3-18 2h-5" id="47"/><path d="M1455 741l-9 1-20 2-4 1-12 1-19 1-24 2h-8l1 1" id="48"/><path d="M1360 750l-22 2-21 1-23 2-13 1" id="49"/><path d="M1305 685h2m3 0l4-1 11-1 17-1 17-1 1-2-1-3-1-3h8v1l6-1 13-1 8-1 18-2 2 1 2-1 3-1h16l5-1 12-1 7-1 10-1h9l9-1h1l9-1 9-1 11-1 1-1" id="50"/><path d="M565 400l-3 19-4 27 23 3 32 5 13 1" id="51"/><path d="M466 383l23 4 12 2 9 2 20 3 20 4 15 2" id="52"/><path d="M1643 495l4 23 1-1 2-2 1-2h1l1-2v-1l2-1 3-4v-1l2-1 3 2v-2l1-1 2-4 1-2 1-1v2l1-1 1 1 3 1h6v-4l1-1 2-1v-1l3 1v-1l2-3h3l2 1 2 2 3-1h3v2h-1l1 2 1 1h1l1 2h1l1 2v2l1 1" id="53"/><path d="M1706 502v1l-1 3v1l-1 4-20-12v5h1l-1 2-1 3 1 1-1 2 1 1-1 3-1 1-2 3v1l-1 3-1-1-1 3-1 1-1-1-2 2-2 7-5-4v3l-1 1-1 4 1 2h-1l-1 2v2l-1 2v2l-1 1-1 3h-1l-6-1-3-4-4-1-1 1v5l1 2-1 2v1h-1l-1 1-1 2 1 2-1 1-2 3v1l-1 2 1 1-1 1v2l-1 2-2 3-2 3-1 1v1l-1 2-1 2v2l-1 2 1 1 2 1-1 2-2 2 1 2-4 3-1 2-2-3-2 1-1 1-3 4-2 1-1-1-2-1-1 2 1 2-2 1-1 1h-1l-5 2-2 1-2 2-3-2-2-2-1 1-1 2h-1l-3 4-4 1-3-2v-1h-3l-2-1-2-2-1-1v-3h-2l-1-1 2-1-1-2" id="54"/><path d="M1572 608l-3 1-3-1-2-3h-1l-1-1h-2l-2-3v-1l-2-2-2-2v-1l-3-2v-1l-1-2-1-1-1-2-2-2-2-1v-1h1v-4l1-1-1-2-1-2v-3" id="55"/><path d="M1544 571l1 1 1-1 4-2h2l1-1 1-2v-4l1-1h2l1-1-2-3 1-1-1-2-1-1v-1l2-2v-4l1-3 1-1 1-1 1-1 1 2h1l2 2-1 2 1 1h1l1-1v-2l3-1-1-1v-2l-2-2v-1h1l1-1v-2l-1-2 1-1 1-1v-2l3-1h1v-3l2-2 1-1 1-1 1 1 1 2h1l2-2 2-1 1-2 2-1 1-2 2-4 3-3 2-1-1-3 1-1-1-2 1-1v-3l1-1-1-2 2-1-1-1 1-1-1-3v-2l1-1v-5l1-2 1-1v-3l-1-5v-1l-2-3-1-2 1-2h1l2-2" id="56"/><path d="M1600 459l7 42 20-3 16-3" id="57"/><path d="M583 288l-3 20v2l-5 32-4 23-2 12-4 23" id="58"/><path d="M368 362l9-43 7-29 2-10v-1h2v-2l2-3 1-2-1-1v-2h2l2-3-1-1-2-1 1-2h-3l-1-2h-2l-2-2 2-1-1-2v-2l1-1v-2h1l1-2h1l2-3 1-2 2-2v-1l1-1h1l2-1 2-2 1-1 2-2v-3l1-2 1-1 2-2 1-1 2-4 1-2 1-2 4-4 1-1v-2l2-2 1-1 1-1v-2l-1-2v-2l-1-2-2-1-1-2-3-1v-2l-1-2v-2l-1-2" id="59"/><path d="M411 185v-5l1-3v-6l-2-3 1-3 11-47 3-16 3-12 3-12 1-5 5-22" id="60"/><path d="M466 58l-9 45 1 3 2 4 1 1v3h1v1l2 2-1 2 1 1v2l-2 1 1 2v2h2l-1 1h-3l5 6v2l3 2h1l2 1 1 2-1 1 1 1 1 1 1 1 2 5 1 4h1l2 3v4l1 1 1 1 1 1 1 1-1 2 1 1 1-1 1-1h1l1 2-1 1v1l1 2 1-1 3 1 1-1h3v5l-1 1-1 1-1 1v2l-1 2-1 1v1l-1 2v1l-2 1 1 1-1 3h-2v2h1v1l-1 3 1 2 1 1v1l-1 1 1 2-1 1h-3l-3 3v1l2 2v1l-1 2h-2l1 2h-1l1 2h1l1 2 2 2 1 1h2l1-2v-1l2 1v-1h2v-1h2l1-1 1-1 1-2h2v1l1 2v1h1l2 1v1l-2 3h2v2l-1 1 1 3-1 3 2 2-1 1 1 2 1 1 1 2v3h2l-1 1 2 2v4l-2 1v3l1 2 2 1v2l3-1h2l3 5-1 1 1 1v3h-1l1 2v1l1 1-1 1v3l2 1 2 2 1 2 1-1-1-2 3-3h2l2 1h2l1 1 2 1 1-1 1 2h1l1-2 1-1h1l1-2 2 1v1l1 1h2l1 1 2-1 2 1 1-1h3l1 3 4-2 3 1 1-1 1 1 1 1h1l-1-2v-1l1-1v-1l1-1v-1l1-1h2l1-1 1 1 1 2 1 2 1 2h-1v2h2l1 4 2 1" id="61"/><path d="M827 111l-2 23-2 22-1 6v6l-2 24-3 31-2 26" id="62"/><path d="M815 249l-1 9-1 17-2 17" id="63"/><path d="M811 292l-22-2-23-2-15-2v1l-11-2-12-1-14-2h-2l-16-2-28-4-18-2h-1l-21-3-11-2h-3l-5-1h-1l-10-1-3-1-8-2-1 7-2 10-1 7" id="64"/><path d="M1033 121v3l1 2 1 3v1l1 3v1l1 2v1l-1 1-1 3v4l1 3-1 1v1l1 2v2h-1l1 2-1 4 2 2v1l1 2v3l1 2v2l1 2v1l2 2v3l1 1v3h1v11l1 3-1 1 1 2h-1l1 3-1 1 1 2v6l2 3-1 1v2l-1 1 1 2v2l-1 4 1 1 1 2v4l1 1v1l1 3h1l2 2v7l1 3v2l-1 2 1 4" id="65"/><path d="M1053 260h-40l-16-1-28-1h-18l-13-1-28-1-12-1-16-1-22-1-24-2-21-2" id="66"/><path d="M1053 260l-1 5-2 3v1l-5 3-1 1-1 3 3 3 1 3 2 2h2l3 2 1 1 1 2v82" id="67"/><path d="M803 383l4-39 3-46 1-6" id="68"/><path d="M1852 201l-1 2h1l1 2h1l-2 5v1l-1 3 2 2 1 1v1l1 2v5l-1 1v1l-2 2-2 1v3l-2 1h-1l-1 1h-1l-2 1 1 1-1 1 1 2v2l1 1v2l1 2-2 4 1 2v1l-1 2v7l-1 1-1 2v4l-1 2v3h1v6l1 3v8l1 1 1 1-1 2 1 1v2l-2 2 1 1-1 2v1l1 2 3 2 1 1" id="69"/><path d="M1848 310l-15 3-11 3" id="70"/><path d="M1822 316l-2-3v-1l-2-9-2-10-2-12-1-2h-2v-2l-2 1v2h-2v-5l1-2v-2l-2-2v-3l-2-2-1-4-1-1v-7l1-3v-2l-1-3v-3l-1-3-1-2-2-1-1-1v-9l-2-1v-3l1-1-1-2-1-1 1-1" id="71"/><path d="M1404 963v-1m2-9v-2l1-2v-5l-2-1-3-1-1-2-4-3v-2l1-3v-2l13-1h5l22-2 3-1 10-1h4l10-1 14-2 10-1 10-1" id="72"/><path d="M1499 920v1h1v2l2 2v3l1 2v1l3 1 15-1h9l39-3 19-1 21-2v2l1 2v2l1 2 1 1h5l1-1-1-2 1-3-1-2v-4l-1-1-1-2v-3l2-2 1-2 4 1h4l1 1h2l3 1" id="73"/><path d="M1145 852l1 46 1 1 2 3 3 1v1l1 2 1 1 1 1-1 1 2 3-1 1v2l-1 1 1 2 1 2h3l-1 2 2 2v1h1v4h-1l2 2 1 1v1l1 3 2-1v3l-1 1 2 3v1l-1 1v1h1v2h-1l-1 2 1 2-1 1v2l-1 1v1l-1 2-2 2 1 2h-2l-1 2 2 2-1 2 1 1-2 2-1 2 2 2 1 1v2l-1 1 1 4v1l-1 1v2l-1 2-1 1-1 3-2 2-1 2-1 1 1 2v1h1l1 2" id="74"/><path d="M1455 741l3 11 6 19 4 14 6 23 5 17 3 11h1v2l2 2-1 1h1l1 3 1 4 3 2 1 1v3h1v4l-1 2 3 1 2 1-1 1v1h-2l1 1-2 1-2 3 1 2v5l-2 6v3l1 2v2l3 3 1 2v7l-1 3 1 2-1 2 1 2v3h1l1 2h1l2 4v1" id="75"/><path d="M1369 961l-3-28-3-22-1-10-1-9v-16l1-23v-45l1-14v-27l1-5v-8l-2-1-2-3" id="76"/><path d="M1503 736l7-1 18-3 5-1 14-2" id="77"/><path d="M1547 729l1 1-2 3-3 4-2 3v1l-1 2v1l2 1 3 3 2-1 1 2h1l3 3 2 1 2-1h2l2 1v2l1 2 2 1 1 2h1l1 3 1 3h2l1 3h1l1 2 2 3 2 1 2 1 2 1 3 1 3 3 1 1 1 2 1 1 1 2 2 1h1l3 1 2 1 1 2 2 1 1 1-1 1v2l1 2h1l1 1 2 1-1 1 3 1 1 1v1l1 1 2 1 2 1h1l2 1 3 1v3l1 2 1 1 1 1 1 2v2h1v3l2 2-1 2 1 1 3 1h1l1 1 1 1 2 2v2l2 1v1l2 1 1 2-2 2 2 3 1 3" id="78"/><path d="M1254 848l-1 2v2l1 1h1l1-1v-3h1l1 3v2l-2 2-1 3 1 2h3v2l-2 1-1 1v2h1l3-1 1-2v1l-1 2-1 2 1 1h1l1 2-2-1-1-1h-1l-1 1 2 2 2 1 2-1v2h-1v2l1 1h3v2l-2 1-1-1 1 2-1 2-2-1-1 1h-2l-2 1v3l3 1 1-1 1-1h2l-1 1v1l-2 1-1 2-1-1h-1l1 1h2v1l-1 2h-2l-1 1v2l-2 2-1 1 1 1v1h-1l-1-2-2 1v4l3-1v1h-4l-1 2 1 3-1 1h-2l-1-1-1 2 1 1 3-1v2l-2 1h-2v3l1 2 1 1v1l-1 1-1-1-1-2-1 1 1 3 2 1v2h-1l-4 1v1l2 1v2l-1 2v1l2 1v3l-2 1 22-1 20-1 11-1 21-2v2l-1 1 1 1-1 1-1 4-1 2v2l-1 2 2 2v2l1 1 1 3 2 1 1 1 1 2 2 3v4l1 1 2 2h2" id="79"/><path d="M1723 754h1m-177-25l12-5h1l1-1 4-3 3-1 1-1h2v-1l1-1 1 1h2l1-1 8-1 11-1 21-2h6l1 1-1 1 1 2 3-3 7 7v5l24-4 9-1 9-1 9 6 16 12 23 16" id="80"/><path d="M133 300l7 2 9 3 10 3h2l7 2 3 1 5 2 9 2 8 2 7 2 5 2 14 4 7 2 7 2 3 1 13 3 11 3 10 3" id="81"/><path d="M1877 336l5 16 2 11h-1l1 2v2" id="82"/><path d="M1827 397v-1l-3-3 7-7-3-3-3-15-1-6-2-11v-3" id="83"/><path d="M1822 348h2l12-3 8-1v1h2v-2h2l4-1 1-1 13-3h2l9-2" id="84"/><path d="M1732 516l-1-1" id="85"/><path d="M1731 515l2-3 5 4-3 4" id="86"/><path d="M1779 478v1m-2-6l1 1" id="87"/><path d="M1807 522h-1m-1 0l-10 2-11 2-15-52v-4" id="88"/><path d="M1769 470l1-3 2-2 2-1 3-1h2l1 1" id="89"/><path d="M1572 608l-5 6-6 7-1 1-3 2-4 2-2 3-3 2v4l-2 1-1 1-1 1v4l-3 2-4 1-1 1v1l-1 1v2l-2 1-5 2-2 2h-3l-1 1-2 1h-1l-2 2" id="90"/><path d="M1462 550l1-1 1-1h1l2 2 2 1h1l2-2h1l1-1h1l1 3h2l3 1 1 3 2 2v4h3l2 1h2l2-1h2l3 1 1 2h1l2 2h1l2 1 1-1v-1l4-2 2 1h3l2 1v1h2l1-1h3l1-1v-2l2-1 1-2h2l2-1h1v2l1 1 1 3 2 2 2-1 2 1 1 2 2 1 1 2" id="91"/><path d="M1906 353l-2-4-1-3h-2m-1-1l-2-2h-3l-1-2v-4l-2 1-1-6-14 4" id="92"/><path d="M1822 348l-1-1 1-31" id="93"/><path d="M1848 310l15-3 22-5h1l1-3h2l-1-2 2-2h2v-3l2-1 1-1h2l1 1 1-1" id="94"/><path d="M1777 551v1m2-1h-1m22-7l-9 3m-60-32l-2-1h-3l-1-2-3-1h-5l-1-1h-1v-3l1-1v-2h-1l-2-1-1-2-2 1-2-1-2 1" id="95"/><path d="M1643 495l16-3 31-6 20-4 18-3 29-6 12-3" id="96"/><path d="M1796 613h1m-5 1h1m0 0h2m-206 36l11-1 3-1 10-1 6-1 5-1 15-1 6-1 20-4 11-2 21-3 6-1 9-2 4-1 15-3 20-4 8-2 4-1 18-3 10-2" id="97"/><path d="M1791 453l2-4 2-1 2-1v-2h2l2-2-1-1h-1l-1-2-2-1-2-2-3-1-1-2-1-1-1 1-2-1v-2l-1-3-1-1h-2l-1 1-1-2v-3l-1-1v-4h2l1-2v-3l-1-1-3-3 1-1 2-3 1-3 2-2 1-2v-5l2-3 2-1" id="98"/><path d="M1789 389h1l8 3 4 1 16 5 1 1" id="99"/><path d="M1789 389v-1l-2-1v-1l-2 1h-1l-4-2h-2l-1-2-3-3h1l-2-6-1-1v-1l-2-2h-3l-2-1-1-2h-1l-2-2-13 3-29 6-17 3-15 3-5 1-22 4-7 2h-2l-8 2h-4l-19 4-5 1-2-13" id="100"/><path d="M1449 432l15-2 20-4 9-1m0 0l1-1" id="101"/><path d="M1590 399l10 60" id="102"/><path d="M1246 227l1 1 2-1 2 2h2l2 3v1l1 2v1l7 2 23 4 3 1 8 4 2 1h1l1-1 1 1h1l1 1h1l1-1 2-1 1 1h1l1 1 2-1 2 1 5 1 2 1v1l1 1-2 2 1 2h1l3-1 1 2h2l1 1h1l2 2-2 1 2 2v6l-2 2 1 1-1 3h4l2-2h1v2l-1 2-1 4v1l2 2 1 1h1" id="103"/><path d="M1228 367l-1-2v-1l-1-2v-4l1-3-1-1-1-2-3-4-1-1-1-2-2-1h-3l-2-2-2-2-4-2-2-1v-3l-2-4-1-1-2-1h-1l-2-1-4-1-2-2-1-2-1-1h-3l-2-1-1 1-1-2-2-1v-1l-1-1-3-2-2-1 1-4v-9l-1-2 1-2v-8l2-2-1-1 2-2v-2l-1-1-2-2v-2l-1-1-2 1-2-1v-6l2-2 1-1 1-2 1-4 2-2h3l1-2 2 1 1-2 1-1h1l1-2h1l-1-26h1l2-1" id="104"/><path d="M1896 278l-1-3-1-1-3-2-1-1h-1l-2-3v-1l1-1-1-2v-3l-1-1-3-9-2-6-6-18-5-18-4-11-3-11-1-2" id="105"/><path d="M220 127h3l1 2 1 1 1 2 2 1v3l1 4v4l-1 2v4l-1 2v2l3 3h2l4 3h2l1 2 2 1 4-1h5l1-1h2l1-1h3l3 1h6l1 2 2 1h2l4 2-1 3h2l3-1h1l1 1h2v1l3-1h5l2-1 3 1 1 2 4 1h5l2-1h3l4-1h9l2-1 2-1 1 1 6 1h3l2 1h2l4-1 1-1 24 6 7 2 16 4 4 1 13 3" id="106"/></g><g id="jcc-threat-map3"><circle cx="1719" cy="1101" r="20"/><circle cx="1593" cy="789" r="20"/></g></svg>