<svg xmlns="http://www.w3.org/2000/svg" version="1.2" baseProfile="tiny" width="2000" height="1206" viewBox="0 0 2000 1206" stroke-linecap="round" stroke-linejoin="round"><g fill="none" stroke="#000"><path d="M1299 710l-1 2 3 2v1l-1 1-2-1-1 1 2 2v1h-2l-1 1-1 2-2 1-1-1-2 1v2l2 2h1l1-1v1l-2 1-1 2v1h1l1 2h-1l-1-1-2-1-1 1v2l1 1-1 2-1 1v-2l-1-1-1 2-2 1v1l1 1 1-2 2 1-1 2v2h-2l1 2h1l2 2-2 1 2 2-1 1h-2l-1 1-1 4-3-1v2M1280 757v1l2 1v2l-1 1-1 1v1h-1l-3 1-1-2h-1l-1 1 2 2-1 1 1 2v1h-2l-1-1 1-1-1-1-1 1 1 1-1 1 1 1h2l1 1-2 3-2-1 1-2h-1l-1 1v2l2 3-1 2v2l1 2h-1l-3 3h-3l-1 1 1 2v1h-3v3h-2l-1-1h-1l1 2 1 1h3v1h-2l-2-1-1 1v2l1 1h2l-1 3h-3l1 2-1 1-1-2-1 1h-1l-1 1 3 1v1l-2 2v2l1 1 2 1-1 1-1-1-3 1v2l1 1 2-1v1l1 1-2 1-2-1-1-1-2 1v1h2l1 1v2l-3 2v1l2 1-2 3h1l1-1v-1h2v2l-3 2 2 1h1l1-2v-1l2-1v1l-3 4v2l2 3v-2h2l-1 1-1 2v3l-2 1h-1l-1 1 2 1 1 1v1l-1 2M1253 850l-34 1-25 1h-29l-21 1M1144 853l-1-24-1-1h-3v-1l-3 1h-1v1h-4l-2-2h-2l1-2h-1M1127 825v-46l1-34-1-5-3-16-3-18-1-11M1120 695h18l9-1h26l12-1h16l25-1 9-1 20-1 26-1v1l1 3h2l1 1-1 3h1l-1 2h-1v2l-2 1-2 1v2l-1 1-1 1-1 1v2l-2 2 17-1 8-1M604 640l-6 40-5 34-4 31-6 42-2 17-4 27-7 55-2 10M365 798l1-1 3 1h1l2-1v-1l1-1 2-1 1-3v-3h-1v-3h-4l-1-1-1-2v-1l1-3 1-3v-2l-1-1 1-3v-2h3l2-3 2-1 1-1v-2l1-1v-1l1-2h1l-1-2 1-2v-3l1-1-1-3 1-1h1l2-2 1-3 1-1 4-1 2-1h1l4-3h1v-2l-1-2-2-1-1-2-2-3-2-1 1-3v-2l-1-1v-3l-1-3-1-1-1-2-1-3-1-1 1-7M388 696v-1l2-2-1-1v-1h2l1-1v-12l-1-2v-3l1-1v-2l1-1-1-2 1-2-1-1 1-2v-4l2-1-2-3v-3l1-1-1-3 1-1h2l3-1h2l2 1v1h5l1 4 1 1 1 2h3l5-7h1l1-8 3-15 2-13M426 611l14 3 23 4 9 1 27 5 21 4h4l28 5h1l26 4 25 3M797 478l16 2 15 1 16 1 21 1-1 12-2 34M862 529l-4 59-2 34-1 14-2 30M853 666l-17-2-17-1M819 663l-29-2-19-1-23-3h-5l-38-4-14-1-10-2-18-2-31-4-15-2-13-2M604 640l2-17 1-7 2-17 2-11v-5l3-21 1-7 2-11 4-34 4-25 1-8 2-18M628 459l13 2 22 3 13 2 20 2 19 2 10 1 24 3 18 2 16 1 14 1M1227 372l-1 2 1 2 1 1-1 1 1 1 3 1 1 3-2 3v2l-1 1v4l1 3v3l2 1 1 2v4h1l2 2 3 1 5 1 2 1v1l2 2v2M1248 416v1l1 2h2v1l3 2 2 2v2l1 2 6 3 1 2 1 1v2l1 2-1 2 1 1-1 6-3 2-1 1v2l-1 1v4l-2 2-1 2h-5v1l-2 2h-6l-3 2h-4v3l-1 3-1 3 3 3h2l1 3 1 3-1 2v3l-1 1-3 4v2l-1 2v3l-2 1h-2l-2 1-1 1-2 2v1l1 1v3l1 2-2 1M1227 514h-2l-2-1v-2h-2l-1-2-1-2h-1l-1-1-1-2-12 1-14 1-6 1h-7l-13 1h-10l-18 1h-58M1078 509v-2l-1-2-2-1v-1l-1-1v-1l2-1-1-4 1-1v-4l-1-1v-2l-1-1 1-1v-2l-1-1 1-1v-1h-3l1-4h1v-2h-1l-1-1v-5l-2-1v-2l-1 1-2-1v-2l-1-2 1-2-1-1 2-2h-1l1-3-2-2-1-3v-2l1-1-2-1v-1h-2v-2h-1v-3l-1-1-2-1v-3h1v-2l-1-1v-1l-2-2v-3l1-1v-2h-2M1055 422h-1v-4l-1-2-3-4h-1v-3h1l1-3h1v-4l2-1-1-1 1-1-1-2 2-1v-1l1-2-1-2-1-2h-2l-1-3 2-1v-4l-2-2-1-1 1-1-1-1h5M1055 376h51l31-1h15l24-1 29-1 22-1M1355 445l1 18 2 22 1 14 2 16 1 13 2 24-2 1-1 1 1 2 1 1v2l-2 2-1 1 1 1h1l2 2v4h1l1 1v1l-1 2v1l1 1v1l1 2 1 1-1 3-1 1h-1l-1 2v2l-2 2 1 2h-1l-1 1h-1v3l-1 2-1 1-1 2v2h-2l-1-1-1 2v2l2 2-1 2-2 1v1l2-1v2l-2 1v4l1 3h-3l1 2 1 1 1 1M1353 624l-1 3-2 2-2 2 1 1 1 3 2 2v2h-2l-5 2-3 2-2-1-1 1-1 1v2l-1 2 1 2 2 2 1 3-1 3-2 1h-1l-3-2-2-1h-2l-3-2-4-1h-3l-1 1-2 2v2l-3 3v1l1 1 1 1"/><path d="M1316 664l-1 1-1-1v-1l-3-2h-1v1l2 1-2 1v-1l-3-1v-2l-1-2-2-2v-3h-1l-2-2 2-2 1-1 1-2-1-2-2-1-1-3-1-2 2-1-2-2v-2l-2-1-2-1-1-1v-1l-2-2-1-1h-2v-1l-2-1-1 1-1 1-2-1-1-2 1-1v-1l-2 1-1-2-3-1v-1l-2-1-3-2-1-1-2-2-1-1-1-3v-2l1-3 2-2v-4l2-2 1-2v-3l-1-2v-1l1-2 2-1v-3l-5-2h-2l-4-2h-2l-2 4-2 1-1-1-1-2-1-3-1-2v-4l-1-1v-3l-1-1v-1l-1-1-2-1-1-2h-2l-2-2-2-2-2-1v-1l-1-2h-2l-1-3h-2l-2-2-3-3v-4l-2-1-1-2 1-2-1-1-2-4v-1l-1-3v-5l1-5 2-2M1248 416h7l11-1h5l9-1h15l14-1 6-1 14-1 13-1M1445 436l2 15 4 35 2 14 2 21 2 12 1 14 1 6M1459 553l-3 3 3 3v1l-1 2v1h3v1l-1 1v3h-2l-2 1h-1l-4 3-1 1-1 1-2-1-1-1h-2l-2 1-2-1-1 2v1l1 1v2l1 2v2l-2 1v2l-3 1-1 1-1 5-1 2-2 1-2-1-1 1v2l-1 1-1 2v6l-1 2h-2l-1 2-1-2h-6l-1-1-1-2v-2l-1-1-2-1-1 1h2v2h-2v1l-2-1-1 1 2 1-1 1-2 1v3l1 2-1 1h-2v2l-1 2-1-1v-2l-1-1-2 2-1-1-2-4h-1l-1 1-2 2-2 1-1 1-1 1v4l-1 1h-2l-1-3h-2l-2-1-2-1-2-1h-3l-1 1h-2l-1-2-2 2 2 2v1l-1 1-1 1-1-2v-2l-3 1-1 1h-2l-1-2h-1l-2 2 2 2v1l-1 2-3-1M1378 440l10-1 29-3 20-2 8-1v3M1094 535l2 3h1l1 2h1l1 1 2 1 1-1 1-1h3v2l2 1-1 2h-1l1 1h1v1l-1 1-1-1h-1v2l-2 1-1 3v1l-2 1v1l2 2 1 2 1 1 2 2h2v1l-1 1v2l3 2v2l2 1v1h2l1-1 1 2 2-1v92l1 7M1120 672h-107l-25-1h-29l-17-1-19-1-23-1-16-1h-14l-17-1M862 529l15 1 23 1 15 1 24 1h15l22 1 31 1h87M1316 664l1 1v4l-1 1-1 1 1 2h1v2l-1-1-1 1v2l1 1v1l-1 2v1l-1 1h-1l-1-1-1-1h-2l-1 6m-3 0l1-1-1-2h-2l-1 1 1 2M1308 687l-2 2h-1v-2m-2 0l1 2-1 2 2 2-1 1-1 1h-2v1l3 1v1l-3 1h-3v1l3 2 1 1v1l-3 2v4M1120 695v-23M1094 535l-2-1h-1l-1-1 1-3-1-1-1-1-1-1v-3l-3-1v-1l-3-1 1-1-1-4-1-1v-1l-1-2h2v-1l-1-1-1 1h-2v-2M797 478l2-18 6-73M805 387l18 2 23 2 33 2 19 1 25 1 15 1 16 1h21l13 1 1 2 3 2 1 1 2 1 2 1 3 1 3 3h2l2-2 1-2 2-1 1 1 1 1 1-1 1 1 3-2 1 2 2-1h5l2-1v1h2l1 2h1l2 2h5l1 2h3l1 1 1 2h2l1 1-1 1 1 2 2 1v2h3l1 1h2M819 663l-2 23M817 686h-1l-1 20-3 39-2 21-2 26v6l-3 29-2 19-3 44-25-2-12-1-16-1-21-2-11-2-20-2-30-3-1 4h-1v2l2 3 2 1M470 387l-1 5-4 18-5 29-4 19-10 52-7 36-2 8-3 20-2 10-4 17-1 5-1 5M388 696l-5-7-12-18-24-37-8-11-16-24-6-10-10-14-8-13-13-19-11-16-28-43-6-8 3-14 2-6 8-29 5-20 7-28 9-35M275 344l22 5 21 5 6 2 25 6 23 5M372 367l10 2 17 4 19 4 19 4 9 1 16 4 8 1M1127 825l-2 1-1-2h-3l-1-1h-2l-1-1v-1h-2l-1-1h-1l-4-3v-2h-3l-4-2v-1l-3-1-1 1v1h-1v2h-8l-2-1v-2h-2l-1 1h-1l-2 1h-2v2l-1-1-2 2-3-3-1 1-3 1h-2l-2 1-1 1-1 2h-4l-1 3h-1l-1-1-2-3h-3l-1-2h-1l-2-1 1-2h-1l-1-1-2 3-3 1-1-2-2 1-1-2-1-2-1-1-1 1-1 2-2 3h-1l-1 1v4l-2-1h-1l-1-3v-2h1v-2l-1-1h-1l-1 2-2-1-1 1-1 2h-2l-2-1 1-1v-2l-2-1-2 1-2-1 1-1-2-2h-2l-2 2h-1l-1 1v2l-3 1-2-1h-2l1-2v-3l-1-1-2 1-2-1v-2l-1-1 1-3v-1h-1l-2 2h-1l-1-1h-3v-1h-2l-1 1-1 2-3 1-3-4-1-1h-1l-2 2-3-1-2-1h-1l-3-1-1-1-1-1-1 1h-4l-3-1v-5l-2-2-1-2h-1l-2-2-1 1v2l-2 1-1-1-1-1h-3l-1 2-1-1h-2l-1-1-2-1-1-2-1-1-1-1-1-1-1-2h-3v-2l4-86-20-1-19-1-20-1-22-1-28-2M1513 662l7-1 8-1 13-2 10-1 12-2 12-2 1-1 10-1-1 1M1585 652v1l-1 2 1 3h-1v4l1 2h-2l-1-1-2 1-2 2-3 9h-1l-1 1h-1l-1-1h-1l-2-1-1 2h-1l-2 1-2 2-2 4-1 1-1 1h-3v-3l-1-1-5 4v1l-1 2-1-1-2 1 1 3h-1v2l-1 2-1 1-2-1-1 1-2 1h-1l-1 2h-2v2l-2 2-1-1-1 2-2 1h-1l-1 3h-7l-3 1-2 2-2 1-1 2-1 1-2 1v6l-1 2-1 1h-1l-2 1-2-1-2 2v11M1499 738l-24 3-18 2h-5M1452 743l-9 1-20 2-4 1-12 1-19 1-23 2h-8v1M1357 752l-22 2-20 1-23 2h-12M1303 687h2m3 0l4-1h10l18-2 17-1v-5l-2-3h8v2l6-1 13-2h8l19-3 1 1 2-1h3l16-1h5l12-1 7-1 10-1h9l8-1h2l8-1 9-1 12-1v-1M569 404l-3 19-5 27 23 3 32 5 12 1M470 387l23 5 11 2 10 1 19 4 20 3 16 2M1638 499l4 23 2-1 1-3 1-1h2l1-2v-1l1-1 3-4v-1l2-1 3 1v-2l1-1 2-3 1-2 1-1 1 1h1v1l3 1h3l2-1h1l1-3v-2h2v-1l3 1 1-1 2-3h2l2 1 2 2 3-1h1l1-1h1v2l-1 1 1 2h2l1 2 1 1 1 2v2h2"/><path d="M1702 505l-1 2-1 2v2l-1 4-20-12 1 5v2l-2 3h1l-1 3 1 1-1 3h-1l-2 4h1l-2 3h-1l-1 2-1 2-1-1-1 2-2 6-5-3-1 3h-1v6h-1l-1 2v2l-1 3v1l-1 1-1 3h-1l-6-1-3-3-4-2v4l-1 2 1 2-1 2v1l-1 1v1l-1 1 1 2-1 1-2 3-1 2v3l-1 2v2l-2 3-2 3-1 1v1l-2 2v4l-1 2v1l3 1-1 2-3 2 2 2-4 3-2 2-1-3-2 1-1 1-4 4-2 1v-1l-3-1-1 2 2 1-2 2-2 1h-1l-4 2-2 1-2 2-3-2-2-2-1 1-1 2h-1l-3 4-4 1-3-2v-1l-2-1-1 1-2-2-2-1-1-1v-3h-2l-1-1 2-1-1-2M1568 611l-3 1-3-1-2-3h-1l-1-1h-2l-2-3v-1l-2-2-2-2v-1l-3-2v-3h-2l-1-3-1-2-2-1-1-1h1v-4l1-1v-2l-1-1-1-4M1540 574l1 1h2l4-2h1l2-1v-6l1-1 2-1 1-1-1-3-1-3h-1v-2l2-2v-2l1-2v-2l1-1 1-2h1l1 1h1l2 2-1 2 1 1h1l1-1v-2h3l-1-1v-3l-2-1v-1l1-1 1-1v-2l-1-1 1-2 1-1v-2h4v-4l2-1 1-2 2 1 1 2 1-1 1-1 2-1h1l1-3h2l1-3 2-3 3-3 1-1v-3l1-1-1-2v-1l1-1-1-2 1-2v-1l1-1v-11l1-2v-2l1-1 1-3-2-5 1-1-2-3-2-2 1-2h2l2-2M1596 463l7 42 19-4 16-2M586 293l-3 20v2l-5 32-4 22-2 12-3 23M372 367l10-43 6-29 2-10 1-1h1l1-2 1-2 1-1v-2l-1-1v-2h2l2-3-1-1h-1v-2l-2-1h-1l-1-2-1 1-1-1-1-2 1-1-1-2v-1l1-1v-3h1l1-1 2-1 1-3 1-2 2-1v-2h1l4-1 1-3h2l1-3v-2l1-2 2-1 1-2 2-2 1-4 2-1v-2l4-5 1-1 1-1 1-2 2-1v-3l-1-2v-2l-1-3h-2l-1-2-2-1v-2l-2-3v-1l-1-3M415 190v-4l2-3-1-2v-4l-2-3 2-3 10-47 3-15 3-13 3-11 1-5 5-22M470 64l-9 45 1 3 2 4 1 1v3h1v2l2 1-1 2 1 2v1l-3 2 1 1 1 2 2 1h-3l-1 1 5 5v2l3 2 3 1v4h1v2h1l3 5 1 4h1l2 3-1 4 2 1 1 1 1 1v1l-1 2 1 1 1-1 1-1h1l1 2-1 1v1l2 1h1l2 1 2-1h2l1 1-1 3-1 1v2h-2l1 2-1 2-1 1v1l-1 3v1h-2v5h-2l-1 1 2 1v1l-1 3v1l1 2-1 1 1 3-1 1v-1l-2 1-3 3v1l1 1v3l-2 1v1l-1 1 2 2h1l1 2 2 1v2l2-1 1-1 1-1h3l1-1 1-1 1-1 2-1v-1l2-1 1 1v3l1 1 2 1v1l-2 2 2 1v2l-1 1 1 3v2l1 3v1l1 1v1l1 2v1l1 2 3 3-1 5h-2l1 4 1 1 2 1v2l3-1 1 1 3 4v1l1 1-1 3-1 1 2 1-1 1 1 1-1 2 1 2 1 2 2 1 1 2 1-1v-2l2-2 2-1 2 1h2l1 1 2 1h1l2 1 2-1v-2h1l1-1h2v1l1 1h2l1 1 2-1 2 1 1-1h3l1 3 4-2 3 1h2l1 1h1l-1-2v-1l1-1v-1h1v-2l1-1h2l1-1 1 1 1 2 1 2 1 2h-1v2h2l1 4 2 1M828 118l-2 22-2 22v6l-1 6-2 23-3 32-2 25M816 254v9l-2 17-1 17h-1M812 297l-22-2-22-2-15-2v1l-11-1-12-2-14-2h-2l-16-2-27-3-19-3-21-3-11-2h-3l-5-1h-2l-9-1-3-1-8-1-1 6-2 11-1 6M1033 128v2l1 2 1 3-1 1 2 3v1l1 2v1l-1 1-1 3v4l1 3-1 1v1l1 2v2h-1v6l1 2v1l1 1 1 3v1l1 2v2l1 2v1l1 2 1 2 1 2v3h1v2l-1 2h1l-1 3v2l1 1v7l1 3-1 1 1 2-1 3 1 2 1 3v4l-1 1v1l1 3-1 3v2l2 1v5l1 2 1 2v1l2 2 1 6v12M1052 266l-28-1h-27l-28-1-18-1-12-1-28-1-12-1-16-1-22-1-23-2-22-2M1052 266v4l-2 3-1 1-4 4h-2v3l3 3 1 3 1 2h2l4 2 1 1 1 2v23l-1 36v23M805 387l3-38 4-46v-6M1846 207l-1 1 1 1 1 2-1 5v1l-1 2 2 2 1 2 1 2v6l-1 1v1l-2 2-2 1v2l-2 2-1-1-1 1h-1l-2 1 1 1-1 2 1 1v2l1 2v2l1 1-1 4v4l-1 2v6l-1 1-1 2v4l-1 2v3l1 1v5l1 3v8l1 1 1 1-1 2 1 1v2l-2 2 1 1-1 2v1l2 2 2 2 1 1M1842 315l-14 3-12 3M1816 321l-2-3v-1l-2-9-1-10-3-12-1-2h-1l-1-2-2 1v2h-2v-5l1-2v-2l-2-2v-2l-2-3-1-4h-1v-7l2-3v-2l-1-1-1-3v-1l1-2-1-3-2-1-1-1-1-2v-2l-1-4 1-2-1-1-1-1v-6l-1-1v-1M1404 954l-1-2 1-2 1-3-1-2-2-1-3-2-1-1-3-3v-2l1-3-1-2 13-1 5-1 22-2h2l11-1h4l10-1 14-2 10-1 9-1M1495 921v1h1v1l2 2 1 2v3l3 3 15-1 9-1 39-2 19-2 21-1-1 1 2 3v2l1 2 1 1 3-1 1 1 1-1v-9l-1-2-1-1v-5l2-2 1-2 4 1h4l1 1h1l3 1M1144 853l1 46 1 1 2 3 3 1v1l1 2 1 1 1 1-1 1 2 3-1 1v2l-1 1 1 2 1 1h2l1 1-1 2 2 1-1 2h2v3l-1 1 2 2h1v2l1 3 2-1v3l-1 1 2 2-1 2-1 1h1l1 1v1l-1 1-1 2 1 2-1 1v2h-1v2l-1 2-2 1v2l-1 1-1 2 1 1v2l1 1-2 3-1 2 1 2h2v3l-1 1 1 3v1l-1 2v1l-2 3-1 3-2 3-2 1-1 2 2 1v1l1 1 1 1M1452 743l3 11 5 18 4 15 7 23 4 16 3 11 2 1v2l1 1v1l1 1v2l1 1 1 3 2 2 1 1 1 3 1 1v3l-1 2 3 1 2 1-1 1v1l-2 1v1h-1l-2 3 1 2v5l-3 6 1 2v1l1 2v2l3 3v2l1 1v1l-1 3v13l3 3 2 4v1M1367 961l-4-27-3-22-1-10-1-9 1-16v-37l1-30v-14l1-27v-13l-2-1-2-3M1499 738l7-1 19-3h5l13-3M1543 731l1 1-1 3h-1l-3 4-2 3v1l-1 2v1l2 1 4 3 2-1v2h1l3 3 2 1 2-1h2l2 1v2l1 2 2 1 1 1 1 1 1 3 1 3h2l1 3h1l1 2 2 3h2l2 2 2 1 3 1 3 2 1 2 1 2 1 1 1 1 2 2 1-1 3 1 2 2 1 2h2v5l1 1h1l1 1 1 2v1l3 1h1v2l1 1 1 1h4l2 2 2 1h1v3l1 1v2h2l1 3v1l1 1v2l1 3-1 1 2 1 2 2 1-1 1 1 2 1 2 2v2l1 1 1 2 1 1 1 2-1 2 2 2v3M1253 850l-2 2v1l1 1h2v-3l1-1 2 3-1 2-2 2v5h3v2l-2 1-1 1v2l1 1 3-1 1-2 1 1-1 2-2 1 1 1 2 1v1l-2-1-1-1h-1v2l1 2h4l1 1-1 1-1 2h4v2l-1 1h-2l1 1-1 2-2-1-1 1h-1l-1 1h-2v2l1 1 2 1 1-1 1-1h2l-1 2-2 2-1 1-1-1h-1l1 1h2v1l-1 2h-2l-1 1v2l-1 2-2 1 1 1v1h-1l-1-2-2 1v3h3v1h-3l-1 2v3l-1 1h-2l-1-1-1 2 2 1 2-1v1l-2 2h-1v5l1 1 1 1-2 1-1-1v-2l-2 1 2 3 1 1v2h-5v2l2 1v2l-1 1 1 2 2 1v2h-1l-2 1 22-1 20-1h11l20-2 1 2-1 1v1l-1 1v4l-1 2v2l-1 2 1 2v1l2 2 1 2 2 2 1 1v2l2 2 1 2h-1l1 3v1l2 2 2-1v1M1543 731l12-5 1 1 1-2 4-2 3-2 1-1h2v-1l1-1 1 1h2l1-1 8-1 11-1 21-2h5l1 1-1 2 1 1 4-3 7 7v5l24-4 9-1 8-1 9 6 16 12 22 16M140 305l6 2 9 3 10 2 2 1 7 2 3 1 5 2 8 2 9 2 6 2 6 2 13 4 8 2 7 2 3 1 12 3 11 3 10 3M1871 341l5 16 2 10-1 1v1l1 2-1 1M1822 401l-4-4 7-7-3-3-3-15-1-6-2-11v-2M1816 353h2l12-3 8-2v2l2-1v-1l2-1h4l1-1 13-3h2l9-2M1726 520l-1-1M1725 519l3-4 5 4-3 5M1772 477v1M1801 525h-1m0 0l-11 3-10 2-15-53-1-3M1763 474l2-3 2-2 1-1 3-1h2l2 1M1568 611l-5 6-6 7-1 1-3 2-3 2-3 3-3 2v3l-1 2h-2l-1 2v4l-3 2h-4l-1 2h1l-1 2v2h-2l-6 3-2 2h-4l-2 1-1 1-2 2M1459 553h1l1-2 1 1 1 1 3 1h1l1-2h2l1-1h1l1 3h2l2 2 1 2 2 3 1 3 1 1h6l1-1h2l1 1h2l1 2h2l1 2h2l2 1v-2l4-2 3 1h3l1 1 1 1 1 1 1-2h3l1-1 1-1 2-2v-1l2-1 2-1h1l1 3v1l1 3 3 1h3l2 2 1 1 1 2M1899 358l-1-4-1-1v-2h-2m-2-2l-1-1-3-1-1-1-1-4-1 1-1-6-14 4M1816 353l-1-1 1-31M1842 315l15-3 21-5h2l1-3h2l-1-2 1-2h3v-3l2-1 1-1h1l2 1 1-1M1772 555h-1m28-9h-1m-4 1l-8 3m-61-31l-1-1h-2l-1-1-1-1-3-2-3 1h-2l-1-2h-1v-3h1v-2l-1-1h-2l-1-2-2 1-2-1h-1M1638 499l17-3 30-6 20-4 18-3 29-6 11-3M1790 616h1m-5 1h1m1 0h1m-204 35l11-1h3l10-1 6-1 5-1 14-2 6-1 20-3 11-2 21-4 6-1 9-2h4l15-3 20-4 8-2 4-1 17-4 10-2M1785 457l3-4 1-1 2-1 1-2h1l2-2v-1h-2l-1-2h-2l-2-3-2-1-2-2h-3l-1-2v-4l-2-1h-1l-1 1-2-2v-1l1-2h-1v-2l-1-1 1-1 1-1 1-2 1-3h-1l-3-3v-1l3-3 1-4 1-1 1-3v-2l1-3 2-3 2-1M1784 393l8 3 4 2 16 5h1M1784 393l-2-2v-1l-4 1-3-2-2 1-2-3-2-2 1-1-2-6h-2v-1l-1-2h-2l-1-1-1 1-2-1v-2l-2-1-2-1-12 2-29 6-17 4-15 3-5 1-22 4-8 2-8 1-5 1-18 3-5 1-2-12M1445 436l15-2 20-4 9-1m0 0h1M1586 403l10 60M1245 232v1h2l3 2h1l2 2v2l2 2v1l6 1 23 5 3 1 8 3 2 1h4l1 1h1l2-2 2 2 1-1 1 1h2l1 1h6l2 1v2h1l-2 2 1 2h1l2-1 1 2h3l1 1 1 1 1 1-1 1 2 2-1 3 1 2-1 2-1 1v2l-1 2h4l2-2 2 1v1l-1 2-1 5v1l1 1 1 1 2 1M1227 372l-1-2v-2l-1-1-1-4 1-3-1-1v-3l-3-3-2-2-1-1-2-1h-2l-3-2-2-2-3-2-2-2-1-1v-1l-1-4-1-1-3-1v-1h-3l-3-1-2-2-1-2-1-1h-4l-2-1v1l-1-2-2-1v-1l-2-1-2-2-2-2 1-3v-9l-2-2 2-2-1-3 1-2-1-3 2-2v-1l2-2v-2l-1-1-2-2v-1l-1-2-2 1-2-1v-6l2-1 1-1 1-3h-1l2-3 2-2 3-1 1-2 1 1 1-2 1-1 2 1 1-2 1-1-1-25 1-1h2M1889 283v-3l-1-1-3-2-1-1h-1l-2-2v-6l-1-2h-1l-3-10-1-6-6-18-6-18-3-11-4-10v-3M225 133h3l1 2 2 1 1 2 1 2 1 2v8l-1 2 1 3-1 1-1 2v2l4 3h1l5 3h1l2 2 2 1 3-1h5l2-1h1l1-1h3l3 1h6l2 2 1 1h2l4 2v3h1l3-1h1l2 1h1v1l3-1 5-1h2l3 1 1 2 4 1 3-1 2 1 2-1 3-1 4-1 2 1h7l2-1 2-1 1 1 5 1h4l1 1h3l4-1 1-1 23 6 7 2 16 3 4 1 13 3M568 896l-8-2-23-3-23-3-14-3-9-1-31-18-43-24-58-35 2-4 1-2 1-1 2-2M1342 410v1l1 4-1 1v4l2 3 2 4 2 2v2l3 6v2l2 3 1 1 1 2M1355 445l2 1 1-1 1 1-1 1 4 1h3l3-2 3-1 4-2 3-3M667 887l-18-2-11-1-18-2-17-2-3 20-18-2-3-1-11-1M441 58l16 3 13 3M470 64l23 5 7 1 20 4 9 2 11 2 27 5 36 7 20 3 17 2 18 3 26 4 25 3 18 2 27 3 8 1 20 2 13 2 14 1 19 2M828 118l18 1 16 1 14 1 14 1 22 1 27 2 17 1h28l20 1h17l12 1M1789 221l9-2 6-2 7-1 2-1h4l4-1 12-4 5-1 8-2"/><path d="M1661 1190h1l1-1h1l-1 1-2 1v-1m6-2l-1 1-1 1v-2h2m2-1h1v-3l1-1 1 1 1 1v1l-3 .75-1 .25m3-5l2 2h-2v-2m20-4l-3 2v-1l1-1h2m-14 3l1 1-1 1-1-2h1m11-27l1 1-1 1-1-1 1-1m30-8l-1 2-1 3-1 3-1-1 1-1 1-1-1-2 2-2 1-1m-42-10l-1 1-2-1 1-1 2 1m-21-5l2 1-1 1-1-2m1-3l1 1-1 1h-2v-2h2m-24-20v-1l2 1 3 1v-1h2l-3 2-2-1-2-1m0 0l-1-2 1 2m2-8l1 1h1l-.8 1.6-.2.4-1-1v-2m-3-2h2l1 3 1 1 .2.6.8 2.4 1 1-2 1-2-7-2-1v-1m67-51l2 3 1 2h-1l-1-3-1-2-1-1-1-2-1-2-1-2-1-1v-1l3 3 1 4 1 2m-16-35v5l.667 1.667.19.476L1685 1022l1 4 2 2 .5 1.5.5 1.5.571.714L1693 1036h-1l-1-2-1-1-.429-1.286L1689 1030l-.5-.5-2.5-2.5-2-4-1-3 .857-.857.143-.143-.333-.333L1682 1017v-1l1-2-1-1 1-1m-17-25l1-1 1 2 2 2h-1l-1-1-2-2m-168-7l1 1v1l-2 1-3-2h2l2-1m162-2l-1-2-.8-1.6-1.2-2.4-2-2 1.684 2.316 1.516 2.084 4.8 6.6 1 2 1 2-.5-.5-.5-.5-.5-1-.5-1-1.5-2-1.5-2m-15-28l1 1 1 4-1-1-1-2v-2m-4-8l-2-2-1-3-.75-1.5-.25-.5 1-1-1-2-1-1 1-2 1 1 1 3 2 6 2 6v2l-.667-1.333L1642 945l-1-3m-6-18l2 1v2h-2v-3m85 196l-1 2v5l-2 1-1 4v1l-1 1v7l1 1v2l1 1-1 2h-1l-1 2-2 2-2 2-1-1h-2l-1 2-1 1-1 1h-1l-1 1h-7l-1 1v1l-3 1h-1l-2 1h-1v-1l-3-1-2-2v-2l1-3h1l1 1 2 2 2 1 2 1 2-1v-2l-1-1-2-2-3 1-1-1h-1l-3-1v-1l-2-3-1-2 1-2h1l1-1 1 1 2 1v-1l-1-1h-1l-1-1-1 1-1 1-1 1h-1l-2-4-1-1 1-1 1-1 1 1 1-1-2-2h-2l-1 2v1l-2-1v-2h-1v-2l-3-2h-3l-2-1-2 1-1-1-3-1v-1h-3v-2l-2-1-1-1-2-6-2-5 1-1-2-4-2 1-3-1v-2l1-1 1-1 1-1v-3l3-3h-2l-2 2v2l-1 2v2h-2l-2 1-1-2 1-2-2-2v-6l-1-4h-1v-1l1-1 2-2-3 1h-2v2h-2l1 3 1 2-1 1-2-1-3-1-2-1v-2l-5-5-2-3v-1l-1-1-1-3-2-1v-3l-2-3-2-1-1-1v-2l-2 1v-1l1-1 3 1-1-1 1-1v-4l2-3 1-1v-2h1v-1l2-2v-1l-1-3h-2l-1 2 1 2h-3v-5l-1-1h-2l-3-1-1 1v1l-1 1 1 1 3 1 2 2-1 2v4h-2l-2-1-1-2-3-1-1-1-1-3h1l1-4v-5l-2-3 2-3 1-5v-2l1-2v-7l-1-3v-2l-1-1 1-1-2-3-2-2 1-1h1l1-1-3-1-1-2-1-1v-1l-1-2-1-1-1-2-1-1-2 1-4-1-2 1-2-1 1-1-1-2-4-1-1-4-2-2h-3l-3-2-1-1v-1l-1-2v-3h-1l-2-1-1-1-3-1-2-3-1-1-1-2-2-1-2-1-2-1h-1l-4-2-5-3-4 1-1 1h-3l-2-1v2h-1l-2 1-1 2 1 1 1 1h-4v1l3-1 2 1v2l-3-1h-2l-1 1h-2l-2 2-2 1-2 2-2 2-5 3 1-2h-2l-1 2h-2v1l-2 1h-2l-6 2h-2v-5l-1-2h-1l-1-2-3-2h-2v-1l-3-2-2-1-1-1-3-2h3v1h3v1l1 1 1-2h-1l-1-2-3 1v-1h-1l-1-1h-2l-1-1h1l2-3h-2l-1 1v-2l-2-1v1h-3v3l2-1 2 1v2l1 1-7-3-6-2-4-1-4-1-5-1-5 1 1-2 1 1 2-1 1 1h2l1-1h2v-1l3 2 2-1v-1l-2-1v-1h-1l-1-1h-2l-1 1h-1l-3 1h-1l-1-1-2 1-2 1v1h-1l-1 1h-4l-9 2-6 1v-1h3l1-1 2-2h-1l-2-2v-2h-1l-1 4-1 1v-3l-2-1-1-2-1 2 1 1v4l-3 2-1 1 1 1h-2v1l-3 1h-2l1-1-1-1v-2h1l2-1v-1h-2l-1-1m223-38h3l2-1h2l1 5v2l-1 1-2-1-1 3h2l1-1 1 4h-3v2l-2-1-1 1v4h-1l-2 2 1 1 2 1-2 4-2 2 3-1 1 2-1 1 1 2 3 1v2l1 4 3 2v3l-1 1h-2v2h1v1l1 1-1 1h-2v3l1 1v3l1 1v1l-1 1 2 1-1 1 1 1 3 4h1l1-1 1-1-1-1v-1l-3-3-2-1v-1l-1-1-1-3-1-1v-2l1-1h2l1-1-1-1-1-1v-2h2l1-1-1-1 1-1-1-2-1-2-1-1-1-2 1-2-4-2v-2l1-1-2-2 1-1v-3l-2-3v-1h2v-4l3 1v-1h1l2 1 1 2 1 1-.75 1.5-.25.5 1 1 1 3 2 2v3l1.333.667.667.333 2 4v3l1 2 2 4h1l1 3 2 3 1 1 2 3v1l2 2-.316.316-.684.684 1 1 3 4 1 1 .5 1 1.5 3h1l.5 1.5.5 1.5h1v1l2 3 3 5 3 4 4 2 1 1 2 1 2 1 1 3 2 3-2 1-1 1v-5l-1-2-1 4-1 3 1 3-2 1-1-2v-3l-1-1v-5l-3-1v-3l1-1-1-1-2-2h-2l3 7 1 3 2 4 1 3 3 5 2 3 3 5 3 4 5 7 3 4 1 2 1 2 2 6 2 3 2 3 3 5 1 2 2 1 2 4 3 4 2 5v1l1 8 1 1v18l1 5v8M1021 1158v-2 2m-4-17l2 6h-1l-2-2 1-1-1-2-1-1 1-1 1 1m-2-3l-1-1 1 1m2 3l-1-2-1-1-1-4v-4l2 7 1 4m-3-11v-17l1-5 1-1v-1l2-4 1-1 1-4 2 1-3 4-2 6-2 5v3l-1 5v9m8-32v-3l1-2 2-1-2 3-1 3m14-20l-4 3-2 3-2 3v-3h2l1-2v-2h1l2-1v-1l1-1 1 1m0-5v-1 1m0 5l-1-1-1-1 2-1 1 1 1-1-1-2 1-1h4l2-3 2-1 2-1 1-1 3-1 1-2 2 1-1 1-2 2-4 2-5 3-7 6m82-57l1-1h1l-2 2-9 7 2-3 1-1 3-3 3-1m0 0h-1v-1h1v1m-5 1l-1-1-1 1-1 2-2 2-2 1-3-1-1 1h2l-1 3-1 1v1l-1 2 1 1-5 4-3 3-3 1-7 4h-1l-3 1-2-1-5 2-1 3h1l5-3v2l-3 1-9 4-4 2-1.333.667L1058 1060h1l1.667-1.333L1064 1056l3-1 1-1h2l1-2-2-1-5 2-1-1-1 1-1-1 1-2v-1h-2l-2 1v2h-2v-1h-2l-1 1 1 1-1 1-1-2-1 1-1-1h-2l-1-4-3 1 2 3-1 1 1 1 3 2 1 2h2l2 2v1h-1l-2 2-3 1-3 1-2 1-1-2v-2h-1l-1-1-1 2-2-2-1 1 1 1 1 1v6l-2 2-2 2-1 1-1-2 1-1-1-2-1 1 1 1-1 1v2l-2-1v-2l-5 2v-1h-1v2l-2 2 2 1 1 1 2-2 2-1v1l1 2-4 4-1 2-2 3-3-2h-9v2h3l1-1v3l1 2 1 1 3 1-1 4v1l-1 1-2 4v3l-2 3-3 2v-5l-1 1v1l-2 2h-2l-2-2-2-2 1 3 2 4h1l2 1 4-2h1v4l-1 1v3h-2l1 1v2l-1 1h-1l-1 1v6l1 1 2 3v3l1 2v3l1 1v3l-1 1 1 1-1 2h3v2h2l-1 2v2l1 1 1 2v4l1 1 2 1v1l-1 1 1 1h2l1-1v3h-3l-2 1-4 1v3h-3l-1-2h-2l-2-2-1-2-1 1-1-2-1-2-3 1-2-1-1-1h-7v-1l-2 1-1 1-2-2-2 1-2-1v1l-1-1h-1l-4-3v-1h-2l-2-2v-1h-5l-1-2-3 1-1-1-2-2-1-1h-1v-1l-1-1-1 1-3-1h-1l-1-1h-2l-1-1-2 1-1-2 1-2-2-2-1-1-1-4v-1l-1-3-1-1v-2l-1-3-2-1v-2l-2-1-1-1 1-1-2-2-1 1v-3l1-1v-4l-1-2 1-1-1-1h-2l1-1-2-1 1-1 1-4v-1l1-1-1-1h-1v-3l-1-2-1-1-1-1-2 1-1-1v-1h-2l-2-3-1-1v-1h-2v-1l-1-1v-2h-1l1-2-2-2v-2h-2l-1-2v-2l-2-1-1-2-2-2h-1l-2-1v-2h-1l-2-2 1-1-1-2-2-2 1-2-1-2 1-1-2-1-1-1 1-2-2-1-1-1-1-1-1-2 1-2-1-2-1-2h-1l-1-3-2-2 1-2-1-3v-1l-1-2-1-1-2-2v-1l-1-2-3-2v-1l-2-1-1-1-2-1-1-2-1-2-1-1h-2l-1-2-2-1h-1l1-2-1-3-1 1v1h-1v-3h-1l-1-2-1-1v-2l-2 1-1-2-1 1h-2l1-2h-2v2l-3-1-2 1-3-2h-1l-2-1-1 1-2-1-2-1-3 2-2-1h-1l-2-3-1 1-2-1-1-1h-2l-2 4-1 1-1-1-2-1-2 2-1-1-1 1h-3l-1 2v1l-2 1v2l-2 1v2l-1 1-1 1v4l-1 2h-1l-2 3v1l1 1v1l-4 1-3 3-1 1-1 1v2l-1 2h-2l-6-2-1-1-1 1-2-2-1-1-1-1-2-2-1-1h-1l-1-1h-1l-3-1-3-4-5-2h-2l-2-1-3-3-2-1-1-2h-1v-3l-3-1h-1l-2-2-1-1-4-3-1-2v-2l-1-4-1-1v-1l-2-3v-10l1-2-1-3-1-1-1-1v-1l-2-2 1-1-2-1v-6l-1-2-1-2-2-1v-2l-1-1-3-2-2-2h-1l-2-2-1-1-5-2v-2l-2-2-3-3h-1v-3l-1-1-1-1-1-1-2-1-1-2h-1l-1-1-2-5-3-1v-2l-2-2h-3l-1-1-1-1-3-3v-2l-2-2v-2l-2-4-1-2-2-1h-2l-1-2m488 116l-1 1h-6l-2 1-3 1-6 3-8 3-6 3-1 2-2 2-2-1 3-3h1l1-1h1l1-1v-1l2-1 2 1v-1l-1-1-1-1-7 3-1-2 2-2 1-4v-3h-2v-1l-3 1v-1l-1 1-1 2-1 2-1 1-1-2h-1l-2-1-2-3v-1l-1-1-1 3h1l1 2v1h2l1 1-1 2 1 1-1 3 1 1 3 1v1h-2l2 2h1v2l-1 1 1 2-1 1"/><path d="M1404 954l1 1v1l-2 1v2l-3 3-2-1v2l2 1-4 1-7 2h-5l1-2 2 1h1l3-1 1-2-2-1-2-2-3-2v-2l-1-1 1-2-1-2v-5l-1-1v-1h-1l-1 1-1-1v3l-1 1v2l-1 2v2l-1 1 1 6-1 1-2 2v-2l-5-1-2-1-1 1M1630 908l1-1 3-3v2l-1 4v2h-1v-3l-2-1m2-10h-1l1-1 1 2v1l-1-2m2-11l1 1h1v4h-1l-1 3-1 1h-1v-2l-1-1v-2h1v-3l2-1m-4 0h2l-1 1h-1v-1m4-6l-1-1h1l2-2v-1h2l-1 4-2 3-1-2v-1m0-10h2l1 2h-1l-2-2m5-2v6l-1-1-1-3 1-1 1-1m-3-5l2-2 3 1-1 3-1 2-2-1v-2l-1-1m3-4v1l-2 1-1.2-1.8-.8-1.2h2l.333.667L1638 861l1-1m5-5h1v-1h2v1l-1 1-1 1-1-2m2-1h-1v1h-1v-1l-2-2 2 1h4l-2 1m-2 0v2l-1 1h-1v-2l-1-1h-1v-2h1l3 2m-9 14l2 1-1 1-2 1-1 1 3 1 1 1v2h-3l-1 1 1 1v1l-1 1 1 1v2l-1 1 1 1h1l1 1-2 1h-4v1l2 1-1 2-1 3 1 2v1h-2v-1l-1 1h1l2 1h1v2h-1l-1 1 1 1-2 2h2l1 1-2 1v2l1 1v1l1 3-1 2-2 1h-2m9-66l1 1h2l1 1v2l2 3 1 1h2l-2 3-3-1h-2l-.667-.333L1636 859h-2v1l1 1 .8-.8.2-.2 1 2-1 2 1 4h-2M1270 1023l-1-1 1-2h1l-1 3m-2-3l1 1v2l-2-1 1-2m41-4l-1 1 1-1m-46 5h-3l-3-1-3-3h1l2-1v-1l1-1 1 2h2v3l2 2m55-11l1 1 2-1 1 2-2 1-2 1h-4l3-2 1-2m-86-6h1l2 1h1l3 2-2 1-1 2h-4l-5-3v-2h3l1-1h1m103-26v1l-2-1v-1l1-1 1 1v1m-7 6l-1 1 1 2 1-1 1-1 1 3-3 2h3v1h-2v1l-3-1 2 2-2 1 2 1-1 1-1-2h-1l-1-1-1 1-1-1h-2v2l1 1h-2v1l1 1v1h-1l-1 1h-1l1 2 1 2h2l1 2h2v3l2 1 2-1h3v2h5l1 2 1-1h2v1l2 2v1l1 2v1l2 1v2l-1-2-1 2h-2v2l-1 1-1-2h-2l-1 1-3 4-1 1v-2h1l1-3h1v-3l2-1-1-1-1-2-3 1v-1l-1 1h-2l-2-2 1-1v-1l-1-2-1-1-3 1-1-2h-3l-2-1-1 1-1-1h-2v-3l-1 2-1-2-2 1h-2l-1-1h-1l-3-2h-1l-1-1h1l1-2v-2l-2-1-1 2 1 3h-2v3h1l1 1 3 1h2v2l1 2-1 2-1 1-1 1 1 2 1 2-2 2-2 2-2 1-1-2h-1l1-1-2-1 1-1-2-3h-1v-2l-2 1 1 1-1 1-1-1v-2l-2-1v1l-1 1-3-1h-1l-1 2 1 2h-1v1h-1v1l-2 3h-1l-2 1-2-1-1 1h-1l-3-2 2-2h1l2-2h-5v-3l-1-1-2 2v1h2l1 1-1 1-1-1-2 1-2 2-1-1v-3l1-1h2l-1-3-1 2h1l-1 1-1 1v-2l-2-1-1-1-1-1v-1l-2-2-1-2-2 1-1-1h-2v-2l-2 1-3 1v-1l-1-4h-3v-4l-2-1-1 1-1-1h-2l-3 2v-1h-1l1-2h1v-2h-1l-1-1-2 1h-1l-1 1-2 1-3 2-1-1h-1l-1 2 1 1h2l-1 2 1 2 1-1 1 2h-4l-3 2-2 1-4-1-6-1h-4l-4-1-7-4-4-1-4-1-2-1h-3l-3 1h-6l-8 1h-2l-3 2h-1m168-29h-1l-1 1h-2l-1 2-1 1v1h-1v2h-4l-1 1 1 3 1 1 2-1v2l2 1h4l1-1-1-1 1-4 3-2v-2l2 2-1 3 2 1M1367 961l-1 1-1 1-1 1-1 1-1-1h-2v-3h-2v1l-1 1h-1l-1 1h-2l-2-1-2-2v1h-3l-3 1-3 1-4 2-4 2v-2h1l-2-2-2 1 1 3-1 1-2 1v1l-1 2-3 1"/><path d="M1647 848l-1 2h-1v-2h2m0 0l1-1v-4h1l1-2 2 1v1l-1 3-1 1-2 2-1-1m9-10l3-2 1 1-4 3v-2m4-5v3l-2-1 2-2m-5-3h2v1h-1l-1-1m0 0v2h3l1 1-1 1-2 2v2l-1 2-1 1h-1l-1-4-1-1v-2l1-1-1.6-.8-.4-.2v-2h5m7-2l-2 2v-3h1l1 1m-15 1h3v2l.4 1.2.6 1.8v2l1 2v1h-1l-4-3-1-2-1-2h1v-2l1-1m32-14l-1 2-1-1 2-1m6-9l1 1-2 1v-1h1-1l1-1m0 0l3-2v1l-2 2-1-1m-3 3l-1 2-2 2h-2v-2h-1v3h2v1l-2 1v3l-1 1-1 1h-1l-3 2-2 2-1.5-1-1.5-1 1-4-1 1-1 3h2l.5 1 .5 1-2 2-2 2-1-1-1-1h-1v1l-2 1-2-1-2 2-2-1h-5l-1 1v1l-1 1 1 3 1 2v1l2 3-1 1v3l-1 2-2 1h-1l-1 1h1l1 1h-1l-2 1-2-1v1h-1l-3-1m81-95l1 1-5 4-3 2-1 2-3 5-2 4v1l-2 2-1 4-1 1v6l-1-1v-1l-2 1-1-1 1-2h-1v4l3 1h1v3l-1 2v-2h-2l2 2-1 1-4 4-1-1v2l-2 1-2-1-2 2-1 3h-1v2h-1v1l-1 1h-1v1M225 752l1 1v2l2 3 3 5-2 1-3-3v-1l-1-2v-6m-32-20l2 2 1 2h-1l-3-1v-2l1-1m36 0l2 1 2 2h1l3 3 1 3v1l-1 1-1-2-3-1-1-1 1-2v-1l-3-1-1-3m-46-38v2l1 1 1 1v1h-2l-2 1h-2l-2-2-1-3h2l1-1 3 1 1-1m-11-3l1 1v1l-2-1-1-1h2m16 3l2 1 1 1h3l1 1 1 2h2l1-1h2l1 1-2 2h-1l-2-1-3 1h-2l-3-2-1-2 1-1-1-2m-37-184h-1l-3-2h2l1 1 1 1m214 288l-69-9-22-2v-7l-2-1 1-1 1 1v2l1 2v-2l-1-3-2-1h-1v-1h2v-1l-1-1-1-1 1-2 1-3v-5l-1-4-1-2-2-5-2-4-1-2-1-1-1-2-1-2h-2v-1l-1-3-1-1-2-2v-1l-2-1-2-2-3-6-2-1-1 1-1-1h-1l-1 1-1 1-2-1v-1l-2-1v-1l1-1 1-2-1-5-1-2-1-2-1-1-7-1h-3l-1-1-3-2-4-3-1-1h-2l-2-3-1-4v-2h-1l-1-3h-1l-2-3-3-2-2-1-3-1-1 1-3-2h-3l-1-2h-1l-2-2-3-1-2-1h-3l-2-1h-6l-1-2v-2l-2-2-2-1v-2l3-4-1-3 1-2 1-2-1-3 2-4 1-2v-4l-1-2h-3l-2-3-1-2v-1l1-1 1-1v-6h-2v-1h-2l-2-5v-2l-1-2-2-1-2-2-1-2 1-2v-2l-2-2-1-2-1-1v-6l-2-2v-1l-1-2v-1l-2-4-2-2-1-2-1-1-1-2 1-2v-7l1-1v-2l-1-1 1-1 1-1 2 2 1-1 1-1 1-2 1-2 1-2v-2l-1-4-1-2-1-1-2 1-1-1h-2l-1-1-3-3-1-3-1-2-1-1v-3l-1-1v-3l2-4-1-4v-3l-1-1 1-4 1-2 1-1v-5h4l1 1-1 2 1 1-2 1v5h1l1 1 1 1 3 4h1v3h2v-2l-1-1v-1l-1-3 1-4-1-2h-1l1-2-1-1-1-1-1-1 1-1v-4h-1l-2-2 3-2h2l2-1h3l1 2h5l7 4h2l2-1v-1h4v1l-2 1v1h1l1-1v-2h-2l-1-1-1 1v1l-3 1-1-1v-1l-1-1h-3v-1h-2l-1-2h1v-2h-2l-1 1-3 2-1-1h-1l-1-1h-1v-1l-2-3h-5v2l-1 2 1 1-2 1-1 3-1 1 1 1v2h-1l-1-2h-1l-1-2-1-2h-2l-1-1-1-2-1-2-1-2-2-1h-2v1h-1l2-3 3-5 1 2v-2l-2-2 1-1-1-2-1-2-1-6-2-3-1-1-3-3v-2l-1-1v-2l-1-3-2-2v-2l-3-4v-1l-1-3v-1l1-1 2-2v-5l-1-3v-7l1-2v-2l2-2 1-2 1-1v-3l1-3-1-2 1-3v-2l-2-2v-2l-1-1v-2l-1-3-1-1v-3l-3-2v-2l-2-2-2-4 2-2v-3l-1-3 2-2v-1l4-4 2-2v-1l2 1v-1l1-1 2-2h3v-2l-2-1 2-3 2-4-1-2 1-3h1l2-3 3-6 1-4 1-4-1-1 1-2v-6l-2-1-1-2 2-2 1-2 2-4v-1M1877 372h-3l-1 1-1 1h-2l-1 1h-2l-2 2-2 1h-2l-1 1h-2l-2 2-2-1-1 1-3 1h-3l-1 1-1 1h-1l-1-2v2h-1l-1 3h-2l-1 1-1 2h-1l-2 1-1 2-3 1-1 2-2 2-2 1-1 1h-1l-1 1M1730 524v-2l-2-2h-2M1772 478v-1m3-9l-2 1v4l-1 2-1 1-1 2 1 1h1l1 2-1 2 1 1 2 2 1 2 3 2v1l2 1 1 2v4l1 3 2 1 2 2v2l6 5h2l1-1 2 5-2 1v1l2 1-2 1 2 1 1-2 2 7M1937 354l1 1 2 2v1l-2 1-3 1h-3v-2l4-1h1l1-2-1-1m-20 1h1l1 2h3v2l-4 1-4 1-1 1v2l-3-2 2-1 2-4 1-1 1-2 1 1m4-9h-1v2l-1 2-4 2-1 1h-1l1-3-1-1v-1l-1-2 1-1v-1l-1-1-1 1h-2l1 1-1 2v1h-1v1l-2 1-2 1 1 3-2 1 1 1-2 1h-2l-1 1m-4-7v-2h-2m0-54l2 5-1 1 2 1 1 1v1h1l2-1v-2l3 2-3 2v1l-3 2-2 2 1 1-1 3h-1l-1 3 1 1-1 1v1l-1 1 1 1v1h3l3-1h1l4 1v2l2 1 2 2v3l-1 2 2 1h2v-1l1 1 2 3v2l2 1 3 1h2l2 1 2-1 1-2 2-1 3-3 1-1-1-2v-1l-2-2h-1l-1-2-1-1-2-1h-1v2l-2-2 1-1h4l2 1 3 3 2 5 2 4-1-1-1 1 2 1v2l-2 1-5 2-2 1h-1l-1 1h-1l-2 1M1771 555h1m1-2v2m0 0l-1-1 1-1m-1 1v1m0 0v-1m1-1l-1-1h-1l1-1 1 1v1m-4-9l1 1-1 1h-1v-1l1-1m-4-1l-1-1 1 1m33 3h1m2-21h-1m-46-14h1l-1 1-2 2 1 2-1 1-1-4 1-3v-1l2 2m46 17l-1 1 1 1 1 1-1 2-1 2-1 1h-1l-1 2v2l-1 2-1 2v3m-8 3l-1 2-2-1-1 1h-2l-1 2-1 1h-1l-1-2 1-2 1-2 1-1h-2v-3h-3l-1 1v-2l2-1 2-2h-3l-1-1v-1l1-4-2 2v4h-1l-2-2 2-1-1-2h-1v2l-1 1 1 1v2h-1l-1-1-1-1-2-1-1-1-2-1v1h-1l-1-2-2-3 1-1 1-1h1v-2l-2 1-1-1 1-1v-1h6l2 1v-1l-1-1-2-1h-2l-1-1h-1l-1-2 1-1-2-1-1 2-2-1v-3l1-2 1 2h2v-1l1-3h1v-1h-2l-1 1-1-2v-1l1-2v-5l-2 1v2l-1-3-2-1 1-6 1-1v-1l2-3h2v-2l2-2v-1h-1v-4h-1l-2 1-1 1-1 2 1 1v1l-1 2-1 2-1 1-1-1v-3l-1 3 1 2-1 1-1-3h-1v2l-1 2v5h-3v-1h-1l-1-1-1 1 2 1 1 2h1l2 1v2l-1 1h1l2 1 1 1-3 2-2-1-.25-.5-.75-1.5-1 1h1l.75.5 2.25 1.5 1 2v1l-1 1-1 2h2v2l-2 2v1l2 1v2l1 3 1 4 1 2 3 2 2 2-1 2h-2l-1-2-1-1h-2l-3-2-1-1-1-4h-1l1 3v1l2 2 3 2h2l1 1v1l1 1 1 1 2-1v2l1 2 3 2 1 4h-2l-1-1h-1l-1-2-2 1h-2v-2l-2-1h-3l-2-1-1 2-1-1-2-3v-1l-2-1v2l2 2v1l-3-1v-1l-2-1-1-2-2-3-1 1-1 2-1 1-2 2-2-1-1-1v-1l-1-2 1-3 1-1v-1l3-3-1-2 2-1h1l-1-4v-1m70 1l-1 1 1 2M1740 749v3h-2l2-3m1-6v3l-1-3h1m49-46l-1.2 3-.8 2v-2h1l1-3m25-41v4l.5 2 .5 2v9h-4l1-2h2l1-2-1-2 1-2-.5-3-.5-3v-3l-2-4 2 4m-12-14l1 1 2 1v1l1 2h-1l-1-2-1-1-2-1 1-1m-6 1l-2 1-1-1 2-1h1v1m-6-27l1 3 2.25 5.25.75 1.75 3 4 3 5 2 3 2.5 3.5 2.5 3.5-1-2-1.5-1.5-1.5-1.5-2-3h-2l-1-3-2-4-1-1-1-2v-2l-.75-.75-.25-.25-1-2-1-1-1-2v-1l-1-2m-3 1h1m1 0l1 2-3 1-1-3m5 12l-1 1 1 1v1l1 2-3-1-1-1h-1l-3-2h-1v1l1 1 1 1 2 1 1 1-1 1h-1l-1 1h-4l2 2h-2l-2-1h-2l-1-1-1 1 2 1h1l1 1-1 1-2 1-1 2-2 1-2 1-2-2v1h-2v-1l-1-2-1-2-1-2 1-3h-1l-1 2v4l2 2v2h1l1 2-1 2 3 1 5-2 4-3 1 2 2-1 1-1 4-2h5v1l1 2-1 2v2l1 1v2l1 3v2l1-1 1-2-1-1v-5l-1-2 2-3 2-1 1-1 2 1 3 4v3l2 3h-2l-1 1 3 2-3 4v-1h-1l-2-1v2l-2 3v3l-1 1h-1l-1 4h-1v1h-1l-2 1-1-1-1 1h-1l-2-3v3l-2-3h-1v2h-4v-1h-1l-1-2 1-1h2v-2l-2 1h-2l-2 1 2 1v1l2 3h-9l-2-1-2 1-2-1-3-2v2l2 1 1 1 2-1 2 1h1l2 1h3l3 1h3l1 1 1-1 1 3-1 1v2l-2-1-1 2v1h3v2l-1 2h-1l-3 3-1 1-1 2-5-2-2-1-2-1-1-2v1l2 3 1 1 3 2 2 1 1-1 2 1 2-1 2-3h3v-2h2v1-3l1-2 1 1v2l1 1v2h1l1-1 2-1 2 1-1 1h-1v2l-1 1-1-1v3l-1 1-2 2v2l-2 1-1-2-1 1 1 2-1 1-1-1v-2l-2-1v2l1 1-6 1h-2l-2 1-2 2h-1l-1 1-1-2-1 3-2 2-2 3-1 1h-2l-1-2 1-2-1-1-1-1-2-1v2l2 1 1 1-1 1h-1v1l2 1h1l1 2-5 4-2 2-4 5-2 4-1 3h-1l-1 3v3h-1l-1-2-1-3-1 1 2 2v8l-2 2-1 1h-7l-5 2-5 2h-1m0 0h-1m68-138l1 2-1 1 3 3 1 1h2v1l2 3h1v2l1 2 1 2 2 1v2l-2-1-1-1v-1l-1-1-1-1-1-2-1-1"/><path d="M1814 476v-2l2-1v2l-2 1m-33 12l-1-2h-1l-2-1-2-1h-1v-2m0 0v-4h-2m0-1l1-3v-1l1-3 2-3 2-2h1l2-1 1-1h1l.333-.667L1784 461l-1-2 2-1v-1m28-54l1 4-1 4-1 4v2l-1 1v2h-2l1-1h-1v1l-1 1-1 1 1 1v2l-2 1 1 1v3h3l1-1 3 1h3l1 4v9l.714 5 .064.444L1819 450v3l.75 4.5.25 1.5h-1l.75-1.5.25-.5-1-5-1-2 .778-1.556.222-.444h-2l-1 1 1 1 1 1-1 1h1l-1 2 1 1-1 4v2l1 1-1 2v2l-3 3v2l-2 1 1 4h-1l-1 1-1 2 2-1 2 2-3 2-1-2-1 2 1 1-1 1h-2v2h1l-2 6v1l-2 5v1l-1 2-2 1v1h-2v-4l1-3-1-4h-5v-1l-3 1v1h-1l-1-2-1-1h-2l-1-1-1 1-1-1-1-2-1 1"/><path d="M1811 420l2 2-2 3-4 3v-2l1-1v-4h1l2-1m26-6l-2.857 1.714-.476.286-1.667 1 1-1h1l.143-.286L1835 414h2l2-1v1h-2m28-28h1l1 2h-4l1-2h1m-1-2v1l-2 2v2l-1 2-2 2-1 2 1 1h2l1-1v-1l2-1v-2l2-1h1l2-3v1l1-2 3 3 1-1 1-1 2-3 1-1 2 1-3 2-4 4-7 6-2 1h-2l-1 1-2 1v1l-2 2h-2l-3 2-2 2h-2v1h-3v1l-2 1h-1v1h-3l-1 2h-2v1l-2 1-3 1-2 1-2 1-1 2-3 1-2 1 1-2-2-1-1 1-1 1v1l-1 1-2 1v-1l-2-1v-1l1-1-1-1 1-1v-2l1-3 .6.6.4.4 1-1 1-1h2l1-2v-1h2v-3l2-1h1l1 2 2-2-1-1v-1h2v1h2v-1h5l2-1v-3h1l2 1v-1l9-3 2-1h2l2-1 2-3 1-1 1-2h1l1-3h1l1-1 2-1-1 2h-2m11-10l-2 2h-1l3-2m-244-28v1l-1 2v1l-2-1-1-1 1-2h3m75-59l2-2h1l-1 3-2-1m116 115l-2 2-1 3-1 3h1l-1 1-1 1h-1l-.4.6-1.6 2.4v1l-1 1v-2l1-4v-12l-1-3-1-1-2-2-1-1 1 3 2 2v3l1 3m-204-17l2-2 4-4 4-3v-1l3-3 1-1 1-1 3-1v-3l2-2v-2l2-1 2-2 1-2v-3l-1-1-2-4-1-1v-1l1-1v-1l-2-1h-4v-2l-1-5v-1l3-1 5-3 3-1 2-1 3-2 5-1h5l4-1 6-1h7l2 2 3 1h1l1-1 3-1 2-1 3-1 3-1h5l2 1v-1l1-2 3-1 2-2h1l2-4 2-2 2-1v-1l2-2h4l1-1 1-3v-2l1-2h-2l-2-6-3-1 1-2 1 1h1l2-3-1-2-2-1 1-1 1-1h-1v-2l-2 1-1 1-1 2v-3h-2l-2-1 1-2 1-3h2l1-1 1-1v-2l2-2 1-1 1-1h1l2-2 2-3v-2l1-2 4-6 2-5 2-2 1-1 1-1 2-2-1-1 3-2 2-2 2-2 2-1v-2h2l3-2h4l8-2 3-1 6-1 8-2 7-2 10-3m33 180v1M1490 429v1h4v-1l4 3h3l2 1 3 2 2 1h2l1-1 1-3 1 2h3v1l-1 1h-2l-2 1h-3v2l1 1h1l2-1 1-2 3 1 1-1 2 1 2 1 3 1h1l4-3h3l3-2 5-3h4l4-1 1 1 3-4 3-3 1-1 2-2 2-3 3-2 1-1 3-2 4-3 3-1 4-2 5-3 3-2M1785 457l-2 2 1 2v1l-.667.333L1782 463l-2 1-2 1-2 2-1 1m-189-65l6-3 3-3 5-4 2-2 3-3h1l3-2M1888 374v1l1 2-1 1-1-1 1-3m3-14l-1 1v-4l1 3m3-7v2l1 3v1l-1 1v1l-2 1 1-2-1-3 1-4h1m5 5l-2 2v-1l-1-2-1-3v-3m-2-2v3h-1l-1-2h-2l-1-2v2l1 2h-3l1 1h1l1 3-1 1 1 2 1 3-1 2v3h-1l-4 1-2 2-2 1-2 1h-1M1788 617h1m-5-34v4l-1-3 1-1m0 0l-1-1 1-1v2m4-8l2-1-1 2-1-1m0-2l1-3 .667-1.333.333-.667 1 1-2 4h-1m-16-18h-1m26-7l-1 1v2h-1l1-1.5 1-1.5m-15 13l-1-1h3v-2l1-3h-2v-2h2v-2l1-1m8-3l-1 2v4h-1l-1 1 1 1 1-2h1l-2 3-2 5v6l-2-2v2l1.667 1.667.333.333-1 1-1 1h-2v1h1l1 1 1 1-1 1-1-2h-2l-1 2v2h1l-1 2-1-1-1 5v5l1 3-1 1-1-2-1-2-1-2v-2l-1-1 2-4-1-1v-9l2-4 1-2v-2m17-15h-1m-34 26h-2l-2-1h-1l-1 1h-1v-3l-2-1v-1l-3-1-1-1h-1l-3-2-1-1h-2l-1-3h-2v1l3 2 2 1 1 1 3 3h1l1 1h1l2 2 1 1v1l2 2 3-1 1 1h4l-2 2 2 2h1l1 1h1l1 3-1 2h-1l-2-1-2-1v1h-2v1l2 1h1l-1 1 2 1v1l-4 2v-1l-2-1-3-2-1-1-3-3-1-1-2-1v1h1l1 2 2 1 2 2v1l2 2h2l1 1 3 1 1-1 1 1 1 2h1l3 1h-1l-1 1v1l3-1-1 3v1l-2 1-1 2h-1l-1-3-2-1-1-1-1 1-3-2v-2l-1-2h-2l-1 1-1 1-2-1-1-1-2 1v-1l-1 1h-2l-1-1v-1h-1l-2 1-1-1-2 1-2-1-2 1v-2l-1-1 1 3v1h2l4-1 1 1h1l1-2 1 2 4 2 1-1h2v1l2 1h2v-3l1 1v1l1 2v2l1 1h3l1 1 2 1v2l2 2 1-1h1v-2h1l1 2h1v-1l-1-1v-2l7 1h1l2-2 2 1 3 6 4 6 1 3m-1 0v-1l-1-2-1-2-1-2-1 2v2l1 4m-1 0h-1m-59-97h1l2 2v4l1 2-2 1-1 1 1 2h-1l-2 1v-1l-1 1v3l-1 4v3l1 2 1 1 1 1 1-1 2-1 1-1h2l1-2 1 1v3l1 1 2 1-1 3 2-1h1l2 1h3l2 1 1-2 2 1 1-1 2 2 1 1 1 2 3 1 2 1h2l3 1 2 1-1 3h-1v5l1 1-1 2 1 2h-1M1346 286l1 2-2-1 1-1m13-10l2-1v4l-3-1v-1l1-1m-121-58l1 2-3 1v2h-1l-2 1v-1l1-1 1-1 1-1 2-2m100 74v5h-2l-4 2-1 1 1 2-1 2-1 1-1 3-1 2-1 6v1l1 1h2l1-2 1-2 3-1 1-3v-1l3-6 4-1 1-1 2 1v-2h-1l2-4 1-3 1-2v-1l1-3 1 1 1-2h1v-3h1l1-2h2l1 2-1 2h-1v5l-1 2h-1l-1 2v1l-1 1 1 2-2 1 1 2-2 1v2l-1 1-1 3-1 4-1 1-1 3-1 4v4l-1 2v2l2 3v2l-2 2-2 2v2l-1 2v2l-1 1v3l1 3 1 2-1 2 1 2-3 6 1 3-1 1-1 3-1 2v7l1 2-1 1 2 3-1 1v2l2 2v3l1 3 2 2v4l-1 1v4l1 2v2m-153-179l1-2 1-2h1l2 1 1 1h4l2-1 5-2 2-1h2l3-2h1l1-1 3-1 1-1 1 1 3-1 1-1 1-1 1-1 1-1h1l2-1 1 1h1l1 2-1 3-2 3 1 3-1 1-1 1v1l-1 2h1l1-1 3-1 3-2 3 3 2 1 1-1 2 1h1m-11-17l1 1-1 1-1-2h1m6 1l-3 1v-2l3-1v2m-12-2v1h-1l-1-1h2m16-5v2l-2 2v-2l1-2h1"/><path d="M1489 429h1m7-21h1v3h-1v-3m14-23v1-1m2 0h2l-2 3-.8-1.6-.2-.4-1 1 1.2-.6.8-.4v-1m-126-95v1h-2v-1h2m4-2l-2 1-2-2v-2l1-1h1l1 1v2l1 1m2-14l-1-2 1-1v3m3-18l1 1v2l-1-2v-1m5 0l1 1v2l1 1v2l-2 2h-2v-5l1-2 1-1m-23 184l4-4 2-3 1-2 1-2 1-6 3-5 1-2 2-4v-5l1-6v-6l-1-7-1-5-1-4-3-5-1-1 2-1v-1l-2 1-2-3-1-3-3-6-2-4v-3l2-4v-9l-3-3v-2l2-3 2-4 2-7 1-3-1-3 1-3v-2l-2-3 1-2 2-1 2-1 1-1v-2l-1-4 1-1 1 1 1-1 1-3 1 1h3l1-2v-1l1-2 2-2v-3l1-2h1l1-1 1 2-1 1h-1l-1 1 2 3-1 2 1 3-1 3v2l1 3h1v-2l1-3v-4h1l1 3-1 2-1 2v3h1l1-1v-2h1l1-6 1-3-1-2 1-3-1-2-1-4 1-2 1-1 2-1 1-2 2-1h5l2-1v-2h-4l-2-2-1-4 1-2 2-2v-1l2-2-2-1 3-1h3l1-2h1v1l5 2 3 2h2l1-1 1 1 1-1 4 1 3 3 1 2 1 1 1-1 5 1 1 1 3 1h2l1 1 2 1h3l3 1 1 1 1 1v1l2 4 2 3v2h-1l-1-1h-1l-1 1v4l2 2 3 1v2l1 1 1 4v14l1 1-1 1 1 2h-2l-1 2v1h-2l-2 3v3l1 2-1 1v2h-2l-1 1v1l-2 1h-3l-1 4-1 3 1 3-1 1 1 3 1 1 2 1h1l3 1 2 1 1-1 3-5h1l2-3 1-3v-1l2-2-1-1 2-1v-2l4-1 1-1 2-1v-2h1l1-1h1l2 1h2l3 2 4 6 1 3 2 7 1 3 2 5v3l2 6v1l2 4 2 4 1 2-1 2-1 2 1 2v10l-1 1h-2l-1-1v-2h-3l-1 2h-2v2l1 1v1h-1l-1 2v6l-1 2h-2l-3 3v1l-2 6v7l-1 2-1 2-1-1-1 2v1l-1 1-1 2-1 1v2l-1 2m-58-180h2l2 1h3l-1 3h-3l-2-3-1-1m31-8h-1l-2-1h-1l-3 1-2-1-1-1v-2l2 2 1-2 2-1 1-1-2-2h4l1 1 1 2 2 1-1 4h-1m-22-14l-1-2h2l1 2 1 1-1 1-1-1-1-1m-2-5l-1-3h-1l2-3h3l-1 2v1l-1 2 2 1 1 3-2-1v-1l-2-1m-75 6l-1-1-1-2-1-1 1-1h1l1 1v2l1 1-1 1m-118 4l2-2h1l4-2 4-2 4-3 2-2 2-2h5l3-1h3l2-1 3-3 2-1v-1l2-2h4l1-1 2-4 1-1 1-1 1-1 1-1 2-2 1-1 .4.8.6 1.2-1 1 1 2h3v3l3 2v4l-1 1v3l1 2h1l1-3 2-2 2-2 3-2v1l-2 2 4-1h6l1 1h4l1 2 3 1 1 1 1 2 1 2 1 2h1l1 1 1 1h1l1 2v1l1 1h4l1-1h2l1-1 2-1 2 1 1 2h1l1 1h2v-1l1-1 2 2 2-1v2l3-4v-1l2-2h1l2-1 5-5 2-1v1l5-1 3-1h5l2-1h4l4-2 2-1 2-1 2-1h4l2-1h1l-2 2v5l1 3-1 1v1l1 1h5l1 1h1l4-2h1l2 1v1h1l2-1h1v-1l1-1 2-1 2 1 1 2 1 1 1 2v3h1v2l-1 1v2h1l2-1 2 2h2l-1 2 2 2 4 1v2h-2l-1 1-4-1-2 1-2-1-2 1-1-1-1 3-1-1v-2h-2l-1 1h-1l-1-1h-1l-2-1-1 1v1l-1 3 1 1-1 1 1 2-1 1-3-2-1-1h-2v-2l-3-2h-3l-1-1h-4l-2-1-2 1-1-1h-3l-3 3-1 3-1 1-4-1-1 1h-1l-1 1v1l-3-1h-4l-1 1-1-1-1 1-1 1-1 1-1 6h-2l-1 1h-1l-2 1 1 2h-2v2h-1v2h-2l-1-2 1-1 1-2 1-1-1-1h2v-3l1-1v-1h-2l-2 3h-2l-1-1h-1l1 2-1 1-1 3-1 1h-4l1-2-1-1-1-2 2-2-1-2-1 3-1 2v4l-2 2-1 1-3 5v3l-2 2 1 1-2 3v2l-3 5-2 3-1 3m-36-89h-3v-1l-1-1 1-1-1-1 .4-.2 1.6-.8 2-3 2-3 4-3h1l1-1 6-2h1l4-1h2l2 2 1 1h-2l-1 1h-2l-3 1v1h1l-2 2-2 1v2l-2 2h-2l-1 1v2l-1 1v1l-2 1v3l-1 2-1-1-1-1v-1l1-2h-2l-1-1m-8-45l4-1v1l-2 2 1 1-3 2-3 2h-2l-5 4h1l2 1-7 3h-1l-1-3v-1l1-1 3-2 6-4 3-1v-1l3-2M697 1107l4 1 1 1 3 2h1l2 1h1l4 1 5 3h2l3 2 3 2 1 2 1 1v5h4l1 2v2h1v1l2 2 4 1v2l-3 3-1 1-2 2-4 2-2 2h-7l-2 2v1l-3 1-1 2h-2l-2 3v1l-2 2v1l-2 3-3-2-1-1-2-1h-2l-1-1-1-2-1-1v-2l1-4v-4l-1-2-1-3-1-1-1-4-1-2-1-1v-1l-1-1v-3l3-4h1l3-5h1v-2l-1-2-2-2v-5l1-1h1m-29-14l1 2-1 2h-1l-3 1-1-1v-1l2-1 1-1 2-1m-17-13h3l1 1 2 2 1 1-1 3-2 1h-3l-1-2v-1l-1-1-2-1v-2l1-1h2m15-5l3 2v1l1 2 2 1 3-1 2-1h3l1 1 3 2h1l1 1h1l1 1h2l1 1v3l-2 1-1 2h-1l-2 1h-4l-3 2h-3l-2-1-1-1 1-1-1-3v-2l-2-1-1 1-3-1h-1l-2-3-1-2v-1l1-3h1l2-1m-26-7h1l1 1h3l5 1 1-2 1 2h8l1 1-1 1-2 2-3 1-4-1-4-1h-3l-4 1-2-1 1-2 1-1v-2m-29-5l2-1h-3l-1 1h2v2l-5 1v-1l-2-3-1-1v-2l-2-1v-2l-2-2h3l3-1 2-2 1-1 1-1 2-1 2 1v2l4 5-1 1v2h1l1 1 3 1 1 1v1l2 2-2 2-1-1h-1l-2 1-3-2-1-1-2 1-1-2m-83-27h1l-1 3v1l-1 1-2 1-2 3h-1v-4l2-2 2-1 1-1 1-1m27-9h2l1 2 1 1v2l-2 4 1 2-1 1-4 3-2-1h-2l-2-1h-1l-2-2-3-1-1-2v-2l1-1 1-2 2-1 4-2h7M1915 241v-1l.333-.333.667-.667h-1l.333.667L1916 241h-1m31-18h2v2h-1l-1-2m-4 2l-2 1-2-2 1-1 2 1h1v1m-3-5l1 1-1 1-2 1 2-3m12-3l1-1 1 2h-1l-1-1m-8-2h2l1 3-1 1-1 1-1-1-1-2 1-2m3-7h1l1 2-1 1-1-3m-11 4h1l-1 2-1-1 1-1m17-8l1-1 1 1 2 1 1 2v2l-1 1h-2v1l1 1-1 2-3-2-1-1v-3l1-2-.8-.8-.2-.2.5-.25 1.5-.75m-15 0v1l-2-2h1l1 1m-22 43l-1-2v-1l-1-1-1-1v-3l-.667-.333-.666-.334L1910 238h-1v1h1l.667-.667.333-.333.333.667L1912 240v2l1 1v2l2 2-2 2-1-1-1-2 1-2h-1l-2 2-1 3h-1l1-4h-2v1l-2 1-1 3h-1v1l-1 4 2 2v1l1 1-1 1h-1l-1 1-2 1v2l1 2v1l-1 2v1l-2 2-1 1-1 3 1 1v5l-1 3h-2l-4-2m-33-93h1l2-2 2 1v1l2 2h1l-1-2 1-3h-1v-1l-1-2 1-1 1-1 1 1h2l1 1 1-2-2-1h-1l-1-2h-1l1-3 1-2 1-2v-2h1l2-2h1l1-2-2-3 2-3h1l1-2-1-1 1-1-2-1h-1v-4h-1l1-2v-2l-2-2 1-5h1l-1-2 1-1 1-1 1-2 1-1-2-12 5-15 9-25h5l1 1v1l1 3 1 3 5 1h1l1-2 3-2h1l2-1v-2h1l1-1h2l2-1-1-1 1-2 4-1 2 1 1 1 4 1 2 1h1l1 2 2 1v1h3l6 20 5 15 4 14 2 1-1 2 2 2-1 1v2l1 3h2l1-1 2 2 6 1 1-2 1 1 1 1-1 2-1 2 1 2 2 1 1 3-1 3 1 1 4 3 2 1v-3h5l2 1 1 2-1 1 2 1 1 1 1 3h-2l1 1-2 2h1l1-1h1l2-1 1 2 1 1-1 2-1 1v1l-2 5-2 1-1-1-1 1-1-2h-1l-1 2 2 2-2 1-2 1-1-1-1 1v3l1 1-2 1-1-2-2 3-1-1h-1l-3-1 1 2v1l1 2-1 1v2l-1-2-3 1 2 2-1 1-1 3h-1v-2h-1l-1-2-1-2h-1l-1 1-1-1v2h-2l-1 2-.5.75-.3.45-1.2 1.8-1-5-1 2v1l-1 1v2h-2l1 1 1 1v2h1l1 2v1l-2-1-2-1-1 1-3-1-1 1h-1l-1-2 1-1v-1l2-1-1-1-1 1v2h-1v-7l-1-1h-1l1 3-2 1-2 3-1 1 1 1 1 1v4l-1 4v4h-1l3 1-1 2-1 2-1 1v2l-1 1-1 1-2-2h-2l-1-1-1 3v3l-1 3-1-1-2 1-1 1h-1v-3l-1-1h-1l-1 3h1l1 2v2l-1 2M1033 128h63l-1-18 1 1 2 1 3-1 3 2h2l-1 1 1 4 1 4 1 1 2 10v2h-1l1 2 3 3 1 1h3l1-1 2 1 1-1 2 1v2h9l3 1 1 1 1 1-1 2 1 1 4-1h4l2-1v-2l2-1h1v-1h13v1l6 3 3-1v2l-2 1v1l2 1h4l2 2-1 1 1 1 1 2 2 4 3-2-1-2v-2l1-1 2 1 1-1h3v1l2 1v2l1 2 2-1 1 2h5v3l2 1h2v2l3-1h1l1 1 2-1h2l1-1 2-2 2-1 1-1 2-1 1-1 3-2 1 1 1 2h1v2l2 2 3-1 2-1v2l4-1h4l5-1 4 1 1 2 2 2h1l2-1 3-1 1 1h2l-2 3-3 2-4 2v1l-5 2h-2l-1 1-2 1-2 1-3 1-3 1-1 1-5 3-4 3-5 5-4 4v2l-2 1-3 5-2 1-2 3-3 1v2h-1l-2 2h-1l-3 4h-1l-4 4-3 2v1l-4 4 1 2M1889 283l3 2 2 2-1 3v3l-1 1 1 1m-47-88v-3l1-3v-5l1-2 1-2 3 2h3v-3l1-1M140 305l-2-3-1-3v-11l1-1v-3l1-1 1-2 2-3v-4l-1-1v-3h-1v-5l3-3 2-2 2-4v-2l2-2 2-4v-2l1-1h2l3-2h1v2h1l-1-2-2-1 4-5 5-10 3-6 1-3 1-4 1-1v-2l2-4 3-6 1-3 3-7-1-1 2-3v-1l2-5h1v-2l2-3 1-3h1l1-4 1-2 1-2v-3l1-1 1-1v-4l1-1 1 2h1v-3l-1-2 1-3 1-1v-5l2-5v-2l2-2 1-3v-6l1-1 1 2v1h5v1l3 1h2v-1l2-1 1 1 2 2v1l1 2 3 1h1l1-1"/><path d="M206 116l-1-2 1-1 1 1-1 2m47-23l1 2-2 1v-1l1-2m0 0l1-1 1 2h-1l-1-1m3-3l1 2-1 1v-3m-8 3v-2l-1-1 1-2h1v4l-1 1m16-7l-2 1-1 2-1-1 1-1 1-3 1-1h1v3m-2-9l1-2 1-2h1l-1 2 1 1-1 2-1-1h-1m1-20l1-3h1l-1 2 1 1-1 1-1-1m8-15l1 3 1 1v1l-2 1-1-2-2 1v1l1 2v6l-1 3 1-1 1-1 1-1 1 2 1 2v4l-2 1-1-1v-2l-1-1h-1v-1l-1-2v-2l1-2v-2l-2-1-2-3 1-1 4-4v-2l2 1m-6-9v4l1 1-2 1v-1l-1-1-1-1 2-3h1m3-1v2l-1 1v-3h1m5 3l-1 1v-2l1 1m-10-4l1 1-1 1-1-2h1m8 2v2l-2-2h2m-13-5h1v1l2 3 1 1h-2v2l-1 1-2-3-1-1 1-2 1-2m8-2l2 1 2 3h-2v1l-1-1-1-2v-1l-1 1 1 3h-2l-1-3h-1l3-2h1m7 2l1 2-1 1v-3m-7-16v2l-2-1 1-1h1m4 29l-1-1 1-1v-2h2l1 1 2 2h1v-3l2-1 1-1-1-2v-4l1-1-1-2h-2l-2 2v-1l1-1-1-2h-1v-2l-1-2 1-1v-2h-1l1-1 1 1 1-1-1-1 19 5 10 3 12 3 20 6 18 5 18 4 22 5 15 4 33 8m-216 75h-2l-2-1-1-3v-1l-1-2h-5l-2-2 1-1h-4l-3 1h-1l-1-2v-1l-1-1-3 1 1-2 1-3 2-4 1-7 1 3-1 4-1 5h1v1l1-2 2-1-1-2 2-1v-1l-1-4 2-1v-1l3-1-1-1-2-1-1 1-1-1-2-2 1-3v-4l1 1v2l1-2h6l1-1-2-1-2-1-1-1 1-1-1-1-2-1-1 1v1h-1l1-4 1-4v-6h-1v-3h-1l1-2v-3l1-6v-7l-1-1v-2l-1-2v-1l-2-2v-4l1-5v-4h1l1-1v-1l1-1v-1l1-1v-1l-1-1v-2h2l1 2h2l3 4 1 2 3 2 4 3v1l1 1 2 1 3 2h3l2 1 2 1 1 1h1l1 1 3 2 5 1 2-1h2l1 2v3h1v-1h8v1l-2 1 1 2 1 1v2l1 1-1 2 1 2v1l-2-1v1l-2 1-2 3-1 2h-1l1-1 1-4-2-1v3l-1 1-1 1-2 2-2 1-3 3v1l-3 1-1 2-1 2v1l4 1 1-1h2l3-1h-4l-2 1-3-1v-1l2-2 2-2h1l2-3h2v-1h3l3-1v-2l3-3 4-1 1-3h1v8h-2l-2 2-1-1v5l-1 1-1-1v-3h-1l-1 1 2 1v3l2-1 1 2v1l-1 2-1 1-1 1v2l-1 2v1l-2 2-1-2-1-1v-1l1-1h-2l-1 2v2l-2 3v-1l-1-3 2-2 1-3h-1l-1 2-3 1-1 1-2 3h-1l1 2h-1l2 3 1-2-1-1 2-1 2 1v1l1 2 2 1 4-3v-1l2-3 1-2 2 4 1-2v-1h3l1-2-1-3 1-2h-1l1-4h1v1l1-1-1-2-1-2 3-2v-3l2-2 2-4h2l1-1 1-2-1-1-1-2-1-2v-2l1-1-1-2h-2l1 1-2 1 1 2 1 2-1 1-1-3-1-1-1-2 1-3h3l1 1 1-2v-1l-2-3h-1v-3h-3M94 1152h1v1l-2 1 1-2m-14-6h1l1 2h-1l-2-2h1m6 5v1l-1-2h3l-1 2-1-1m8 1l-1 1-1 1-3-1 1-1 1-3h2l-1 2 2 1m-31-16v1l-2 1v-2h2m34 13l1 1v2l-1-1v-2m22 8l1 1h-4v-2l3 1m10 0l1 1-1 1-2-1 1-1h1m-14-5l1 1-2 2-1 1-1-1-1 1v-1h-3l-1-1 1-1 1 1h1l2-1 2-1h1m-96-45l-2 2v-2h2m127 51l-2 1v-1h2m8-1v2l-2-2h2m-139-60l2 2 1 1-2 1-1-1h-2l1-1-2-2 2-1 1 1m144 63l3-1v-1l1-1v-1l2-1 2 1v-2l2-2h2l1 1v2l-3 1h-1l-3 2h-1l-2 .8-3 1.2m27-5v-2h2v1l-2 1m0-2v2h-2l-2 2-2-1-5 1-1 1-2-1 1-1h2l3-1v-1l2-1h2l-3-2 1-1 2-1h2v3l3-1v1l-1 1m5-5l2 2-2 1-2-1v-1l1-1h1m4 0l-1 1v1l-1-2h2m28-3l1 1-1 1-1-2h1m259 12v1l-1 1-1-1 2-1m-270-16l1 1 1 1v3h1l1 1-3-1v1h-3l-3-1-2 1v1h-4l-1-2 1-1 2-1 1-2 2-1 1 1 4-1h1m16 2l1 1-1 1v-2m240 13l2 2-1 1-1-3m-3 0l1-1 2 5 1 1 1 2h-1l-2-3h-1l-1-3v-1m15-2h1v3h-2v-3h1m-236-9v1l-2 2h-1l3-3m221 10v1l-2-1 1-1 1 1m-227-14l1 1-1 1 1 2h-1l-2-1v-2l2-1m238 11l2 1v2h-1l-1-3m-15-1l1 1-1 1-1-1 1-1m0-4l1 1v1h-1v-2m16-3l3-1 2 2 1 3v5l-1 1-1-1-2-1v1l-3-2 2-2-1-1v-4m-15-2h1v2h-1l-2 2-1-1 2-2 1-1m10-1l1 1-1 1 1 1-2 1-2-3h-1v-1l1-1v-1h1l1 1 1 1m-4 15h-1v-1h-2v-2l2 1-1-2v-2h-3l2-3-1-1-1-4h-2l-1-2v-1l4 1 1 2-1 1 2 1h1l2 1 2 2v1l1 1 1 2h-1l2 2v1h1v2l1 2v4h-1l-2-1-1-2v1l-1-1v-2l-3-1m-2-19h2v3l-1 1-2-2 1-2m6 4l-1-2v-1h2l1 2v1h-2m-178-8l-1 1h-1l1-1h1m-124-27h2l-1 1-1-1m295 26l4 3-2 1-1 1-1-5m-7 2h1v2h-1v8h-2l-1-4v-1h2l-3-4-1-2 2-1h1l2 2m7-2v2l-1 2-1 1-3 1v-2l-1-1v-2l-1-1-2-2 1-1h2l2 1 2-1 2 2v1m-163-7l3 1-3 1v1l-1-1v-1l1-1m-132-29l-2 1v-1h2m272 30l1 2 1 2-1 1-2 1 1-6m0 0h1l1-2 1-1 2 2h2v2l3 8v7h-1l-3-5v-2l-2-1-1-2 1-1-1-1v-3l-1 1-2-2m-140-1l-2 1h-2l1 2-1 1-2 2h-2l2-2-2-1h-1l-2-1 1-3-1-1-1-1 2-3 2-1h3v2l1-1v-4h2l3 1 1-1-1-2 2 2h2v1h2l1 1-2 1 2 2h1l-1 1v2l-2-1h-2l1 1-1 1h-1l-2 1h-1m134-7v1l-1-1v-2l1 1v1m6-2l-1 1h1l1-1 1-1h3l1 2-1 1 1 1 1 4v1h-2l-5-4v2l1 1v2l-1 1h-1l-1-2-1-2-1-1-1-1-1-1v-1l1-2-1-1h1l1-1h1l1-2 3 2-1 2m8-5l2 1v1l-2-1-1-1h1m3 2v1l3 4h-2l-1-3v2l1 3 2 1 1 2-1 2-1 1v1l-2 2-1 1-1-1v-5l-1-4v-1l-1-4-2-3v-1l2 1v2l2-1h2m-144-6l2 2v-1l1 1 2 1-1 2h-1l-5 1-1 1-2-2v-2l2-1 1 1 1-1-1-1 2-1m0 0v-2h2l-1 2h-1m-61-15l-2 3h-2l1-2 3-1m105-10l2 1-2 2-2 2v1h-1v2l-3 1v-2l2-2 2-1 2-4m-140-23v1h2l1 2-1 2v3h-4l-1 2-1-2-2-1-2-3h-1l-1-1v-3l3 1 1 1 1-2 1 1 1-1h3m145 21l2 3h-3l-1-1 2-2m-11 3l1-2 1-1 1 2-1 1-1 2-1-2m-182-42v2l2 2h-1l-2-3 1-1m58 22l-2-1-1-1-1-2 3-2v-1l1-1 1-1v1h2l-1 1h2l1 1v2l-1.333.667-.667.333h-1l-2 3m124 10l1 2h-2l1-2m-114-45l-2 1v-3h1l.333.667L233 1028m2-5l1 1 1 2-1 1 1 2h-1l-1-1-2-1-.667-.333L231 1026l1-2 2-1h1m6 1h-2v2h-2l-1-1-1-2-1-1v-1l2-1h3l1 1 1 2v1m10-7l-1 2-1-1 1-1h1m-61-19v3h2l1 2 4-1h1l1 2v2l2 1 1 2h2v1h1l2 1v1l-1 1-3-1-2 1-1 1h-1v-1l-1-2-1-1v-2l-1-1-2-2-1-1-3 1h-1l-2-1v-2l1-2 2-2m250 111l-2-4-1 1-2-1-2-1-2-1v1l4 1 2 3 2 3-1 1-1-1-3 2h-2v-1l-2-1-4-2-3-3v-1l-2-3-3-1-2-2-4-1v-1l-2-1-1-1v-1l2-1-1-2v-1l1-2-1-1v2h-1v2l-4 2-5-1-4-2 1-1-1-1-2 1-2-1-5-1h-3l-4 1h-2l-3-2h-3v-2h-2v-1l1-2-1-1h-1v1l-2 2-2-2h-2l1-2-1-1h-2l-1-1-2 1-1-1 1-1v-1h-1l1-4-2 2-2-1-2 2h-1v-2l-1 1v1l-1 1-2-2v-2l-3 4 3 5v1l-2 2 1 1-1 1h-1l-1 2-2 1h-1l-3-1-2 1h-3l-1 3-1 1-1 2-1-1-2 1h-1l-1 2h-1l-2 1-1-1-2 1h-2l-1-1 1-3 4-1 1-1 3-2-1-1-3 3-2-1-1-2 2-4 2-2 1-2v-1l1-2-1-1v-2h1l2-1 2-2 3-1 1 2h3l3 1-1-2h-1l-1-1-2-1 2-1v-2l3-1v-1h-1l-2 1-1 2h-4v-1l-4 2-1 1-1 1h-1l-3 2 1 2h-1l-2 1v1l-2 1v1l-1 2-1 1h-2l1 2-1 2-1 1-1-1-1 3-1 1h-3v1h-2l1 1-4 1-1 5h4l1 1 1 2v2l-3 2h-2v1h-1v2h-1v2l-2 1v1l-1-1-1 2-3-1-1 2-2 1v1h-1l-1-1-2 2v1h-2l-1 1-2 1-1 1v2l-1 1-3 1h-1l-2 3-2-2v2h-1v2h-2v-1h-3l2 1v1l-3-1v1l-1-1-2 2 2 1-1 1v1l-2 2-1-2-1 2-1 1-2-1-2 1h-1l-2 3v-2l1-1-2-1v1h-2l-1 1v1h-2l-1 2h-3l-1-2-1 1-1 1h-3l1-2 1-1v-1h-2l-1 1v2l-3 2-1-1v3h-3l-1-4-1-1v4l-1 1h-2v-2l-1-1-1 1 1 1-2 2v-3l1-1 2-1 1 1 1-2 3-1v-1l3-3 4-2h4l2 1 2 4 1-3 1 1 1 1 1 1 1-1-3-2 3-5 2-1 2-1 1-1 4-1h1l3-2 1 2 1-1v-2l1-1 3-3 2-1 1-1 2-1 1 1v-4l1-2 1-3 1-1v-2l1-3 3-3 1-1-1-1h-1l-2 1-5 2-2-1v-1l-1-2h1v-3l-2 2-1 2v-1h-2v-1 1h1v1l1 2v2l-1 1-2-1-1-5-2-3-2 2-1-2-2-1 1-1-1-1-4 2h-4l-1 2-2 1-2-2h1l1-1v-4l2-1h-3v-2l1-2 2-2v-2l-1-3v-1l-1-3 1-1-2-3 2-1-1-1-1 2-1 4-1 1-4 1h-3l-2-1-2-1-1-2h1l-2-2-1-4 2-2h1l.667-1.333.333-.667h2l1-1h1v2l1 1 1-1 1-1-1-1v-2l-1-1-1 1v-2l-2 1 1 1h-4v-2h-1l-1-1-1 1-1-2 1-1-1-2-1 2-1-1v-3l-2-1 1-1 1-1-1-1h-1v-2h2l-1-1v-2l3 1v-3l1-2 6-4 3-1 1-1 2 1 2 3v-6h2v-1h1v-1h1l1 1h3l3-2 3-3h2v1h6l4-3v-2l-1-3 1-3-2-2-1-1 1-2 1 1 3-1v-3l-1-2 1-1h-1l-3 2h-1l-2 1h-3l-2 1-1 2-1 1v-3l-2-2h-1l2 2-1 1-1-1-2-2-4-1h-4l-1 1-2-1-6-3-1-2v-1l1-1v-2l-1-1v-1l3-3 2 1v1l1 2h1l2-1-2-1h-2v-1l-1-1-4-3-3-1-3-3v-2h3l1-2h3l2-1 2-1 3-1 1 1 2 1 1-1-2-1 2-2h4l3-1h5l1 2-2 1v2l-1 1 1 3h2l2 1h2l1 1h3l2 2 3-4 3 2v-1l-1-2-2-1h-2v-2l-1-2v-2l-2-1v-3h2v1l1 2v4l2 2h1l2-1 1 2 1 1 1 1h2l1-3-1-1h-2l-1-1-2-1-1 2h-1l-2-4 1-2 1-1h1l-1-2h-5l-1-1-2-1-4-2v-5l-1-3-1-3-1-2h-1l-2-3-3-4-1-1-2-2 3-4 1-3v-2l3 2h11l3-2 3-3 2-4 1-1-1-1 1-1 2-1 2-2 1-1 1-1 1-2 1 1-1 1h-1l1 1 2-2 2 1 2-1h1l3-2 1-2 2 1-1 1h1v-2h-1l3-3 1 1h8l3-1 2-2 3-3 1-1 1 1 2 1 1 1 2 1v1l-2 2h-1l-1 2h1l2 1v-2l1-1h2l2-1 1 1-1 4 1-1 1 2 2-2h5l1 1h2l2 1-2 2v2l1 1h1l1 1v1h2l1 1h1l1-1h2v2l3-1 1-1h4l2 2h1l2 2 1-1 2 2v1h3l1 1h5l1 1 1-1 2 2 2 1 3 1 1-1 7-2 2 1h1l2 2 1 2 3 1 1 1 1 1h2l2 149 4 1v-1l4 2 2-3h5l-1 4 1 1 3 1v2l9 8 1 5 1-1 4-3h2v-5h1l1-3h2l3-2 2 1 2 2v2l1 2h2v1l2 1 1 1-1 1 2 2 3 2 1 1 3 3 2 4 1 2 2 2 3 5 2 2 1 2-1 2h3v3h2v3h2l1 1 4 1 2 1 2 1h1l1 2h2l1 1v2l-1 2 1 1v1l2 5-1 2-1 1-1 2-1 2-3 1-2-6 1-2v-6l-4-4-1 1-2 1-1 2v2l-1 1v1l-2-1v-3l1-1v-5l-1-2-3-2 1-2h-2v-1l-3-1-1-2 1-1v-1l-2 1-1-1h-1l-2-1v-3l-1-2-1-1v-2l-2-3-2-1v-3l-1 1-1-.667-2-1.333-1-1-1-1-3-5-1-3v-2l-2-2v2l1 4 1 2 1 2v1l1 4v1h-1l-2-2-1-1-3 1 1-2"/></g></svg>