<svg xmlns="http://www.w3.org/2000/svg" version="1.2" baseProfile="tiny" width="2000" height="1200" viewBox="0 0 2000 1200" stroke-linecap="round" stroke-linejoin="round"><g fill="none" stroke="#000"><path d="M1301 708l-1 2 3 1v2h-3l-1 1 2 2-2 1-1 1-1 2h-3l-2 1 1 2 1 1 1 1 1-1v1l-2 1-1 2v1h1l1 2h-1l-1-1-2-1-1 1v2l1 1v2l-2 1v-3h-1l-1 2-2 1v1l1 1 1-2 2 1-1 2v2h-2l1 2h1l2 2-2 1 2 2-1 1h-2l-1 1-1 4-3-1-1 3M1281 756h1l2 1v2l-1 1-1 1v1h-2l-2 1-1-2h-1l-1 1 1 2v1l1 2v1h-2l-1-1 1-1-1-1-1 1 1 1-1 2h3l1 2-2 2-2-1 1-2h-1l-1 1v2l2 4-1 1v5l-3 1v3h-1l1-2h-3l-1 1 1 2-1 1-2 1v2h-2l-1-1-1 1 1 1 1 1h3v1l-1 1h-1l-2-1-1 1v1l1 1h1l1 1-1 2-3 1 1 1-2 1v-1h-2l-1 1 3 2-2 2v2l1 1 2 1v1h-6v2l2 1h2l1 2h-4l-1-2-2 1v1l2 1 1 1v1l-3 2v1l2 2-2 3h1l1-1v-2l2 1v2l-3 1 1 1h1l2-1v-2h1v1l-2 3v3l1 3 1-2h1v1l-1 1v4l-2 1-2-1v2l2 1 1 1v1l-2 1M1254 848l-34 2h-25l-10 1h-19l-21 1M1145 852l-1-25-1-1-3 1v-1h-4v1l-5 1-1-2-2-1 1-1h-1M1128 824v-86l-3-16-3-19-1-11M1121 692h27l27-1h11l13-1h3l26-1h9l20-1 26-2v1l1 3 2 1 1 1-1 2 1 1-1 2h-1v2l-2 1-2 1v2l-1 1h-1l-1 2v1l-2 3 17-1 8-1M601 638l-6 40-5 34-4 31-6 43-2 16-4 27-8 56-1 10M360 796l2-1 2 1h4v-2l1-1 2-1 1-3-1-1 1-2h-1v-3h-4l-2-1v-2l-1-1 2-3 1-2-1-1 1-2-2-1 2-3-1-2h3l3-3 2-1 1-1v-2l1-1v-3h1v-2l1-2-1-2v-1l2-1-1-1v-2l1-1h1l2-2 1-3 1-1 4-1 1-1h1l4-3h2v-2l-1-2-2-1-1-2-2-3-2-1 1-3-1-2-1-1 1-4-1-2-1-1-1-2-1-3-1-2 1-6M384 694v-1l2-2-2-1 1-1h2l1-2v-11l-1-2v-3l1-1v-2l1-2-1-2v-7l1-1v-1h2l-2-4v-3l1-1-1-3h3l2-1h5v1h3l2 1 1 3v1l1 1 1 1h3l5-6 1-1 1-8 3-15 2-13M422 608l14 3 24 4 9 2 26 4 22 4 4 1 28 4h1l26 4 25 4M796 474l16 2 15 1 16 1 21 1-1 12-2 34M861 525l-4 60-2 34-1 14-2 30M852 663l-17-1-17-1M818 661l-30-3-18-1-24-2-4-1-39-4-14-1-10-1-1-1-17-2-32-4-15-2-13-1M601 638l2-18 1-7 3-17v-3l1-8v-6l3-20 1-7 2-11 5-34 3-26 1-8 3-18M626 455l13 2 22 3 13 2 20 2 19 2 10 2 24 2 18 2 17 1 14 1M1228 367v2l1 2v3h1l2 2 2 2v1l-2 2-1 2-1 1 1 5 1 3v3l2 1v2l1 3v1l3 1v1l3 1 4 1h2l1 2 2 2v2M1250 412l-1 1 2 1 1 1 1 1 3 1 2 3-1 2 2 2 6 3 1 1 1 1v3l1 2-1 2 1 1-1 6-3 2-1 1v2l-1 1v4l-2 2-2 2h-4v1l-2 2h-3l-4 1-2 1h-4l-1 3v3l-1 3 3 3h1l2 3v8l-1 1-3 4v2l-1 2v3l-2 2h-4l-2 1-1 2v1l1 2v5l-2 1M1228 511h-2l-1-1v-3h-2l-2-2v-1l-2-1v-1l-2-1-12 1h-14l-6 1h-7l-13 1h-10l-18 1h-58M1079 505v-1l-1-2-2-1v-1l-2-2 1-1 1-1v-4l1-1-1-1v-3l-1-1v-7l1-1-1-1-2 1v-1l1-4h1l-1-2h-1l-1-1 1-1v-4l-3-1 1-2v-1h-1l-1 2-1-1v-2l-1-2v-2l-1-1 2-2h-1l1-3-1-2-2-3 1-1v-3h-2v-1h-1v-2h-2v-1l1-2h-1l-1-1-1-1v-3h1l-1-2-1-1v-1l-1-2v-3l1-1-1-2h-1M1056 418h-1l-1-4v-3l-3-3h-1v-4l1-2 1-1 1-3 1-2-1-1 1-1-1-2 2-1v-1l1-1-1-2v-3h-3l-1-3h2v-5l-2-2v-3h5M1056 371h81l16-1h24l30-1 21-2M1357 441l2 18 2 22 1 15 1 16 1 13 2 24-1 1-1 1v2l1 1v2l-2 1v3h1l2 2v3l2 1 1 1v1l-1 2v1l1 1v1l1 1v4l-1 1-2 1-1 2v2l-1 2 1 1-1 1-1 1h-1l-1 1 1 1v1l-1 2-1 1-1 2v1l-1 1h-1l-2-1v2l-1 1v1l3 2-1 2-3 1 1 1 1-1v2l-2 2 1 2-1 1 1 3h-3l2 2 1 1v1M1355 621l-1 3-2 2-1 2v1l1 3 3 2v2h-2l-6 2-1 1-1 1-2-1-2 1v1l-1 3v3l2 3 1 2-1 4h-3l-3-2-2-1h-1l-3-2-5-1h-2l-1 1-2 2-1 2-2 3-1 1 1 2 1 1"/><path d="M1318 662h-2v-2l-2-2h-2v1l2 1-1 2-1-1-3-1v-3l-1-1-2-3v-2l-1-1-1-1 1-3 2-1v-2l-1-1-1-2-2-3v-2l1-1-1-1v-3h-1l-2-1-2-1-1-1v-1l-2-2h-1l-2-1v-1l-2-1-1 1-1 1-2-1-1-2h1v-1h-2l-1-2-3-1v-1l-2-1-3-1-1-2-2-1-1-2-1-3v-2l1-3 2-2v-4l1-2 2-2v-3l-1-2v-1l1-2 2-1v-3l-5-3h-2l-4-1h-2l-3 4-1 1-1-1-2-2v-3l-1-2v-4l-1-1v-3l-1-2h-1v-2l-2-1-2-1-1-1-3-2-2-1-1-1v-1l-2-2-1-1-2-2-1-1-2-2-3-3v-2l-1-1-2-2v-5l-2-3v-1l-1-3v-6l1-4 1-2M1250 412l7-1h16l9-1 15-1h15l5-1 14-1 14-1M1449 432l1 15 5 35 1 15 2 12 1 9 1 12 1 13 1 7M1462 550l-2 3 2 3v1l-1 2 1 1h2l1 1-2 1 1 3h-3l-2 1h-1l-4 2-1 2-1 1-2-1-1-1h-6l-1 2v1l1 1v2l1 2v2l-2 1v2l-3 1-1 1-1 5-1 1-2 2-2-1-1 1v2l-1 1-1 2v6l-1 2h-2l-1 2-2-2h-5l-1-1-1-2v-2l-1-1-2-1-1 1h2v2h-2l-1 1-1-1-1 1 1 1v2h-2v4l1 1-1 1h-2v2l-2 2v-3h-1l-2 1-1-1-2-3-1-1-1 1-2 2-2 1-1 1-1 1v1l-1 3-1 1h-1l-1-3h-2l-2-1-3-1-1-1h-3l-2 2-2-1-1-2-1 2 1 2v2l-2 1-1-1 1-2-1-1-3 1-1 1h-1l-2-2h-1l-1 2 1 2v1l-1 2-2-1h-1M1380 436l11-1 29-3 20-2 8-1 1 3M1095 532l2 2 1 1v1h2v1l2 1h2l1-1 2-1 1 1-1 2 3 1-1 1h-1v2l2-1v2h-4v2l-1 1-2 2v2h-1v2l2 2v2h2l2 3h2l-1 1v3l3 2v2h1l1 2h1l2-1 1 2 1-1 1 1-1 1 1 14v84M1120 670h-87l-20-1h-26l-29-1-16-1h-20l-22-1-16-1-15-1-17-1M861 525l15 1 24 1 15 1 24 1 15 1 22 1h31l27 1h61M1318 662l2 1-1 3v2l-2 1 1 1 1 1 1 1h-2l-1 1v1l1 1v2l-1 1v2l-1 1h-1l-1-1-1-2-2 1-1 6m-3 0l1-2-1-2h-2l-1 1v1l1 2M1310 685l-2 2-1-1v-1m-2 0l1 2-1 1 2 2v2h-3l-1 2 3 1v1l-2 1-1-1-3 1 4 3v2l-2 2-1 3v1M1121 692l-1-22M1095 532l-2-2h-2v-4h-1v-2h-1v-2l-1-1-2-1v-1l-3-2 1-1-2-3v-2l-1-1v-1l1-1 1-1-1-1h-1v2h-2v-3M796 474l1-18 6-73M803 383l18 2 24 1 33 3 19 1 25 1 16 1h15l22 1h13l1 3 3 2 1 1h2l2 1 3 2 3 2h2l2-1 1-3h2l1 1h1l1-1 1 2 3-2 1 1 3-1 1 1 1-1 2 1 2-1 1 1h1l1 2h1l2 2h5l1 2 1-1 2 1 2 1v1l2 1h1v2l1 2 1 1 1 2h1l1-1 1 1v1h3M818 661l-2 22M816 683h-1l-2 21-3 39-1 21-2 26-1 7-2 29-2 19-3 44-26-2-12-1-16-2-21-1-11-2-20-2-31-3v4h-1v2l2 3 .882.882.118.118h1M466 383l-1 5-3 18-6 29-4 19-10 52-7 37-2 8-3 20-3 10-3 17-1 5-1 5M384 694l-5-7-12-19-25-37-7-11-16-24-7-10-10-14-8-13-13-19-11-16-28-43-6-9 3-14 2-6 7-29 6-20 7-28 9-36M270 339l22 5 21 6 6 1 26 6 23 5M368 362l10 2 17 4 19 4 19 4 9 2 16 3 8 2M1128 824l-2 1-1-2-3-1-1-1h-3v-1l-2-1h-3l-3-3-1-2h-3l-3-3-1-1-2-1-1 1v2h-1v1h-11v-2l-1-1-2 2h-1l-1 1-2-1-1 2h-1l-1 1-4-2v1l-3 1h-5l-1 2v1l-2 1-1-1h-2l-1 3-1 1v-1l-2-3h-3l-1-2h-2l-2-1 1-3h-1l-1-1-2 3-3 1-1-2-2 1-1-1v-3l-2-1-1 1v2l-3 4h-1l-1 1 1 1-1 2h-2l-1-1-1-3 1-1 1-1-1-2-1-1-1 1-1 1h-3l-1 2h-2l-2-1 1-1v-2h-2l-2 1-2-1 1-2-2-1h-2l-2 2h-1l-1 1v2l-3 1-2-2h-2l1-1v-4l-1-1-2 1h-2v-2l-1-2 1-2v-1h-1l-2 1h-1l-1-1h-4l-1-1-1 1-1 2-3 1-3-4h-3l-1 1h-3l-3-2-3-1-1-1h-9l-1-5v-1l-1-2-1-2h-2l-2-2v4h-2l-1-1-1-1h-3l-1 2-2-1h-2v-1l-2-1-2-2v-1l-1-1-1-1-2-2h-1l-2 1v-3l4-86-20-1-19-1-20-1-23-2-27-2M1517 659h6l8-2 1 1 13-2 10-2 12-1 13-2v-1l10-2-1 2M1589 650l-1 2 1 3-1 1v3l1 2h-3l-1 1-3 2-3 8-1 1-1 1h-1l-1-2-1 1-2-1-1 2-1-1-2 2-2 1-2 4-1 2-2 1h-2v-3l-1-2-5 5-1 3-1-1h-2l-1 1 1 2v1l-1 1-1 3-1 1-1-1h-2l-1 1-1 1-1 1-2 1v1l-2 2h-1l-1 2-2 1h-1l-2 3h-2l-1-1-2 1h-2l-2 1-2 2h-2l-1 2-2 1-1 2-1 1 1 2-1 1v2h1l-1 2-2 1h-3l-1-1-3 3 1 11M1503 736l-25 3-18 2h-5M1455 741l-9 1-20 2-4 1-12 1-19 1-24 2h-8l1 1M1360 750l-22 2-21 1-23 2-13 1M1305 685h2m3 0l4-1 11-1 17-1 17-1 1-2-1-3-1-3h8v1l6-1 13-1 8-1 18-2 2 1 2-1 3-1h16l5-1 12-1 7-1 10-1h9l9-1h1l9-1 9-1 11-1 1-1M565 400l-3 19-4 27 23 3 32 5 13 1M466 383l23 4 12 2 9 2 20 3 20 4 15 2M1643 495l4 23 1-1 2-2 1-2h1l1-2v-1l2-1 3-4v-1l2-1 3 2v-2l1-1 2-4 1-2 1-1v2l1-1 1 1 3 1h6v-4l1-1 2-1v-1l3 1v-1l2-3h3l2 1 2 2 3-1h3v2h-1l1 2 1 1h1l1 2h1l1 2v2l1 1"/><path d="M1706 502v1l-1 3v1l-1 4-20-12v5h1l-1 2-1 3 1 1-1 2 1 1-1 3-1 1-2 3v1l-1 3-1-1-1 3-1 1-1-1-2 2-2 7-5-4v3l-1 1-1 4 1 2h-1l-1 2v2l-1 2v2l-1 1-1 3h-1l-6-1-3-4-4-1-1 1v5l1 2-1 2v1h-1l-1 1-1 2 1 2-1 1-2 3v1l-1 2 1 1-1 1v2l-1 2-2 3-2 3-1 1v1l-1 2-1 2v2l-1 2 1 1 2 1-1 2-2 2 1 2-4 3-1 2-2-3-2 1-1 1-3 4-2 1-1-1-2-1-1 2 1 2-2 1-1 1h-1l-5 2-2 1-2 2-3-2-2-2-1 1-1 2h-1l-3 4-4 1-3-2v-1h-3l-2-1-2-2-1-1v-3h-2l-1-1 2-1-1-2M1572 608l-3 1-3-1-2-3h-1l-1-1h-2l-2-3v-1l-2-2-2-2v-1l-3-2v-1l-1-2-1-1-1-2-2-2-2-1v-1h1v-4l1-1-1-2-1-2v-3M1544 571l1 1 1-1 4-2h2l1-1 1-2v-4l1-1h2l1-1-2-3 1-1-1-2-1-1v-1l2-2v-4l1-3 1-1 1-1 1-1 1 2h1l2 2-1 2 1 1h1l1-1v-2l3-1-1-1v-2l-2-2v-1h1l1-1v-2l-1-2 1-1 1-1v-2l3-1h1v-3l2-2 1-1 1-1 1 1 1 2h1l2-2 2-1 1-2 2-1 1-2 2-4 3-3 2-1-1-3 1-1-1-2 1-1v-3l1-1-1-2 2-1-1-1 1-1-1-3v-2l1-1v-5l1-2 1-1v-3l-1-5v-1l-2-3-1-2 1-2h1l2-2M1600 459l7 42 20-3 16-3M583 288l-3 20v2l-5 32-4 23-2 12-4 23M368 362l9-43 7-29 2-10v-1h2v-2l2-3 1-2-1-1v-2h2l2-3-1-1-2-1 1-2h-3l-1-2h-2l-2-2 2-1-1-2v-2l1-1v-2h1l1-2h1l2-3 1-2 2-2v-1l1-1h1l2-1 2-2 1-1 2-2v-3l1-2 1-1 2-2 1-1 2-4 1-2 1-2 4-4 1-1v-2l2-2 1-1 1-1v-2l-1-2v-2l-1-2-2-1-1-2-3-1v-2l-1-2v-2l-1-2M411 185v-5l1-3v-6l-2-3 1-3 11-47 3-16 3-12 3-12 1-5 5-22M466 58l-9 45 1 3 2 4 1 1v3h1v1l2 2-1 2 1 1v2l-2 1 1 2v2h2l-1 1h-3l5 6v2l3 2h1l2 1 1 2-1 1 1 1 1 1 1 1 2 5 1 4h1l2 3v4l1 1 1 1 1 1 1 1-1 2 1 1 1-1 1-1h1l1 2-1 1v1l1 2 1-1 3 1 1-1h3v5l-1 1-1 1-1 1v2l-1 2-1 1v1l-1 2v1l-2 1 1 1-1 3h-2v2h1v1l-1 3 1 2 1 1v1l-1 1 1 2-1 1h-3l-3 3v1l2 2v1l-1 2h-2l1 2h-1l1 2h1l1 2 2 2 1 1h2l1-2v-1l2 1v-1h2v-1h2l1-1 1-1 1-2h2v1l1 2v1h1l2 1v1l-2 3h2v2l-1 1 1 3-1 3 2 2-1 1 1 2 1 1 1 2v3h2l-1 1 2 2v4l-2 1v3l1 2 2 1v2l3-1h2l3 5-1 1 1 1v3h-1l1 2v1l1 1-1 1v3l2 1 2 2 1 2 1-1-1-2 3-3h2l2 1h2l1 1 2 1 1-1 1 2h1l1-2 1-1h1l1-2 2 1v1l1 1h2l1 1 2-1 2 1 1-1h3l1 3 4-2 3 1 1-1 1 1 1 1h1l-1-2v-1l1-1v-1l1-1v-1l1-1h2l1-1 1 1 1 2 1 2 1 2h-1v2h2l1 4 2 1M827 111l-2 23-2 22-1 6v6l-2 24-3 31-2 26M815 249l-1 9-1 17-2 17M811 292l-22-2-23-2-15-2v1l-11-2-12-1-14-2h-2l-16-2-28-4-18-2h-1l-21-3-11-2h-3l-5-1h-1l-10-1-3-1-8-2-1 7-2 10-1 7M1033 121v3l1 2 1 3v1l1 3v1l1 2v1l-1 1-1 3v4l1 3-1 1v1l1 2v2h-1l1 2-1 4 2 2v1l1 2v3l1 2v2l1 2v1l2 2v3l1 1v3h1v11l1 3-1 1 1 2h-1l1 3-1 1 1 2v6l2 3-1 1v2l-1 1 1 2v2l-1 4 1 1 1 2v4l1 1v1l1 3h1l2 2v7l1 3v2l-1 2 1 4M1053 260h-40l-16-1-28-1h-18l-13-1-28-1-12-1-16-1-22-1-24-2-21-2M1053 260l-1 5-2 3v1l-5 3-1 1-1 3 3 3 1 3 2 2h2l3 2 1 1 1 2v82M803 383l4-39 3-46 1-6M1852 201l-1 2h1l1 2h1l-2 5v1l-1 3 2 2 1 1v1l1 2v5l-1 1v1l-2 2-2 1v3l-2 1h-1l-1 1h-1l-2 1 1 1-1 1 1 2v2l1 1v2l1 2-2 4 1 2v1l-1 2v7l-1 1-1 2v4l-1 2v3h1v6l1 3v8l1 1 1 1-1 2 1 1v2l-2 2 1 1-1 2v1l1 2 3 2 1 1M1848 310l-15 3-11 3M1822 316l-2-3v-1l-2-9-2-10-2-12-1-2h-2v-2l-2 1v2h-2v-5l1-2v-2l-2-2v-3l-2-2-1-4-1-1v-7l1-3v-2l-1-3v-3l-1-3-1-2-2-1-1-1v-9l-2-1v-3l1-1-1-2-1-1 1-1M1404 963v-1m2-9v-2l1-2v-5l-2-1-3-1-1-2-4-3v-2l1-3v-2l13-1h5l22-2 3-1 10-1h4l10-1 14-2 10-1 10-1M1499 920v1h1v2l2 2v3l1 2v1l3 1 15-1h9l39-3 19-1 21-2v2l1 2v2l1 2 1 1h5l1-1-1-2 1-3-1-2v-4l-1-1-1-2v-3l2-2 1-2 4 1h4l1 1h2l3 1M1145 852l1 46 1 1 2 3 3 1v1l1 2 1 1 1 1-1 1 2 3-1 1v2l-1 1 1 2 1 2h3l-1 2 2 2v1h1v4h-1l2 2 1 1v1l1 3 2-1v3l-1 1 2 3v1l-1 1v1h1v2h-1l-1 2 1 2-1 1v2l-1 1v1l-1 2-2 2 1 2h-2l-1 2 2 2-1 2 1 1-2 2-1 2 2 2 1 1v2l-1 1 1 4v1l-1 1v2l-1 2-1 1-1 3-2 2-1 2-1 1 1 2v1h1l1 2M1455 741l3 11 6 19 4 14 6 23 5 17 3 11h1v2l2 2-1 1h1l1 3 1 4 3 2 1 1v3h1v4l-1 2 3 1 2 1-1 1v1h-2l1 1-2 1-2 3 1 2v5l-2 6v3l1 2v2l3 3 1 2v7l-1 3 1 2-1 2 1 2v3h1l1 2h1l2 4v1M1369 961l-3-28-3-22-1-10-1-9v-16l1-23v-45l1-14v-27l1-5v-8l-2-1-2-3M1503 736l7-1 18-3 5-1 14-2M1547 729l1 1-2 3-3 4-2 3v1l-1 2v1l2 1 3 3 2-1 1 2h1l3 3 2 1 2-1h2l2 1v2l1 2 2 1 1 2h1l1 3 1 3h2l1 3h1l1 2 2 3 2 1 2 1 2 1 3 1 3 3 1 1 1 2 1 1 1 2 2 1h1l3 1 2 1 1 2 2 1 1 1-1 1v2l1 2h1l1 1 2 1-1 1 3 1 1 1v1l1 1 2 1 2 1h1l2 1 3 1v3l1 2 1 1 1 1 1 2v2h1v3l2 2-1 2 1 1 3 1h1l1 1 1 1 2 2v2l2 1v1l2 1 1 2-2 2 2 3 1 3M1254 848l-1 2v2l1 1h1l1-1v-3h1l1 3v2l-2 2-1 3 1 2h3v2l-2 1-1 1v2h1l3-1 1-2v1l-1 2-1 2 1 1h1l1 2-2-1-1-1h-1l-1 1 2 2 2 1 2-1v2h-1v2l1 1h3v2l-2 1-1-1 1 2-1 2-2-1-1 1h-2l-2 1v3l3 1 1-1 1-1h2l-1 1v1l-2 1-1 2-1-1h-1l1 1h2v1l-1 2h-2l-1 1v2l-2 2-1 1 1 1v1h-1l-1-2-2 1v4l3-1v1h-4l-1 2 1 3-1 1h-2l-1-1-1 2 1 1 3-1v2l-2 1h-2v3l1 2 1 1v1l-1 1-1-1-1-2-1 1 1 3 2 1v2h-1l-4 1v1l2 1v2l-1 2v1l2 1v3l-2 1 22-1 20-1 11-1 21-2v2l-1 1 1 1-1 1-1 4-1 2v2l-1 2 2 2v2l1 1 1 3 2 1 1 1 1 2 2 3v4l1 1 2 2h2M1723 754h1m-177-25l12-5h1l1-1 4-3 3-1 1-1h2v-1l1-1 1 1h2l1-1 8-1 11-1 21-2h6l1 1-1 1 1 2 3-3 7 7v5l24-4 9-1 9-1 9 6 16 12 23 16M133 300l7 2 9 3 10 3h2l7 2 3 1 5 2 9 2 8 2 7 2 5 2 14 4 7 2 7 2 3 1 13 3 11 3 10 3M1877 336l5 16 2 11h-1l1 2v2M1827 397v-1l-3-3 7-7-3-3-3-15-1-6-2-11v-3M1822 348h2l12-3 8-1v1h2v-2h2l4-1 1-1 13-3h2l9-2M1732 516l-1-1M1731 515l2-3 5 4-3 4M1779 478v1m-2-6l1 1M1807 522h-1m-1 0l-10 2-11 2-15-52v-4M1769 470l1-3 2-2 2-1 3-1h2l1 1M1572 608l-5 6-6 7-1 1-3 2-4 2-2 3-3 2v4l-2 1-1 1-1 1v4l-3 2-4 1-1 1v1l-1 1v2l-2 1-5 2-2 2h-3l-1 1-2 1h-1l-2 2M1462 550l1-1 1-1h1l2 2 2 1h1l2-2h1l1-1h1l1 3h2l3 1 1 3 2 2v4h3l2 1h2l2-1h2l3 1 1 2h1l2 2h1l2 1 1-1v-1l4-2 2 1h3l2 1v1h2l1-1h3l1-1v-2l2-1 1-2h2l2-1h1v2l1 1 1 3 2 2 2-1 2 1 1 2 2 1 1 2M1906 353l-2-4-1-3h-2m-1-1l-2-2h-3l-1-2v-4l-2 1-1-6-14 4M1822 348l-1-1 1-31M1848 310l15-3 22-5h1l1-3h2l-1-2 2-2h2v-3l2-1 1-1h2l1 1 1-1M1777 551v1m2-1h-1m22-7l-9 3m-60-32l-2-1h-3l-1-2-3-1h-5l-1-1h-1v-3l1-1v-2h-1l-2-1-1-2-2 1-2-1-2 1M1643 495l16-3 31-6 20-4 18-3 29-6 12-3M1796 613h1m-5 1h1m0 0h2m-206 36l11-1 3-1 10-1 6-1 5-1 15-1 6-1 20-4 11-2 21-3 6-1 9-2 4-1 15-3 20-4 8-2 4-1 18-3 10-2M1791 453l2-4 2-1 2-1v-2h2l2-2-1-1h-1l-1-2-2-1-2-2-3-1-1-2-1-1-1 1-2-1v-2l-1-3-1-1h-2l-1 1-1-2v-3l-1-1v-4h2l1-2v-3l-1-1-3-3 1-1 2-3 1-3 2-2 1-2v-5l2-3 2-1M1789 389h1l8 3 4 1 16 5 1 1M1789 389v-1l-2-1v-1l-2 1h-1l-4-2h-2l-1-2-3-3h1l-2-6-1-1v-1l-2-2h-3l-2-1-1-2h-1l-2-2-13 3-29 6-17 3-15 3-5 1-22 4-7 2h-2l-8 2h-4l-19 4-5 1-2-13M1449 432l15-2 20-4 9-1m0 0l1-1M1590 399l10 60M1246 227l1 1 2-1 2 2h2l2 3v1l1 2v1l7 2 23 4 3 1 8 4 2 1h1l1-1 1 1h1l1 1h1l1-1 2-1 1 1h1l1 1 2-1 2 1 5 1 2 1v1l1 1-2 2 1 2h1l3-1 1 2h2l1 1h1l2 2-2 1 2 2v6l-2 2 1 1-1 3h4l2-2h1v2l-1 2-1 4v1l2 2 1 1h1M1228 367l-1-2v-1l-1-2v-4l1-3-1-1-1-2-3-4-1-1-1-2-2-1h-3l-2-2-2-2-4-2-2-1v-3l-2-4-1-1-2-1h-1l-2-1-4-1-2-2-1-2-1-1h-3l-2-1-1 1-1-2-2-1v-1l-1-1-3-2-2-1 1-4v-9l-1-2 1-2v-8l2-2-1-1 2-2v-2l-1-1-2-2v-2l-1-1-2 1-2-1v-6l2-2 1-1 1-2 1-4 2-2h3l1-2 2 1 1-2 1-1h1l1-2h1l-1-26h1l2-1M1896 278l-1-3-1-1-3-2-1-1h-1l-2-3v-1l1-1-1-2v-3l-1-1-3-9-2-6-6-18-5-18-4-11-3-11-1-2M220 127h3l1 2 1 1 1 2 2 1v3l1 4v4l-1 2v4l-1 2v2l3 3h2l4 3h2l1 2 2 1 4-1h5l1-1h2l1-1h3l3 1h6l1 2 2 1h2l4 2-1 3h2l3-1h1l1 1h2v1l3-1h5l2-1 3 1 1 2 4 1h5l2-1h3l4-1h9l2-1 2-1 1 1 6 1h3l2 1h2l4-1 1-1 24 6 7 2 16 4 4 1 13 3M565 895l-8-2-24-3-22-3-15-3-9-1-31-18-43-25-58-35 1-4 1-1 2-2 1-2M1345 406v5l-1 1v3l1 1 1 3 3 4 1 2 1 2 2 6 1 2 2 3 1 1v2M1357 441l2 1 2-1v1l-1 1 5 1h3l3-2 3-1 4-2 2-3M665 886l-1.118-.118L646 884l-11-1-18-2-17-2-2 20-19-2-3-1-11-1M437 51l16 4 13 3M466 58l24 4 6 2 21 4 8 2 11 2 28 5 36 6 21 3 16 3 19 3 26 3 25 4 18 2 27 3 9 1 19 2 13 1 14 2 20 1M827 111l18 2 16 1 14 1 14 1 23 1 26 2h18l14 1h14l20 1h29M1795 216l8-3h3l4-1 7-2h2l4-1 4-1 12-3 5-2 8-2"/><path d="M1666 1191h1l1-1h1l-1 1-3 1 1-1m8-3h-1 1m-2 0v1l-1 1-2 1v-2h2l1-1m2 0h1v-2l-1-1 1-1 2 2v1l-2 .667-1 .333m3-5l2 2h-2v-2m20-4l-3 2-1-1 2-1h2m-15 3l2 1-1 1-1-2m12-27l1 1-.75.75-.25.25-.5-.5-.5-.5 1-1m30-9l-1 3-1 3-1 3-1-1 1-1 1-1v-3l1-1 1-2m-44-11l1 1-1 1-1-1 1-1m-19-4l1 1v1l-1-2m1-2l1 1-1 1-2-1-1-1h3m-25-21h3l2 1 1-1 1 1-2 1h-2l-3-2m0 0v-1 1m2-7h2v2l-1-1-1-1m0 0l1 2 2 2v2h-1l-3-6-1-1-1-2h1l2 1v2m65-54l2 3 1 2h-1l-1-3-1-2-1-1-1-2-1-2-1-2-1-1v-1l2 3 2 4 1 2m-16-35v5l2 5 1 4 1 2 2 3 .571.714L1698 1036l-1-1-1-1-1-1-.429-1.286L1694 1030l-2-2-1-1-2-4-1-3v-1l-1-2v-2l1-1-1-2h1m-15-24l1 2h-1v-2l-2-1 1-1 1 2m-172-8h2l-1 2h-2l-2.87-1.913-.13-.087h4m159-11l7 11 3 4h-1l-1-2-3-5-1.5-1.5-.5-.5-1.333-2-.667-1-1-3m-11-17l1-2 1 1 1 3h-2l-1-2m-245 10v1m244-17l-2-2v-3l-2-2-1-3-1-1v-2l-1-1v-2l1-2v2l1 3 2 5 3 6v2m-9-23l2 1v2h-1l-.5-.5-.5-.5v-2m86 198l-1 2v5l-2 1-1 4-1 2 1 2-1 2v2l1 2v1l1 1-1 3h-1l-1 2-2 2-2 2-1-1h-2l-1 2-1 1-1 1h-1l-1 1h-7l-1 1v1l-3 1h-3l-2 1v-1l-2-2-2-1v-2l1-3 1-1 1 2 2 2 1.5.5.75.25.75.25h3v-2l-1-1-2-3-3 2-1-2-1 1-3-2v-1l-2-2-1-2 1-2h1v-1h1l1 1 1 1 1-2h-3v-1h-1l-1 2h-1l-1 1-2-4-1-2 2-2 1 2 1-1-2-2h-2l-1 1v2l-2-1-1-2-1-1 1-1v-1l-3-1h-2l-1-1h-2l-2 1-1-2h-3l-1-1-2-1v-1l-2-1-2-2-1-5-2-6-1-4h-3l-2-1-1-1 2-2 1-2 1-3 3-3-2 1-2 2-1 1v3l-1 1-1 1h-2l-1-1v-2l-2-3v-2l1-4-1-3-1-1-1-1h1l2-3-3 1h-1l-1 2h-2l2 3 1 3h-4l-3-1-2-2v-2l-5-5-1-3-1-1-1-1-1-2-1-2-1-3-2-3h-1l-2-1v-3l-1 1-1-1h5l-1-1v-3l1-2 1-3 2-1-1-1 2-1v-1l1-2v-1l-1-3h-2l-1 2 1 2h-3v-5l-1-1h-2l-3-2-1 2v1l-1 1 1 1 3 1 2 1v1l-1 2v4h-2l-2-1-1-2-3-1-1-1-1-3h1l1-4v-5l-1-3 1-3 1-5v-2l1-2v-7l-1-4 1-2-2-1h1l-2-3-2-2 1-1h2v-1l-2-2-2-1-1-1 1-1-1-2-2-2-1-2h-7l-2 1-1-1v-1l-1-3h-4l-1-4-2-2h-2l-1-1-3-2h-1v-1l-1-2v-3l-1-1h-2l-1-1-3-1-2-4-1-1-1-1-2-2h-2l-2-2h-1l-4-1-5-3-4 1-2 1-1-1h-3v2l-1-1-2 1-1 3h1v1h-3v1h4v2h-4l-2 1h-1l-3 2-1 1-2 1-3 3-4 3h-1l1-3h-2l-1 2h-1v2h-4l-4.667 2-.203.087-2.13.913-2-1v-5l-1-1v-1l-2-2-2-2h-3v-1l-2-2h-2l-2-2-3-1 1-1 2 1 1 1 1-1 1 1 1 1 1 1v-3h-1l-1-1-2 1-1-1h-1l-1-1h-1l-2-1 1-1 2-3h-1l-1 2-1-2-1-1h-1l-3 1v1l1 1 2-1 1 2 1 1 1 1-1 1-7-4-6-2-4-1-4-1h-10l1-2 1 1h5l1-1 2 1v-2l4 2h1v-2l-1-1-1-1-1 1-1-1-1-1-2 1h-1l-3 2h-1l-1-2-2 1-2 1v1h-1l-1 2h-4l-9 1-6 2v-1l3-1 1-1 2-2h-1l-2-1v-3l-1 1-1 4h-2l1-2-2-1v-1l-1-1-1 2 1 1v4l-3 1-1 1 1 2h-3l-2 1-1 1h-1l1-2-1-1v-1h1l2-2v-1h-2l-2-1m226-38h7v6l1 1h-2l-1-1-1 3h2l1-1 .5 2.5.5 2.5h-3l-1 1h-3l1 2-1 2h-1l-1 2 1 1 1 1-2 4-1 2 3-1v4l1 1 3 2v2l1 3 2 3v3h-2l-1 2h1v2l2 1-1 1-1-1-1 1v1h-1v1l1 1v4h2v1l-1 1 1 2v1l1 1 2 4h1l2-1v-1l-1-1 1-2-4-3h-2v-2h-1l-1-4-1-1v-1l1-1h2l1-1v-2h-1l-1-2h2l1-2v-1l1-1-2-1v-3l-2-1v-4l-4-2v-2l1-1-2-2 1-1 1-2-2-3v-2h1v-3l3 1 1-2h1l2 1v2l1 1v2l1 1 1 3 2 2v3l2 2 1 3v3l2 2 2 4 1 1v2l2 3 2 2 1 3h1l1 2v2h1l1.5 2.5 1.5 2.5 1 1 2 4 1 1 1 1h1v2l2 3 3 5 3 3 1 1 2 2h2l1 1 2 2 2 3 1 3-1 1-1 1v-6l-1-1-1 3-1 3v3l-1 2-1-2v-3l-1-2v-4l-3-1-1-3h1l1-2-4-2h-1l2 6 1 1 1 3 2 4 1 3 3 5 2 3 3 5 3 4 5 7 3 4 1 2v2l3 6 2 3 2 3 3 5 1 2 2 1 3 4 2 4 2 6 1 9h1v6l1 10-1 3 1 4v9M1021 1159v-2 2m-4-17l2 6-3-2 1-1-1-2-1-2 1-1 1 2m-2-4h-1 1m2 4l-1-3-1-1-1-4v-4l2 8 1 4m-3-12v-14l1-1-1-1 1-5 1-1v-2l2-4 1-1 1-3h2l-3 5-2 5-2 6v3l-1 4v9m8-32v-3l1-2 2-1-2 3-1 3m14-20l-3 4-3 3-2 2 1-2 1-1 1-2v-1h1l2-2v-1h2m0-5l1-1-1 1m0 5l-1-2h2l1-1v-2l1-1h3l2-2 2-2 2-1 1-1h3l1-3 2 1-1 1-2 2-4 2-4 3-8 6m83-57l1-1h1l-2 2-10 7 3-3 1-2 3-2 3-1m0 0h-1l-1-1h2v1m-5 1l-1-1-1 1-1 2-2 2-2 1-4-1v1h1v3l-1 1v1l-1 1v1l-4 5-3 3-3 1-8 4-3 1-2-1-6 2-1 3h1l6-3-1 2-3 1-4 2-4 2-5 3-3 2v-1l6-4 2-1 2-1h2v-2l-2-1-4 2-2-1-1 1-1-1 2-2-1-1h-2l-2 1v2h-2v-1h-2v3l-2-2-1 1-1-1h-2l-1-4-2 1h-1l2 3v1l1 1 2 2 1 2h2l2 2 1 1h-2l-2 2-3 1-3 2h-2l-1-1v-3h-2l-1 1-2-2-1 1 1 1 2 1v3l-1 1 1 1-1 2-1 1-3 2-1 1-1-2 1-1-1-2-1 1 1 1-1 1v2l-2-1v-2l-4 2-1-1h-1v2l-2 2 3 1v1l2-1h1l1-1h1v2l-4 4-1 2-2 3v1l-3-3-2 1-1-1-6 1v1h4v2l1 2 2 1 3 2-2 3v1l-1 1-1 4-1 2v1l-2 4-3 1 1-5-2 2-2 2h-2l-2-1v-1l-2-2 1 3 2 5h3l4-1h1v3l-1 1v3h-1v5h-2l-1 1v6l1 1 2 3v2l1 3 1 3v4l-1 1 1 1-1 1h3v3h2l-1 2v2l1 1 1 2v4l1 1h3v1l-1 1-1 1 2 1h1l1-1v3h-3l-2 1-4 1v3h-3l-1-2h-2l-2-2-1-2-1 1-1-2-1-2-3 1-3-1v-1h-7v-1l-2 1h-1l-3-1-1 1-2-1v1l-1-1h-1l-4-3v-1h-2l-2-2v-1h-3l-2-1-1-1-3 1-1-1-3-2v-1h-1l-1-2h-6v-1l-1-1-2 1v-1h-2l-2-1 1-2-1-3h-2v-4l-1-2v-3l-1-1v-2l-1-2-1-1-2-1v-1l-1-1-1-2-1-2h-1l-1-2 1-2v-2l1-1-1-2v-2l-1-1h-1v-1l-2-1 2-1 1-3-1-1 1-2-1-1h-1v-5l-2-1-1-1-1 1h-1v-1l-2-1-2-3h-2v-2h-1l-1-1v-1l-1-1v-3l-2-2v-2h-2v-1l-1-2-1-2-1-2-3-1-2-1-1-3h-1l-1-2v-1l-1-2-1-2v-2l-1-2 1-1h-2l-1-2 1-2-2-1v-1l-2-1v-4l-1-2v-2h-2l-1-3-1-2v-2l-1-3v-3l-2-1-2-2v-1l-1-2-3-2v-1l-2-2-3-1-1-2-1-3h-1l-2-1-1-1-2-1-1-1 1-1-1-3-1 1v1l-1-1v-2h-1l-1-2-1-1v-3l-2 1-1-2-1 2h-2l1-2h-2v1h-5l-3-1h-1l-2-1h-4l-1-1-3 1h-2l-2-1-1-2h-3l-1-2-2 1-2 4h-2l-2-1-3 2v-1l-1 1h-4l-1 2v1l-1 1-1 2-1 1v1l-2 1v2l-1 2v2l-1 2h-1l-1 3v1l1 1-1 1-3 1-3 3-2 1-1 1v2l-1 2h-2l-5-2-1-1h-1l-3-1-1-1-1-1-1-3-1-1-2 1-1-1h-1l-2-1h-1l-2-4-6-2h-2l-2-1-3-3-2-1v-2l-1-1-1-2-3-2h-1l-2-1v-1l-4-3-2-3v-1l-1-4-1-2-2-4v-10l1-2-1-2-1-2h-1v-1l-1-2v-1l-2-2v-5l-1-3-1-2h-2v-3l-1-1-3-2-2-2h-1l-2-2h-1l-5-3v-1l-2-2-3-3-1-1v-3l-1-1-2-1v-1l-2-1-1-1h-1l-1-2-2-4-3-2v-2l-2-2h-3l-1-1-1-1-3-3-1-2-1-2-1-2-1-4-1-2-2-1h-1l-2-1v-1m491 117l-1 1h-6l-2 1-3 1-6 3-8 3-6 3-2 1-1 2h-2l3-3 1-1h2l1-1v-1l2-1 2 1v-2h-1l-1-1-7 2-1-1 2-3v-6h-1l-1-1-2 1v-2l-1 1v1l-1 2-1 2-1 1-2-2h-1l-2-2-1-2v-1l-1-1-1 3h1l1 1v1l2 1 1 1-1 1 1 2-1 2 1 2 3 1-1 1h-1l2 2h1v2l-1 1 1 2-1 1"/><path d="M1404 963v-1m2-9l2 2v1l-2 1v2l-3 2h-2v1l1 1-3 1-7 2h-6l2-1 1 1h2l3-2 1-1-3-2-1-1-3-2-1-3 1-3-1-2v-3l-1-1v-3h-1l-1 1-1-1v4l-2 1 1 1-1 2v2l-1 1v8l-3 1v-2l-4-1h-2l-2 1M1636 908l-2-1 1-1 3-3v6l-1 2h-1v-3m1-9l-1-2 1-1v3m-1-12l3-1 1 1h1v4h-1l-2 3-1 1h-1v-2l-1-1v-2h1l1-2-1-1m-2-1h2v1h-2v-1m4-6l-1-1h1l1-1 1-1v-1h3l-2 4-1 3-2-2v-1m3-10l1 2h-1l-2-2h2m0 0l1-1 1-1 1 3-1 3-1-1-.333-1-.667-2m1-9l4 1-1 3-2 2-2-2 1-1-1-1 1-2m0-2h2v1l-2.25.75-.75.25-.5-1.5-.5-1.5h1l1 1m7-6h3v1l-2 1h-1v-2m0-1h3l-1 1h-2v-1l-2-1v-1l2 2m0 0v2l-1 2-2-1v-1l-1-1h-1v-1l1-1v-1l2 1 2 1m-10 15l2 1-1 1h-2v2l2 1h1v2l-2 1h-1l-1 1 1 1 1 1-2 1 1 1v4h2v1h-2l-4 1v1l2 1-1 2-1 3 2 2-1 1h-1l-1-1-1 1h2l1 1h1l1 2h-2v1l1 1-3 2h2l1 1-1 2-1 1 2 1-1 2 1 2v2l-2 1h-2m9-66l1 1h2l1 1-1 1v1h1l1 3 2 1h1l-2 3-2-1h-3l-1-2-2 1-1 1 1 1 1-1 .5.5 1.25 1.25.25.25-1 2v4h-2M1273 1020l-1 2h-1l1-2h1m-3 0l1 1v2l-2-1 1-2m41-4h-1 1m-46 5h-3l-3-1-3-3h1l2-1v-2h1l1 2 1 1 1-1v3l2 2m56-11v1l2-1 1 1-2 2-1 1-4-1 2-2 2-1m-88-7h1l3 2h1l3 2-2 1-1 2h-2l-2-1-6-2 1-2 1-1h2l1-1m105-25h-1l-2-1v-1h2v1l1 1m-8 6l-1 1 2 2v-1l1-1 1 2-2 3h2l1 1h-5l1 2h-1l2 2h-1l-2-1-2-2-1 1h-3v2l2 1h-3l1 1 1 1-1 1h-1l-2 1 2 2v1l1 1h1l1 1 2 1 1 2-1 1h2l2-1 1 1h3l-1 1 1 1 3-1 1 1 2 1v-1l2 1h1l1 3v1l2 1-1 2 3 1-1 1-1-1-1 2h-1v2l-2 1-1-2-1-1-2 2-2 4-2 1 1-2v-1l1-2h1l1-3 1-1v-1l-2-3-2 2-1-2-1 2h-1l-2-2v-3l-1-1-1-1-3 1v-3h-5l-2 1v-1h-3v-3l-1 1-1-1-1 1h-2l-2-2-1 1-3-3-1 1-1-1 1-1 1-1v-2l-2-2-1 2 1 3-2 1v3h1l1 1 3 1h2v2l1 2-1 1-1 2-1 1 1 1v1l1 2-2 2-2 2-2 1-1-3h-1 1l-2-1 1-1-1-3-2-1v-1l-2 1 1 1h-1l-1-1v-1l-2-1v1l-1 1-3-1h-1l-1 2 1 1-1 1v1l-1-1v2l-2 3-1-1-2 2-3-1v1h-1l-3-2 2-2h1l2-2-2-1h-3v-2l-1-1-2 1v1h2l1 2-1 1-1-2-2 2-2 2-1-1-1-2 1-1 1-1h1v-3l-1 1 1 1-2 1-1-1-1-2h-2v-3l-2-1-1-2-2 1-1-1-2-1v-1l-2 1-4 1 1-1-1-4-1-1-2 1v-5h-6l-3 2v-1l-1-1v-2l2 1v-3l-2 1-1-1-1 1h-2l-1 1-1 1-3 2-1-1h-2l-1 2 1 1h3l-1 1 1 3 1-1 1 2h-4l-4 2-2 1-3-1-7-1h-4l-3-2-8-3-3-1-5-2h-14l-8 2h-2l-3 1-1 1m170-30h-2l-1 2h-1l-1 1-1 1v1l-2 1v2l-1-1h-3l-1 2 1 3h3l1 1 1 2h4l1-1v-2l1-3 2-3v-1l2 1-1 4 2 1M1369 961v1h-2v1l-2 1-1-1h-1l-1-3h-2l1 2-1 1h-1l-2 1-2-1-2-1-1-1-1 1h-6l-3 2-4 1-4 2v-1l1-1-2-1h-1l1 3-2 2-2 1v1l-1 1-2 1"/><path d="M1649 849v-2h2l-1 2h-1m4-5v-2l2-2 2 1v1l-1 3-1 1-2 1-1-1 1-1v-1m10-9l1 1-4 3 1-3 2-1m1-3h1v2h-2l1-2m-4-2v-2l2 1v1h-2m0 0h3l1 2h-1l-3 3v3l-1 1h-1l-1-4h-1v-4h-1v-2h1l1-1 1 1h1l1 1m7-3l-2 2v-3h1l1 1m-16 3v-2h3v1l1 4v2l2 1v2h-1l-4-3-1-3-1-1 1-1m32-17v2l-1-1 1-1m7-8v1l-1 1v-1l1-1h-1l1-1v1m0-1l3-1v1l-2 1-1-1m34-50h-1m-36 53l-1 2v1l-2 2-2-1v-2h-1v4h2v1h-2v4h-1l-1 2h-1l-3 1-2 2-3-2 1-3h-2l-1 4h3l1 1-2 3-2 2-1-1-1-1-2-1 1 2-2 1-2-1-3 1h-3l-4-1v3l-2 1 1 3 1 1v2l2 2-1 2 1 3-2 2h-2l-1 2h1v1l-3 1-1-1-1 1h-1l-2-1m82-96v1l-5 4-3 2-1 2-3 5-2 4v1l-2 2-1 4-1 2v5h-1v-2l-2 1-1-1 1-2h-1v4l3 1h1v3l-1 2v-2h-2l2 3h-1l-4 4-1-1v3h-2l-2-1-2 2-1 3h-1l-1 2v1l-1 1h-1v1M219 750l1 1 1 2 1 3 3 5-2 1-2-3v-1l-1-2v-2l-1-1v-3m-32-20l3 2v1l-1 1-3-1v-2l1-1m37 0l2 1 1 2h1l4 2-1 1 2 3v1l-1 1-2-2-3-1v-4l-2-2-1-2m-47-38v2l1 1h1v2h-3l-3 1-2-2-1-3 3-1h4m-11-4l.8 1.6.2.4h1l-1.2-.4-1.8-.6-1-1h2m17 4h1l2 2h2l1 1 1 1 2 1 1-1h2l1 1-1 1h-4l-3 1-2-1-2-1-1-1v-2l-1-2h1m-41-188h1l1 1 1 1h-1l-3-2h1m218 292l-69-8-22-3v-4l-1-2-2-2 1.333-.667L268 776l1 1v4l1-1v-1l-1-1-1-1-.667-.667L267 776h-1v-2h2v-1h-1l-1-2 1-2 1-3v-4l-1-1v-4l-1-2-2-5-2-4-1-2-1-1-1-2-2-2h-1v-1l-2-4h-1l-1-3h-1l-1-1-2-2-4-6-2-1-1 1v-2h-1l-2 1v2l-2-2h-1l-1-1-1-2 2-1v-6l-1-2-1-2-1-1-8-2h-1l-1 1-1-2-4-1-4-3v-1l-2-1-2-2-1-4v-2l-1-1-2-2h-1l-2-3-2-2-1-1-2-1h-4l-2-1-3-1-2-1-1-1-2-1-3-1-2-1-3-1h-4l-4-1v-1l-1-3-2-2h-2v-3l3-3v-1l-1-2 2-3v-2l-1-2 2-5 1-2v-4l-1-1-1-1-1 1-3-4-1-2v-1l1-1h2l-1-5v-2h-2v-1h-2l-2-5v-2l-1-2-2-1-2-2-1-2 1-2v-1l-2-3-1-2-1-2v-5l-2-2v-2l-1-1v-1l-2-4-2-2-2-2v-1l-1-2 1-2v-7l1-1v-2l-1-1 1-1 1-1 2 2 1-1 1-1 1-2 1-2 1-2v-3l-1-4-1-2h-6l-1-1-3-4-1-2-1-3h-1l-1-3-1-2 1-2v-1l2-4-1-4v-3l-1-1 1-3 1-2v-2l1-4 2-1h2l1 1-1 2 1 1-2 1v5l1 1 1 1h1l3 5h1v2l2 1v-3h-1v-1l-1-3 1-4-1-2-1-1-1-1h2v-1l-1-1-2-1 1-1v-4l-1-1-2-1 3-2 2-1 2-1 3 1 1 1h5l7 4 2 1 2-2 1-1 1 1 1-1 1 1v1h-2v1l1 1 1-2v-1l-1-1h-3v1l-2 1-2-1v-1l-1-1h-3v-1h-2l-1-2h1v-1l-2-1-1 1-3 3v-1l-1-1h-1l-1-1h-1v-1l-3-3h-4v2l-1 2 1 1-2 1-1 4h-1l1 1v2h-1l-1-1-1-1-1-2-1-1h-2l-1-2-1-2-1-2-1-2-2-1-2 1h-1l2-3 3-5v3h1l-1-3-1-2 1-1-1-2-1-2-1-6-2-2-1-1-3-4v-2l-1-1v-2l-1-3-2-2v-2l-3-4v-1l-2-3 1-1v-1l2-2 1-5-1-3v-9l1-3 1-1 2-2 1-2v-12l-1-2v-2l-1-1v-2l-1-3-2-1 1-2-1-2-2-2v-1l-2-3-2-3 1-2 1-4-1-3 2-2 3-5h1l2-2 1 1 1-2 1-1 1-2h4v-1l-2-2 2-3 2-3-1-3 1-3 3-3 2-6 2-2v-2l1-3-1-2 1-1-1-4 1-2v-1l-2-1-1-2 2-2 1-2 1-4v-1M1884 367h-1l-2 1h-1l-1 1h-3l-1 2-2-1-2 2-2 1h-2l-1 1h-2l-2 3-2-1h-1l-3 2h-4l-1 1h-1l-1-1v1l-1 1-1 2h-2l-1 1-1 3-1-1-2 2-1 1-3 1-1 2-1 1-1 2-1-1-1 1-1 2-1-1-2 2M1735 520v-2l-2-2h-1M1779 479v-1m-1-4l-1-1m3-9l-1 1-1 2v2l-1 2-1 1v3l2 1v4l2 2 1 2 4 2v1l1 1 1 3v1l1 2 1 3 2 1 1 2 1 2 5 5h4l1 4-2 1 1 1 1 1-2 1 3 1 1-1 2 7m-1 0h-1M1944 350l2 3v1l-1 1-3 1h-2l-2-1 1-1 4-1 1-1v-2m-21 1l2-1v2l3 1 1-1v2l-4 1-4 2h-1l-1 2-2-2 2-1 1-4 1-1 2-2v2m5-10l-1 1v1l-1 2-5 2v1h-1v-5l-1-2v-2l-1-1v2l-2-1v1l-1 2 1 1-2 1v1h-1l-3 2 1 3-1 1v1l-2 1-2-1v1m-5-7v-2l-1 1m-1-55l2 5v1l1 1 2 1-1 1h2l1-1 1-2 2 2-2 2v1l-4 2-2 2 2 1-2 3h-1l-1 3 1 1-1 1v1l-1 1 1 1 1 1h3l2-1h2l3 1 1 2 1 1 2 2v5l2 1h3l2 3v2l2 1 2 1h3l1 1 2-1 1-2 2-1h1l3-2v-2l-1-2 1-1-2-2h-2v-2l-1-1-3-1-1 1v1l-2-2 2-1h4l2 2 2 2 3 5 2 4-2-1v2l1 1 1 1-2 1-6 2-1 2-2-1-1 1-2 1M1777 552v-1m1-1l1 1m-1 0v-1m0 0v1m0 0v-1m0 0l-1-1h-1l1-1 2 1-1 1m-4-10l2 1-1 2h-2v-2l1-1m-4-1h-1 1m37-17h-1m-47-15h1v2l-2 2v2l-1 1v-9l2 2m46 17l-1 2 2 1v1l-1 2v2l-1 1-1-1-1 2v3l-1 2-2 2 1 1-1 1 1 1m-9 3l-1 1h-2l-1 1h-1l-1 2-2 1v-1l-1-2v-1l2-2 1-1v-1l-3 1v-2l1-1h-3l-2 1v-3l2-1h1l1-1-2-1h-1l-1-2 1-3-1 1-1 2 1 1-1 2-1-1-1-2 1-1-1-2-1 1v1l-1 2 1 1v2h-1v-1l-1-1-3-1-1-2h-1l-1 1-1-1v-1l-3-3 1-1h1l1-2h1l-1-2-2 2v-4l2 1 2-1 2 1v-1l2 1v-2l-3-1-1 1-1-2h-2l-1-1 1-2-2-1-1 2-2-1 1-3 1-1 1 1 2 1v-4h1l1-1h-2l-1 1-1-3v-1l1-2-1-1 1-3-2 1-1 1-1-3h-1l1-6v-3l2-3h2v-2l2-2v-1h-1v-4l-1 1h-2l-1 1v2l1 1v2l-2 1-1 2-1 1-1-1 1-2-1-1-1 3 1 2v1l-1-2-2-1v4l-1 2v3l-2 1v-2h-4l2 2 1 1h1l2 2v1l-1 1 1 1h2l1 2-2 1-2-1-2-2-1 1 2 1 2 1 2 2-1 2v1l-2 1 2 1v2l-2 2 1 1h1v2l2 3v4l2 2 3 3 1 2-1 2h-2l-1-2-1-2h-2l-1-1h-2l-1-2-1-3 1 3v1l1 2 3 2h2l1 1v1h1l1 1h1l1-1 1 1v1l1 2 2 3 1 4h-1l-2-2-2-2-1 1h-2l-1-1-2-1h-2l-1-1-1-1-1 3-2-1-2-4v-1l-1-1v2l1 3h-3v-1l-2-1-1-2-2-3v1l-2 2h-1l-2 3-2-1-1-1v-1l-1-2 1-4h2l-1-2 1-1h1l1-1-1-2v-1l2-1h1l-1-3v-2m70 2v2M1723 754h1m21-7l1 3h-2l1-3m2-6l-1 3-1-3h2m49-47l-1.5 2.5-.9 1.5-.6 1v-1h1l.5-1.5.5-1.5 1-1m7-10v-3l2 1-1 1-1 1m16-34l2 3v5l1 4v7l-1 1h-1l-2 1 1-2 2-1 1-1-1-2v-8l-1-3-1-4m-10-11l1 1 2 1v1l1 2h-2v-2h-1l-2-2 1-1m-7 0v1l-1 1-1-1 1-1h1m-5-26l1 3 3 7 2 4 4 5 2 3 5 7h-1l-1-2-2-2h-1l-1-4h-2l-1-3-2-4-1-1-1-1-1-3-1-1v-2l-2-1v-3l-1-2m-1 1l1 2-3 1-1-3m5 13h-1l1 1v1l1 2h-3l-2-2h-1l-2-2h-1v1l1 1 1 1 2 1v1l1 1-2 1v-1l-2 2-3-1 2 2h-2l-3-1-1 1-2-2-1 1 2 1h1l2 2h-2l-1 1-1 2-2 2h-3l-1-2-1 1h-1l-1-1v-2h-1l-1-1v-3l1-3h-1l-1 2-1 1 1 3 1 2 1 2h1v2l1 1-1 1 2 1 5-2 4-2 1 1h3l1-2 3-1 4-1h2v3l-1 3 1 1v1l1 3v3l1 1 1-1v-5l-1-2 1-1-1-2 1-2 3-2 1-1 2 1 2 4 1 2v1l1 4-2-1v1l2 3-2 3-1-1h-1l-1-1v2l-2 4v2l-1 1-1 1-1 2v1l-1 1-1 1h-3l-1 1-1-1-3-2v2l-1-2-1-1-1 2-3 1v-2h-1l-1-2 1-1h1l1-2-3 1h-2l-1 2 2 1-1 1 2 3h-2l-1-1h-2l-2 1-2-1h-3l-3-1-3-1 1 1 2 1 1 2 1-1h3l2 1 3 1 3 1 4-1 1 2v-2l2 3-1 2v2l-2-1-2 2h4l-1 3-1 1-1 1-2 3-2 1-1 2-4-3-1 1-1-1-2-1-2-2v1l1 1 2 1v2l4 2h5l1-1 2-2 1-1h2l1-1h2v-4l2 1v5l1-1 1-1h3l-2-2h2l1 3v1l-1-1v3h-3v2l-1 2-2 1v2l1 1-2 1-2-3-1 1 1 3h-2v-2l-1-1-1 1 1 2h-5l-2 1-2 1-3 2h-1l-1 1v-2l-2 2-2 3-2 3-1 1-2-1-1-1 2-2-2-1-1-2h-2l1 1 2 1v2l-1 1h-1v1h2l1 1 1 1-4 4-3 3-4 5-2 4-1 3h-1v3l-1 3h-1v-2l-2-3v1l1 2v2l1 2-1 4-2 2-1 1h-7l-5 2-5 2h-1m68-138v2l2 3 2 2 2-1v1l1 3 2 1v2l1 1 1 2 1 1 1 2-2-1-1-1v-1l-1-1-1-1-1-1-1-1"/><path d="M1820 472v-2l1-1v2l-1 1m-33 12l-2-1-1-1-1-1-2-1h-1l-1-1m0-1v-2l1-1-2-1m-1-1l2-2v-2l1-3 2-3 2-2h1l2-1 1-1h1v-4l2-1v-1m28-54v8l-1 3v3l-1 1v2h-2l1-1h-1v1l-2 1v4h-1l1 2-1 1 1 1 2 1 2-1 3 1h3l1 4v9l1 7v3l1 6h-1v-7l-1-2v-2h-1l-1 1 1 1v2h1l-1 2 1 1-1 4v2l1 1-1 2v2l-3 3-1 2-2 1 2 4h-1l-1 1-1 2h2l1 1-2 2-1-2-1 2 1 1-2 1h-1v2h1l-2 6v2l-2 4v1l-2 3h-1v1h-3l1-4v-7h-5v-1l-3 1-1 2-1-1v-2l-2-1h-1l-1-1-1 1-1-1-1-1h-1"/><path d="M1817 416l1 1v1l-1 3-4 3v-2l1-1v-2h-1v-1l1-1h1l2-1m26-6l-2.857 1.714-.476.286-1.667 1 1-1h1l.143-.286L1841 410h2l2-1v1h-2m27-29l1 1h1l1 2h-4l1-3m0 0l-2 2v1l-1 3-2 1-1 3h1l2 1 1-2v-1h2v-3l2-1h1l2-2 1 1v-2l3 2 1-1 2-1 1-3 2-1 1 2-3 2-4 3-7 6-2 2-1-1h-1l-1 2-2 1v1l-2 1-2 1-3 2-2 2v-1h-1l-1 1-3 1v1l-2 1h-1v1h-3l-2 2h-1v1l-2 1-3 1-2 1-2 1-1 2h-3l-2 1 1-2h-4v3l-1 1-2 1-1-1-1-1v-4l1-1v-1l1-3 1 1 2-2h2v-4h2l1-2 2-1h1l1 1 2-1-1-1v-1h2v1h2v-1l2-1h3l2-1v-2l1-1 2 1v-1l9-2 2-1 2-1 2-1 2-2 1-1 1-2 1-1 1-2h1l1-2h2l-1 1-1 1v-1l-1 2m12-12l-3 3v-1l3-2m-247-28l1 1-1 1-1 1v2l-2-1v-4h3m76-60l2-1h1l-1 3-2-2m117 117l-2 2-2 3v2l1 1-3 1h-1l-1 4v1l-2 1v-3l1-3 1-3v-9l-1-3-1-2-2-2h-1l1 3 2 1v4l1 3m-206-18l3-2 4-3 3-4v-1l3-3h1l1-1 3-2 1-3 1-2v-2l2-1 2-2 2-2-1-2v-1l-1-1-1-4-2-1 1-1 1-1-1-1-1-1-4 1-1-2 1-1-1-5v-1l2-1 5-3 3-1 2-1 3-1 6-2h4l4-1 6-1h6l2 1 2 1 3 1h2l2-2 3-1h3l3-2h3l1 1 1-1 2 1v-1l1-2 3-1 2-1 1-1 2-4 2-2 2-1v-1l2-2h4l2-1v-5l1-2h-2l-2-6-3-2 1-1 1 1 1-1 2-2-1-2-2-1 1-1 1-1h-1v-2h-2l-1 1-1 2v-2h-2v-1h-2l1-2 1-3 2-1 1-1 1-1v-2l2-1 1-2 1-1h1l2-1 2-4v-1l1-3 4-5 3-5 2-3v-1l1-1 2-2 2-3 2-1v-1l2-1 2-2 1-1 2-1 2-2 3 1 2-1 7-1 4-1 5-1 9-3 7-2 10-2m32 181l1 1M1494 424l-1 2h5v-1l4 3h3l2 1 2 2 2 1h3l1-1 1-3 1 2h3v1l-2 1h-1l-3 1h-2l-1 2 1 1h2l2-1 1-2 2 1 2-1 2 1 1 1 4 1h1l3-3 4-1 2-2 6-2h4l3-1h2l3-3 3-3 1-1 2-3 2-2 2-2 2-1 3-3 4-2 3-1 4-3 5-2 3-2M1791 453l-2 2v3l-2 1-1 1-3 1-3 3m-190-65l6-4 3-2 5-4 2-2 4-3 1-1 2-2M1894 369l1 2 1 1-2 1h-1l1-4m4-13h-2v-3l1-1 1 4m3-8h-1l1 2 1 3v2h-2v2h-2l1-2v-2l1-5h1m5 5l-2 3-1-2-1-2v-2l-1-2v-2m-1-1v1l-1 1h-1l-1-2h-1l-2-1v1l1 2-2 1v1h1l1 3-1 1 2 1v3l-1 2 1 1-1 3-1-1-3 2-3 2h-2l-2 2v-1M1793 614h2m-6-34h1v4l-1-3v-1m0 0l-.833-.833L1788 579l.333-.667L1789 577l1 1-1 2m6-9l-1 2v-1l1-1m1-6l-1 5-1-1 1-2 1-2m-17-14h-1m-1 0v1m25-7v3h-2l2-3m-14 13l-1-1 3-1v-1l1-3-1-1-2 1 1-2 1-1h1v-2m9-3l-2 1 1 2-1 2h-1v2h1v-1h1l-1 3-2 5-1 5-1-1-1 2 2 2h-1v2l-2-1-1 2h2l1 1v1h-1v-1h-2l-1 2v1l1 1-1 1h-1l-.667 3.333-.166.834-.167.833v5l1 3h-1l-1-1-2-2-1-2v-4l1-3-1-2 1-1-1-4 1-4 1-3 2-2v-2m-19 11h-2l-2-1-1-1v2l-1-1-1-2-1-1-1-1-3-1-1-1h-1l-2-2-1-1-2-1-2-2h-2v1l2 1 1 1 2 1 1 1 3 3h1l1 1h2l1 1 1 2v1l2 1h4v1h5l-2 2 1 2 1-1 1 2h1l1 3v2h-1l-3-1-2-1v1h-1v1h1l1 1v1l2 1-1 1-3 2-1-1-2-1-2-2-1-1-4-3-1-1-2-1v1h1l1 2 2 1 2 1v1l3 3h1l2 1 2 1 2-1 1 1v2l1-1 3 2-2 1 1 1 2-1v3l-1 1-2 1-1 2-2-3-2-1-1-1-1 1-3-2 1-2-2-2h-2l-1 1-1 1-2-2h-1l-1 1-1-1-1 1h-2l-1-1v-1l-1-1-2 2v-1l-3 1-2-1-2 1v-2l-1-1 1 3 1 1 1-1 1 1 3-1 1 1h1l1-2 1 1 1 1 3 2 1-1h2l1 1 2 1h1l1-3 1 1-1 1 1 2v2l1 1h3l1 1 2 1 1 1v1l1 2 1-1h2v-2h1v2h1l1-1-1-1-1-2 7 1h2l2-2 2 1 3 6 2 4 1 2 2 3m-1 0l-1-1-1-2v-2l-2-2v5l1 3m-1 0l-1 1m-59-99h1l1 2 1 4v2l-2 2-1 1 1 2h-1l-1 1-1-2-1 1v4l-1 3v4l2 2v1h2l2-1 1-1h2l1-2 1 1v3l2 1 1 1v2h2l2 1h1l2-1 2 1 1 1v-2l2 1 1-1 2 2 2 1 1 2h2l2 2h2l4 1 1 1v3h-2v1l1 2-1 1 1 2v3l-1 1M1349 281v2l-1-1v-1h1m12-10l2-1 1 1-1 1v2l-2-1-1-1 1-1m-122-58l2 1-3 1-1 2h-1l-1 1-1-1 2-1v-1l2-1 1-1m101 73l1 2-1 1v3h-2l-3 2-1 1v2l-1 2-1 1-1 3-1 2-1 6v1l1 1h2l1-2 1-2 3-1 2-3-1-1 4-6 3-1 2-1 2 1-1-2 1-4 1-3 2-2v-4h2l1-1h1v-3h1v-2h3v3l-2 1v7l-2-1v3l-1 1v3l-1 1v2l-1 1-1 1-1 2v3l-2 4-1 1-1 3v4l-1 4v4l1 3v2l-1 2-3 2v2l-1 2v4l-1 2 1 4 1 2v3l-2 6v4l-2 4v4l-1 2 1 3v3l1 3-1 1v1l2 3 1 2v1l1 2 2 2-1 1v11l1 2m-155-181l1-2 1-1 2-1 2 2v1h2l2-1h3l4-2 3-1h1l4-2h1l1-1 2-1 1-2 1 1 3-1 2-1v-1h1l1-2 2 1 1-2 1 1 2 1 1 2-1 2-3 4 1 2-1 2-1 2v1l1 1 1-1 3-2 1-1h1l4 2 2 1 3 1m-10-18l1 1-2 1v-1l1-1m6 1l-4 1 1-1 3-2v2m-13-2v1h-1l1-1m17-5v3l-2 1v-3l2-1"/><path d="M1493 425l1-1m7-21l1 1v3h-1v-4m13-22h1-1m1 2l1-1 1-1h2l-2 2-1-1-1 1m-125-98v1h-2v-1l1-1 1 1m3-2l-1 1-2-2v-3h2l1 1v3m3-15l-1-2h1v2m3-17l1 1v1l-1-1v-1m5-1l1 1v3l1 1v2l-2 2-2-1v-5l1-2 1-1m-24 186l5-4 2-3 1-3v-2l2-5 3-5 1-2 1-5 1-2v-2l1-7-1-2 1-3-1-7-1-6-1-4-3-4-1-2h2v-1h-2l-2-3-1-2-3-7-2-3-1-2 1-2 2-4v-3l-1-3v-2l-2-4v-2l2-3 2-4 2-7v-6l1-3-1-2-1-3v-2l3-1 2-1v-8h1l1 1 1-1 1-3h1l1 1h2l1-2v-1l1-2 1-2 1-3 1-2h1l1-1 1 1-1 2h-1l-1 1 2 3-1 2 1 3-1 3v2l1 3h1v-2l1-3v-5l1 1v5l-1 2-1 2 2 1 1-1v-3l2-5 1-3-1-2 1-1-1-2v-2l-1-4 1-2 1-1 2-1 1-2 2-1h5l2-2v-1h-4l-2-2-1-4 1-3 2-1v-1l2-2v-1l-2-1h6l1-2h1v1l5 2 3 2h2l1-1h2l4 1 3 3 1 2 2 1 1-1h4l2 2 3 1h2l2 2h2l1-1 3 1 1 2h2l-1 2 3 4 1 2 1 2-1 1-2-2-1 1-1 1v2l1 2 2 2 2 1v1l1 2 1 4h1l-1 3v2l1 3v10h-1l-1 2-1 1h-2l-1 3v5l-1 1 1 2h-2l-1 1-1 2h-4l-2 4v7l-1 1 1 2 1 1 3 1 1 1h3l1 1 1-1 4-5h1v-1l1-2 1-2v-2l2-2-1-1 2-1 1-2 3-1 1-1 2-1 1-1 1-1 1-1h1l2 1h2l2 2 5 6 1 3 1 8 1 2 3 5v4l1 5 1 2 1 4 3 3v2l-1 3v5l1 2-1 5v2h-2l-1-1-1-1h-3l-1 1-1 1v1l1 1v1l-1 1-2 2v2l1 1v3l-2 2h-1l-3 2-1 2-1 5-1 5 1 2-1 1-1 1v2h-1l-1 1v2l-2 1v2l-1 1v2l-1 2m-59-181h2l2 1h3l-1 2h-3l-2-2-1-1m31-9h-1l-1-1-2 1h-3l-2-1-1-1 1-1 1 1 1-2h3v-2l-2-1 3-1 2 1 1 1v2l3 1-2 3h-1m-22-13v-3h2v2l1 1-1 2-1-1-1-1m-4-9l2-3h3v3h-1v2l1 1 2 3h-2l-1-1-1-2-2-2-1-1m-74 5l1 1-1 2h1v1h-1l-2-2v-2h2m-119 9l3-3 1 1 4-3 4-1 3-3 3-3 1-1 4-1h2l3-1h3l2-1 3-2 2-2v-1l2-2 2 1v-1h2l1-1 2-4 1-1 1-1 1-1 1-1 2-2h1l1 1-1 1 1 2h2l1 1v3l3 2v3l-1 2v2l1 2h1l1-2 2-3 2-2 3-2v1l-2 3 4-2 3 1 3-1 2 1h1l2 1 1 2h3l1 2 1 2 2 1 1 2h1v1l1 1 1 1 1 1v2h2l1 1 3-1h3l1-1 2-1h1l1 3 1-1 2 2 1-1v-1l2-1 2 2h1l1 1 2-4h1l2-3 2-1 6-4 1-1h1l5-1 2-1h10l2-1 4-2 2-1 2-1 2-1h3l3-1h1l-2 3v4l1 4h-1v2l1 1h3l2-1 1 1h1l4-2h1l2 2v1h1l2-2h1v-1l1-1 2-1 2 1 1 2 1 2 1 1v3l1 1v1l-1 1v2l1 1 2-1 2 1h2l-1 2 2 2 4 2v2h-11l-1 1-2-1-1 2h-1l1-2h-5l-1-1-1 1-2-2-1 2v1l-1 3h1l-1 2 2 2-2 1-3-2v-1l-1-1h-2v-1l-3-2-3-1-1-1-2 1-2-1-2-1-2 1-2-1v1h-3l-2 3-1 3h-5l-1 1h-2v1l-1 1-2-1h-6l-1 1h-2l-1 1-1 6-2 1v1h-1l-2 1v1l-1 1v2h-2l1 2h-1l-1-1-1-1 1-2v-1l1-1v-1h1l1-3 1-1-1-1-1-1-2 3h-2l-1-1-1 1v2l-1 1-1 3v1h-4v-4l-1-1 1-3v-1l-2 2-1 3v4l-1 2-2 1-2 5-1 2-1 3v1l-2 3v1l-3 6-2 2-1 3m-37-89h-2v-1l-1-1 1-1-1-1 2-1 2-2 2-4 4-3h2v-1l6-2h7l3 1v1h-1l-2 2-2-1-2 1v2l-2 2h-1l-1 2-2 2-2 1v2l-2 1v2l-1 1-1 3-1 1-2-2v-1l1-2-2 1v-2h-2m-7-45l4-1v1l-1 2v1l-3 2-2 2h-3l-5 4h1l2 1-7 3h-1l-1-2v-2l1-1 3-2 6-4 3-1v-1l3-2M695 1107l4 1 1 2 3 1v1l3 1 1-1 4 2 5 2 2 1 3 2 3 2 1 1 2 2-1 1 1 4 3-1 1 2v2l2 1v1l1 1 4 2v2l-3 3-1 1-2 2-4 1-2 2-3 1h-4l-2 2-3 2-1 1-2 1-2 2v2l-2 2v1l-2 2-3-1-1-1-2-1-2-1h-1l-2-2v-8l1-3-1-3-1-2-1-1-1-4-1-3-2-1h1l-1-1-1-3 4-4h1l1-3 2-2h1v-3l-2-2-1-2v-4l1-2h1m-30-13l1 1v2h-2l-2 1-2-1 1-1h1l2-2h1m-17-14l3 1h1l3 2 1 2-1 2-3 1-3 1-1-3v-2l-2-1-1-2h1l2-1m15-4h1l3 1v1l1 2 2 1 2-1 3-1h3l1 1 2 2h2v2h3l1 1 1 1v2l-1 2-1 1h-1l-2 1h-3l-1 1-3 1-3 1-2-1-1-2v-3l-1-3-1-1-1 1-3-1h-1l-3-3v-3l1-2 1-1h1m-25-8h1l1 1h2l5 1 2-2 1 2h8l1 1-1 1-3 2-2 1-5-1-3-1h-2l-2 1h-4l-2-1 1-2 1-1 1-2m-30-20h1l1 1v2l4 5-1 1 1 2h1v1l3 1 1 1v1l2 2-2 2v-1h-2l-1 1-3-2-2-1-2 1v-2l1-1h-3v1h1v2l-5 1v-1l-1-3-2-1v-2l-2-1v-2l-2-2h7l1-3 1-1 2-1 1-1m-83-12h1l-1 3v1l-1 1-2 1-2 3h-1l-1-1v-1l1-2 2-2 2-1 1-1 1-1m27-9h2l1 1 1 2v2l-2 3v3l-1 1-3 3-2-1h-2l-3-1h-1l-1-2-3-1-2-2 1-2 1-1 1-2 2-1 4-2h2l1-1 1 1h3M1922 233v3h-1v-2l1-1m31-16h1l1 2-2 1v-3m-5 3l-1 1-1-1-2-1v-1l1-1 2 2 2-1-1 2m-2-6v3h-3l2-3h1m12-2l1-2 1 2-1 1-1-1m-8-3h1l1 3v1l-1 1-2-1v-2l1-2m5-4h-2v-2h1l1 2m-13 1v3l-1-2 1-1m17-8h1l1 1h2l1 2v2l-1 1-2 1-1 1h2l-1 2-3-2-1-1v-3l1-2h-1l2-2m-17-1l1.667 1.667.333.333-1 1-1-2v-1m-20 44h-1v-3l-2-2-1-2-1-2h-2v1l1 1 1-1 1 1 1 3 1 1v1l1 3-1 2-1-1-1-2v-2h-1l-2 2-1 2 1-4h-3v2h-1l-2 3-1 1v1l-1 3 1 1 1 1 1 2v1l-1 1-1-1-1 2-1 1-1 2 2 1-1 2-1 1v2l-2 1-1 2v3l1 1-1 2v3l-1 3-1-1-1 1-3-2m-34-93l1-1 1-1 1-1 2 1v1l2 2h1l-1-1 1-3-1-1 1-1-1-2v-1h1l2 1 1-1 1 1 1-1-2-2h-1l-1-2h-1l1-3 1-2 1-2 1-2h1l1-2h1l1-2-2-2 2-4h1l1-2v-2l-1-1h-1l-1-1v-3h-1l1-2 1-1v-1l-2-2v-5h1l-1-2 1-1 1-1 1-2 1-1-2-12 5-15 9-25 1-1 3 1 1-1 1 1v2l1 2 1 3 5 2 1-1 1-1 4-3h1l1-1v-2h1l1-1h4v-3l1-1h6l1 1 4 2h1l1 1 2 1 1 1 1 1 3 1 6 20 5 15 4 14h1l-1 3 2 2-1 1 1 2 1 3h2l1-1 2 2h5l2-1 1 1v3l-1 2 1 2 2 1 1 3-1 3 1 1 4 3 2 1v-3h5l2 1 1 2-1 1 2 1 1 1 1 3h-2l1 2-2 1h1l1-1h1l2-1 1 2 1 1-1 3h-1v1l-2 6h-4l-1-2-1 1-1 1 2 2-2 2h-2l-1-1-1 1v3l1 1-3 1v-2l-2 3-2-1h-3l1 1v6h-1v-2l-3 1 2 2-1 1-1 3h-1l-1-2h-1v-2l-1-1-1-1-1 1-1-1-1 2-1 1-2 1-1 3h-1l-1-4-1 1 1 1-1 1-1 2h-1l1 2v2l2 1v1l1 1h-2l-2-1h-2l-2-1-2 1-1 1v-2l1-1v-2h1v-2l-1 1-1 2h-1v-2l1-1-1-2 .667-1.333.333-.667-1-1h-1v3l-1 2-2 2-1 1v2l2 1v1l-1 3-1 3 1 2-1 1 1 1-1 1 2 1v1l-1 2-1 1-1 1v3l-1 1-2-2h-3l-1-1-1 2 1 3-1 4-1-2-2 1-2 2 1 2-1-1v-2l-1-3h-2l-1 3h1l2 2v2l-1 1M1033 121h13l14 1h21l15-1v-17l1 1 2 1 3-1 3 2h1v1l1 4 1 4v1l3 10v1l-1 1v2l4 3 1 1h3l1-1h3l2 1v2h12l1 1 1 2-1 2 1 1 4-1h4l2-1v-2l2-1h1v-1l3-1h2l1 1h7v1l7 3 2-1v2l-1 1-1 1 2 1 4-1 2 3v2l2 2 1 4 3-2-1-2v-2l1-1 2 1 1-1h3l1 1 1 1v2l2 2 2-1 1 2h4l1 3h-1l3 1h2v2l2-1h2v1l2-1h3l1-1 2-2 1-1 2-1 1-1 2-1 3-2 1 1v2h1l1 2 1 2 3-1 2-1 1 2 4-1h4l5-1 3 1 1 2 1 1 2 1h1l2-1 3-1 1 1h2l-2 3-3 2-4 2v1l-6 2-1 1h-1l-2 1-2 1-3 1-3 1-2 1-4 3-4 3-5 5-4 5-1 1-1 1-4 5-1 1-2 3-3 2-1 1-1 1-2 2-3 4h-1l-5 4-3 2v1l-3 3v2M1896 278l2 2 1 1h1v1l-1 2v4l-1 1 1 1m-47-89v-3l1-2v-6l1-2 2-1 2 1h3v-3h1M133 300l-1-3-2-3 1-4v-1l-1-2 1-2v-2l1-2v-2l1-1v-2l2-3 1-4-1-1v-3h-1v-5l3-3 1-2 3-4v-2l2-3 2-3v-2l1-1h2l3-3 1 1v2h1l-1-3h-2l4-6 5-10 3-6 1-3 1-3 1-2 1-1 1-5 3-6 1-3 3-7-1-1 2-2v-2l3-5 1-2 1-3 1-3h1l1-4 1-2 1-2v-3l1-1 2-1v-1l-1-2v-1l2-1 1 2v-3l-1-2 2-3 1-2v-2l-1-2h1l1-5v-2l3-2v-3l1-4-1-2 1-1 2 2v1l4-1 1 2 3 1h1l1-1 2-1h1l1 3v1l1 2 3 1h2l1-1"/><path d="M201 106v4l-.2-.4-.8-1.6 1-2m47-18l-1 2-1-2 2-1v1m0-3h1l1 2h-1l-1-1v-1m2-1l2 2h-1l-1-2m-6-2v3l-2 1v-3l1-2 1 1m15-2l-2 1-1 2-1-1 1-2 1-3 1-1h1v4m0-14l1 1-1 1 1 1-1 3-1-2h-1v-2l2-2m-1-16l1-3 1 1-1 2v1l-1-1m8-15v3l2 1-1 2h-1l-2-1h-1v1l1 2v3l-1 4v2h1l1-2 1-1v3l2 1v4l-2 1-1-1v-2l-1-1h-1v-1l-1-2v-2l1-1v-2l-2-2-2-3 1-1 3-3 1-2h2m-8-9h2v1l-1 1 1 2 1 1-2 1v-1l-2-1v-1l1-3m5 0v1l-1 1v-2h1m5 3h-2l1-2 1 2m-10-5l1 1-1 1-1-2h1m8 2v1l-1 1-1-2h2m-13-5h1v1l2 3 1 1-2 1v2h-1l-2-3-1-1v-2l2-2m7-1v1l1 3-1 1-2-1v-2l-1-1 3-1v-1h1l2 1 2 3h-2l-1 1v-1l-1-1v-2h-1m8 1l1 2-1 1-1-2 1-1m-7-16v2l-2-1V5h2m4 29h-1l1-2v-2h2l1 2 2 1h1v-3l2-1 1-1-2-2 1-3-1-1 2-1-1-2h-2l-3 2v-1l1-1v-2h-1v-2l-1-2 1-1v-2h-2l1-1 2 1V8l19 5 10 3 13 4 19 5 19 5 18 4 21 6 16 3 33 8m-217 76h-3l-1-1-2-3v-1l-1-2-4-1-2-1v-1l-1-1-1 1h-2l-3 1-1-1v-1l-1-2-1-1-2 1 1-2 1-2 1-5 2-6v3l-1 3-1 6h2v-1l.8-.4.2-.1 1-.5v-3h1l1-2-1-3 1-1 1-2h3l-1-1-3-1-1 1-1-1-2-2 1-3v-4h1v2h1l1-1 3-1h4l-2-2h-2l-1-1v-2l-1-1h-3v1l-1 1 1-5 1-4v-5l-1-1v-5l1-3v-5l1-8-1-1v-2l-1-1-1-2-1-2v-4l1-5-1-4h2v-2l1-1v-1l1-1 1-1-1-1-1-2h2l1 2h2l3 5 2 1 2 2h1l4 3-1 1 2 1 2 2 3 1 2 1h3l1 1 2 1h1l1 1 3 2 4 1 3-1 2 1 1 1v4h1v-2l3 1 3-1h1l1 1-2 1 1 3h1l-1 2 1 1v3l1 1-1 1h-1v1l-2 1-2 2v1l-1 2-2-1 1-1 2-4h-2v2l-2 1v2l-3 2h-1l-3 3-1 1-2 2-1 2-2 2h1l3 1 2-1h2l3-1-5 1-2 1-2-2 2-2 2-2v-1l3-2 2-1v-1h5l1-2 3-3 4-2v-2h2v5l-1 1 1 1-1 1-1-1-2 2h-1l-1 2 1 1-1 1-1 1v-1l-1-2h-1v1l1 1 1 2 2-1v3l1 1-1 1-1 2-1 1v1l-1 2v2l-2 1-1-1-1-1v-1l1-1-2-1-1 2v3l-2 2-1-1v-2l2-2v-3l-1-1-1 2-3 1v1l-2 4-1-1 1 2-1 1 1 3 1-3v-1h4v2l1 2h1l4-3 1-1 2-2 1-2 2 3 1-1v-1h1l2-1 1-2-1-3 1-1-1-1v-3l1-1 1 2 1-2-1-2h-1v-1l1-1v-1l1-1v-2l1-1 2-2 2-4h3v-3l-1-1-1-2v-4h1l-1-3h-2v1l-1 1v2l2 3h-1l-1-3h-2v-3l1-3 2 1v-1l2 1 1-2v-1l-2-2-1-1v-3h-3M87 1153h2l-1 1h-1v-1m-13-7l1 1v2h-1l-2-2 2-1m6 6h-1l-1-1 4-1-2 2m7 1l-1 1h-3l1-2 1-2h2l-1 2 1 1m-31-16l1 1-1 1h-1l-1-1v-1h2m35 13l1 1-1 1h-1v-1l1-1m22 8l1 1h-2l-2-1-1-1 4 1m10 0l1 1h-3l1-1h1m-14-6l1 2-2 2h-6l-2-1 1-1 1 1h2l2-1 1-2h2m-97-44l-2 1v-1h2m128 50v1l-2 1v-1l2-1m8 0v2l-2-2h2M8 1098l2 1 1 2-2 1-1-1-2-1 1-1-2-1 2-1 1 1m145 63l3-1v-1l1-1v-1l3-1 1 1v-3l2-1h2l1 1v2l-3 1h-1l-2 2h-2l-2 .8-3 1.2m27-7h2v1h-1l-1-1m0 0v2h-2l-2 1h-2l-5 1h-3l1-2 2 1 3-1 1-2 1-1 2 1-2-2 1-2h3v3l4-2-1 2-1 1m5-5l2 2h-3l-1-1 1-1h1m4 0h-1l1 1-1 1-1-2h2m29-4v2h-1v-1l1-1m260 13l1 1-1 1-2-1 2-1m-272-17l2 1v3l1 2h1v1l-2-1-1 1h-1l-2-1h-2l-2 1-1 1h-3l-1-1-1-2 1-1h2l2-2 1-1 2 1 3-2h1m16 2l2 2h-1l-1-2m243 14l1 2-2-2h1m-1 4l2 1v1l-1 1-1-3-2-1-1-2v-2h1l2 5m12-7l1 1v3h-1v-2l-1-1 1-1m-237-9v2l-2 1h-1v-1h1l2-2m222 11h-2l1-1 1 1m-229-14h1v3l-1 1-1-1h-1l1-2 1-1m241 10l1 2v2h-1l-1-3 1-1m-16 0l1 1-1 1-1-1 1-1m1-4v2l-1-1 1-1m15 4l1-2-1-1v-3l1-1 3-1 1 2 2 2-1 4v2l-1 1-1-1-1-1-1 1-2-2m-15-9h1v1l1 1h-2l-2 2-1-1 2-2 1-1m7-4h1l1 2 1 1h1v3h-1l-2-2-2-1v-1h1v-2m-4 17v-2h2l-1-1v-2h-2l-1-1 1-1 1-1-1-2v-3h-2l-1-1-1-1 1-1h3l1 3 1 2 1-1 2 2 2 2v1h1l1 3 1 2 1 1h1l-1 2 1 2v1l1 1-1 2h-1l-2-1v-2l-1 1-1-1v-2l-2-2-2 1v-1h-2m4-17l-1 1-1 1-2-1 1-2h2l1 1m4 0l1 1v2l-2-1-1-1v-2l2 1m-180-5l-1 1-1-1 1-1 1 1m-125-28l2 1-1 1-1-2m278 30v-1 1m20-3l3 3-1 1h-2v-4m-6 4h-2v7l-1 1h-1l-1-4 1-1h1l-3-4-1-3 2-1 1 1 2 1 1 1 1 2m0 0l-1-1v-2l-1-1v-1l-2-2 1-1 3 1h4l1 1v2l1 2-1 2-2 1-3 1v-2m-159-11l3 1h-3v2l-1-1v-1l1-1m-133-30l-2 1v-1h2m274 31l1 2 1 2h-1l-1 1v-5m0 0l1-1 1-2h1l2 1 2 1v2l3 7v7l-1 1-3-6v-1l-2-2-1-2h1l-1-2v-2h-1l-2-1m-140-13l2 1h2v1h2l1 1-2 2 2 1h1l-1 2v1l-1-1h-3l2 2-1 1h-2l-2 1-1-1-2 2h-1v1l-1 1-2 2h-2l2-2-2-1-1 1-2-2 1-2-1-2-1-1 2-2 2-2h3v2h1v-5h2l3 2 1-1-1-2m133 2l1 1v2h-1v-3m7 0l-1 1 1 1 1-2 1-1 3 1 1 2h-1l1 2 1 3v2l-2-1-5-3v1l1 1v2l-1 1h-1l-1-2-1-1-1-1-1-1-1-1v-2l1-1-1-1 1-1 1-1h1l1-1 3 1-1 2m7-4l1-1 2 1v1h-2l-1-1m0 0v2h5l-1 1 .857 1.143.143.19 2 2.667-2-1v-2l-.143.143-.857.857 2 3 1 2 1 1-1 3h-1v2l-2 2-1 1-1-1v-2l1-1-1-3-1-3v-2l-1-4-2-3 1-1 1 1m-141-5l2 2 1-1v2l2 1-1 2-1-1-5 1v1l-3-2v-1l2-2 1 1h1l-1-1 2-2m0 0v-2l3 1-1 1h-2m-62-15l-2 4-1-1v-2l3-1m163 3v-1 1m-56-12h1l-2 3-1 1v1l-1 1v1l-4 1 1-1 1-2 2-2 3-3m-142-24v1l2 1 1 1v3h-1v3l-4-1-1 2-1-2-1-1-3-2v-1l-2-1v-2l1-1 3 1v1l1-2 2 1 1-1h2m146 22l2 1h1l-1 1h-2l-1-1 1-1m-10 3l1-3 1 1-1 2v1l-1-1m-184-43v2l2 2h-1l-2-3 1-1m59 14h2v1h1l1 1v2l-1 1h-1l-.75 1-.45.6-1.8 2.4-1-2-1-1-2-2 3-2 1-1 1-1v-1 1m124 18l1 2h-1v-2m-116-47l2 2-2 1v-3m4-3l1 2v2l.833 1.667.167.333h-1l-.857-.429L229 1028l-1-1-2-1 1-2 1-1h2m6 0l-1 1h-1v1l-1 1h-2v-2l-1-1-1-1v-1l2-1h2l2 1 1 2m10-6l-1 2-1-1 1-1h1m-62-19v3h2l2 1 4-1 1 1 1 2-1 2 3 1 1 2h1v1h2l2 1-1 1-1 1-3-1-2 1-1 1h-1l1-1-1-2-1-1-1-2-1-2-2-1v-1h-3l-2 1-2-1v-2l1-2 2-2m252 112v-1l-2-4-1 1-4-2-2-1v1l4 2 2 2 2 4h-2l-3 1h-2v-1h-2l-4-3-3-3v-1l-2-2-3-2-2-1-4-2v-1h-2l-1-2 2-2-1-1v-2l1-2h-1v1l-1 1-1 1-4 2h-4l-4-2 1-1-1-1h-4l-5-2h-2l-2 1h-3l-3 1-2-3h-3l-1-2h-1v-4l-1 1-1 1-2 1-2-1-2-1 2-1-2-2-2 1v-2l-2 1-1-1 1-1-1-1h-1l1-4-2 2-2-1-2 2v-2l-1 1v1l-1 1-3-2v-2l-2 4h-2l1 1 1-1 3 5-1 1-2 2 1 1-1 2-1-1-1 2-1 1h-2l-2-1-2 1-3 1-1 1v2h-2l-1 2-1-1-2 1-1 1-1 1h-1l-1 2-2-1-2 1-2-1-1-1 1-2 4-1 1-1 3-3h-1l-3 2h-1l-2-3 2-3 2-3 1-2 1-3-1-1v-2h3l3-2 2-2 1 2h4l2 1v-1l-2-1-1-1-1-1 1-1 1-2 3-1v-1h-2l-2 1-1 2h-3l-1-1-3 2-1 1-2 1h-1l-3 2 1 2h-1l-2 1v1l-2 1v1l-1 2-1 1h-2l1 2-1 3h-2l-1 3h-4v1h-2l1 1-4 2-1 4h4l1 2 1 1v3l-3 1h-2v2h-1v2h-1v2h-2v1h-1l-1 1h-3l-1 2h-2v2h-1l-1-2-2 2v2h-2l-1-1v1l-2 1-1 1v2l-1 2-3 1h-1l-3 2-1-1-1 1-1 1 1 1h-2v-1l-3 1 2 1-1 1-2-1v1l-1-1-2 2 2 1-1 1v1l-2 2-1-2-1 2h-5l-1 1-2 2v-2l-1-1-1 1-1-1-1 1v1l-3 1-1 1h-2l-1-1-1 1-2 1-2-1v-1l1-1v-2h-1l-1 1-1 2-2 3-1-1v2h-4v-3l-1-1-1 1 1 1-1 1-1 2h-1l-1-2-1-2-1 2 2 1-2 2-1-1 1-2v-2h4l1-1 2-1v-1l4-3 4-2h3l3 1 2 3v-2l2 1v1h2v-1l-2-2 3-4 2-2h2l1-1 4-1 1-1 3-1 1 1h1v-3l1-1 3-3 2-1 1-1 2-1 1 2v-6l2-4h1l-1-2 1-3 4-3 1-2h-2l-3 1-4 1-2-1v-1l-1-1v-1l1-3-2 2-1 2h-1 1v-1h-2v-1 1h1v1l1 3v1l-1 1-2-1-2-5-1-3-3 2v-2h-2v-3l-4 2h-1l-1 1h-2l-1 2h-2l-2-1v-1l2-1h-1l1-3 2-1-1-1h-2v-2l1-2 2-1-1-3v-2l-1-2v-4l-1-3h1v-1l-2 1v4l-1 1-5 1h-4l-3-2v-1l1-1-2-2-1-3 .8-2.4.2-.6h1l1-1 1-1h1l1-1h2l-1 2 1 1 2-1 1-1-1-1v-2l-1-1-1 1-1-2-1 1v1h-3l-1-2h-1l-1-1-1 1-1-2 1-1-1-2v2l-2-1v-2l1-1-2-1v-1l1-1v-1h-2v-2h3l-1-1-1-2 4 1-1-3 2-2 5-4 3-1 2-1h2l.143.571L231 1032l.75-3 .083-.333.167-.667-1-1v-1h3v-2h1l1-1 1 2h2l3-2 4-3 1-1 1 2h6l3-4v-7l-1-3-2-1 2-1 1 1 3-2v-3l-1-1v-1h-1l-2 2-2-1-1 1h-2l-1 1-2 1-1 2-2 1 1-3-2-3-1 1 1 2-1 1v-1l-2-2-4-1h-4l-2 1-2-2-5-3-1-1v-2l1-1v-1l-1-1-1-2 4-2 1.333.667.667.333h-1 1v2l1 1 3-1-3-1h-1l-1-1 .333-.333L228 986l-1-1-4-2-4-1-2-4v-1l1-1h2v-1l2-1 1 1 3-1 1-2h3l1 1 2 1 1-1-1-1v-1l1-1 2-1h2l1 1 2-2h2l4 1v1l-1 2v2l-1 1 1 2h1l3 1h2v1l2 1 2-1 2 2 3-4 3 2v-1l-1-1-2-2h-3l1-2-1-2v-1l-2-1v-3h2v1l1 2-1 2 1 1 2 3 1-1h2l1 2 1 1h3l1-2-1-1-2-1-1-1h-2l-1 2-1-1-2-3 1-3 1-1h1l-2-2h-2v1l-3-1v-1h-3l-3-2v-5l-1-4-2-2-1-2-2-4-4-3v-2l-2-2 3-4 1-3v-2l3 2h2l6 1 3-1 3-2 3-3 2-4v-2l1-1 2-1 2-2v-1l2-1 1-2 1 1-1 1h-1l1 1 2-2 2 1 2-1 4-2 1-2 2 1-1 2h1v-2l-1-1 3-3 1 1 2 1 1-1 2 1 3-1 3-1 2-2 3-3 1-1 1 1 2 1 1 1 2 1v1l-2 2h-1l-1 2h1l2 1 1-2v-1h2l2-1 1 1-1 4h2l1 1 1-2h5l1 1h2l2 1-2 2v2l1 1h2l1 1-1 1h2l1 1h2l1-1h1l1 2 2-1 2-1 4 1 2 1h1l1 2 2-1 1 2 1 1h2l2 1h4l2 1 1-1 2 2 1 1 4 1v-1l8-1h1l1 1 3 2 1 1 1 1h1l2 1 1 2 1-1h1l2 150 4 1v-1l4 2 2-3h5l-1 4 1 1 3 2v2l9 7 1 5 1-1 4-3h2v-5h1l1-2 2-1 3-2 2 1 2 2v2l1 2 2 1v1h2l1 2v1l1 1 3 2 2 2 2 2v1l2 3 1 2 2 2 3 5 2 2 1 2-1 2 3 1v2l2 1v1l1 2h3l3 2h3l1 2h1l1 1 1 1 2-1 1 2v1l-1 2v3l2 4-1 2v2l-1 2-1 2h-4l-2-5 2-2-1-2v-4l-3-4h-2l-2 2-1 2v2l-1 1v1l-2-1v-3l1-1 1-2-1-1v-4h-1l-3-3 1-2h-1l-1-1-2-1-1-1v-2h-2l-1-1-1 1-2-1v-3l-1-3-1-1v-1l-2-3-1-2-1-2h-1l-1-1-1-1h-2l-1-2-3-5-1-3v-2l-2-2v2l1 4 1 2 1 3 1 4v2l-1-1-2-2h-1l-2 1v-2"/></g></svg>